<svg width="350" height="74" viewBox="0 0 350 74" fill="none" xmlns="http://www.w3.org/2000/svg">
<rect y="26" width="10" height="23" rx="5" fill="#8A60FA"/>
<rect x="17" y="6" width="10" height="62" rx="5" fill="#8A60FA"/>
<rect x="34" y="22" width="10" height="31" rx="5" fill="#8A60FA"/>
<rect x="51" width="10" height="74" rx="5" fill="#8A60FA"/>
<rect x="68" y="6" width="10" height="62" rx="5" fill="#8A60FA"/>
<rect x="85" y="6" width="10" height="62" rx="5" fill="#8A60FA"/>
<rect x="102" y="30" width="10" height="15" rx="5" fill="#8A60FA"/>
<rect x="221" y="30" width="10" height="15" rx="5" fill="#8A60FA"/>
<rect x="340" y="30" width="10" height="15" rx="5" fill="#8A60FA"/>
<rect x="119" y="24" width="10" height="26" rx="5" fill="#8A60FA"/>
<rect x="272" y="24" width="10" height="26" rx="5" fill="#8A60FA"/>
<rect x="238" y="24" width="10" height="26" rx="5" fill="#8A60FA"/>
<rect x="136" y="6" width="10" height="62" rx="5" fill="#8A60FA"/>
<rect x="255" y="6" width="10" height="62" rx="5" fill="#8A60FA"/>
<rect x="153" y="20" width="10" height="35" rx="5" fill="#8A60FA"/>
<rect x="170" width="10" height="74" rx="5" fill="#8A60FA"/>
<rect x="289" width="10" height="74" rx="5" fill="#8A60FA"/>
<rect x="187" y="6" width="10" height="62" rx="5" fill="#8A60FA"/>
<rect x="306" y="6" width="10" height="62" rx="5" fill="#8A60FA"/>
<rect x="204" y="10" width="10" height="55" rx="5" fill="#8A60FA"/>
<rect x="323" y="10" width="10" height="55" rx="5" fill="#8A60FA"/>
</svg>
