<svg width="100" height="89" viewBox="0 0 100 89" fill="none" xmlns="http://www.w3.org/2000/svg">
<path d="M28.8666 18.4687H30.5738V19.2964C30.5738 24.418 34.6607 28.6601 39.9375 29.2292V30.2121V31.1433H33.8847V34.6094H39.9375H43.1966H48.4217V31.1433H43.1966V29.1257C45.3177 28.7636 47.2318 27.7806 48.6803 26.3839C50.5945 24.5732 51.7843 22.09 51.7843 19.2964V16.865H45.5246C44.8004 16.865 44.2313 16.3476 44.2313 15.6234C44.2313 14.9509 44.8004 14.4335 45.5246 14.4335H51.7843V12.1055H45.5246C44.8004 12.1055 44.2313 11.5365 44.2313 10.8639C44.2313 10.1914 44.8004 9.67408 45.5246 9.67408H51.7326C51.7326 8.89808 51.5774 8.07035 51.3705 7.34609H45.5246C44.8004 7.34609 44.2313 6.82876 44.2313 6.15623C44.2313 5.4837 44.8004 4.91464 45.5246 4.91464H50.2323C48.4217 1.96586 45.0073 0 41.1273 0C35.2815 0 30.522 4.50077 30.522 10.0362V14.7439H28.8148L27.9871 4.8629H21.4688V34.5577H30.522L28.8666 18.4687Z" fill="#6F4CCE"/>
<path d="M89.3951 4.91455L84.8943 31.1432H83.8596L82.4111 4.91455H76.2549V34.6093H88.826L91.8265 16.8649H93.482L91.4127 34.6093H100L98.1897 4.91455H89.3951Z" fill="#6F4CCE"/>
<path d="M68.8567 66.6321H67.1495L63.373 38.541H42.9384L34.7129 88.0496H56.9581L55.9752 59.079H57.0616L63.1661 85.4629H72.6332L78.686 59.079H79.7724L78.686 88.0496H100V38.541H72.0124L68.8567 66.6321Z" fill="#6F4CCE"/>
<path d="M14.5887 57.9928L35.6958 58.6654V38.4377H0V88.1532H14.6405V67.5634L29.6948 68.029V61.3037L14.5887 62.1315V57.9928Z" fill="#6F4CCE"/>
<path d="M49.7158 34.6093H74.7546L74.8064 31.1432H71.1333L69.1157 4.91455H56.648L52.4577 31.1432H49.7158V34.6093ZM60.3211 16.8649H62.2352L62.9077 31.1432H58.3552L60.3211 16.8649Z" fill="#6F4CCE"/>
<path d="M7.81169 21.6243L8.48423 16.8649H10.3983L10.9674 29.6947L11.2778 34.5576H13.5023H19.5551L19.2964 31.1432L18.9343 26.4872L17.2789 4.91455H4.81118L2.17279 21.3657L0.620803 31.1432H0.517331L0 34.5576H6.00104L7.81169 21.6243Z" fill="#6F4CCE"/>
</svg>
