<svg width="276" height="269" viewBox="0 0 276 269" fill="none" xmlns="http://www.w3.org/2000/svg">
<mask id="path-1-inside-1_6_11" fill="white">
<path d="M55.5492 248.104C30.9917 229.608 13.3413 203.416 5.41739 173.711C-2.50649 144.006 -0.246636 112.502 11.836 84.2324C23.9185 55.9626 45.1267 32.5576 72.0727 17.7561C99.0188 2.95466 130.148 -2.38927 160.488 2.57796C190.827 7.54519 218.627 22.537 239.446 45.1586C260.265 67.7802 272.903 96.7264 275.339 127.373C277.776 158.02 269.872 188.6 252.889 214.227C235.906 239.854 210.824 259.05 181.651 268.749L177.509 256.293C203.898 247.52 226.585 230.156 241.946 206.975C257.308 183.795 264.458 156.135 262.254 128.414C260.05 100.693 248.619 74.5099 229.787 54.0479C210.956 33.586 185.81 20.0255 158.367 15.5324C130.923 11.0394 102.766 15.8732 78.3927 29.2616C54.0192 42.6499 34.8357 63.8205 23.9066 89.3914C12.9775 114.962 10.9334 143.458 18.1008 170.327C25.2682 197.196 41.2336 220.888 63.4466 237.618L55.5492 248.104Z"/>
</mask>
<path d="M55.5492 248.104C30.9917 229.608 13.3413 203.416 5.41739 173.711C-2.50649 144.006 -0.246636 112.502 11.836 84.2324C23.9185 55.9626 45.1267 32.5576 72.0727 17.7561C99.0188 2.95466 130.148 -2.38927 160.488 2.57796C190.827 7.54519 218.627 22.537 239.446 45.1586C260.265 67.7802 272.903 96.7264 275.339 127.373C277.776 158.02 269.872 188.6 252.889 214.227C235.906 239.854 210.824 259.05 181.651 268.749L177.509 256.293C203.898 247.52 226.585 230.156 241.946 206.975C257.308 183.795 264.458 156.135 262.254 128.414C260.05 100.693 248.619 74.5099 229.787 54.0479C210.956 33.586 185.81 20.0255 158.367 15.5324C130.923 11.0394 102.766 15.8732 78.3927 29.2616C54.0192 42.6499 34.8357 63.8205 23.9066 89.3914C12.9775 114.962 10.9334 143.458 18.1008 170.327C25.2682 197.196 41.2336 220.888 63.4466 237.618L55.5492 248.104Z" stroke="#C3D0DD" stroke-width="6" mask="url(#path-1-inside-1_6_11)"/>
</svg>
