<svg width="192" height="192" viewBox="0 0 192 192" fill="none" xmlns="http://www.w3.org/2000/svg">
<path d="M73.0195 135.731V52.7307L135.02 94.7307L73.0195 135.731Z" fill="#DFE7EF"/>
<path d="M97.0355 181.317C80.1348 181.548 63.5451 176.763 49.3641 167.565C35.1832 158.368 24.048 145.173 17.3666 129.647C10.6852 114.122 8.7577 96.9633 11.8279 80.3422C14.8981 63.7212 22.828 48.3838 34.615 36.2696C46.4019 24.1554 61.5164 15.8085 78.0472 12.2844C94.5779 8.76025 111.782 10.2172 127.485 16.471C143.188 22.7248 156.684 33.4946 166.265 47.4184C175.847 61.3422 181.085 77.7947 181.317 94.6953" stroke="white" stroke-width="4"/>
<path d="M97.0355 181.317C80.1348 181.548 63.5451 176.763 49.3641 167.565C35.1832 158.368 24.048 145.173 17.3666 129.647C10.6852 114.122 8.7577 96.9633 11.8279 80.3422C14.8981 63.7212 22.828 48.3838 34.615 36.2696C46.4019 24.1554 61.5164 15.8085 78.0472 12.2844C94.5779 8.76025 111.782 10.2172 127.485 16.471C143.188 22.7248 156.684 33.4946 166.265 47.4184C175.847 61.3422 181.085 77.7947 181.317 94.6953" stroke="#DFE7EF" stroke-width="4"/>
<path d="M95.89 18.967C111.065 18.898 125.92 23.3304 138.576 31.7039C151.232 40.0773 161.12 52.0156 166.991 66.0091C172.862 80.0026 174.452 95.4228 171.559 110.32C168.666 125.217 161.421 138.921 150.739 149.7C140.058 160.48 126.42 167.849 111.55 170.877C96.6797 173.906 81.2457 172.456 67.1994 166.713C53.153 160.969 41.1253 151.19 32.6371 138.61C24.1489 126.031 19.5815 111.217 19.5125 96.0423" stroke="white" stroke-width="4"/>
<path d="M95.89 18.967C111.065 18.898 125.92 23.3304 138.576 31.7039C151.232 40.0773 161.12 52.0156 166.991 66.0091C172.862 80.0026 174.452 95.4228 171.559 110.32C168.666 125.217 161.421 138.921 150.739 149.7C140.058 160.48 126.42 167.849 111.55 170.877C96.6797 173.906 81.2457 172.456 67.1994 166.713C53.153 160.969 41.1253 151.19 32.6371 138.61C24.1489 126.031 19.5815 111.217 19.5125 96.0423" stroke="#DFE7EF" stroke-width="4"/>
</svg>
