<svg width="8" height="7" viewBox="0 0 8 7" fill="none" xmlns="http://www.w3.org/2000/svg">
<path d="M3.99373 6.53868C3.86044 6.53907 3.73128 6.47033 3.62865 6.34441L0.206069 2.12111C0.0895779 1.97774 0.0163207 1.77171 0.00241378 1.54836C-0.0114932 1.32501 0.0350893 1.10263 0.131913 0.930135C0.228737 0.757641 0.367872 0.649167 0.518708 0.628574C0.669545 0.607982 0.819728 0.676958 0.93622 0.820329L3.99373 4.60441L7.05123 0.955476C7.10958 0.885313 7.17672 0.832917 7.24879 0.8013C7.32085 0.769683 7.39643 0.759468 7.47117 0.771242C7.54591 0.783016 7.61835 0.816546 7.68431 0.869906C7.75027 0.923267 7.80847 0.995405 7.85554 1.08217C7.90778 1.16902 7.94734 1.27091 7.97175 1.38146C7.99616 1.492 8.00489 1.60882 7.9974 1.72459C7.9899 1.84036 7.96634 1.95259 7.92818 2.05425C7.89003 2.15591 7.83811 2.24481 7.77568 2.31538L4.3531 6.39509C4.24752 6.50111 4.12099 6.55166 3.99373 6.53868Z" fill="#196A7B"/>
</svg>
