<svg width="110" height="25" viewBox="0 0 110 25" fill="none" xmlns="http://www.w3.org/2000/svg">
<rect x="0.5" y="0.5" width="109" height="24" rx="12" fill="white" stroke="#196A7B"/>
<path d="M12.302 17H13.688V12.786H17.146V11.582H13.688V8.32H17.748V7.116H12.302V17ZM19.4934 17H20.8794V13.066H22.9934L25.0794 17H26.6474L24.5474 13.164C24.3794 12.856 24.2674 12.716 24.2674 12.716V12.688C25.3454 12.324 26.0314 11.232 26.0314 9.972C26.0314 8.712 25.4154 7.802 24.4634 7.382C24.0574 7.2 23.5814 7.116 22.6294 7.116H19.4934V17ZM20.8794 11.862V8.32H22.5174C23.1474 8.32 23.4554 8.376 23.7074 8.488C24.3234 8.754 24.6314 9.328 24.6314 10.042C24.6314 11.134 23.9454 11.862 22.8674 11.862H20.8794ZM28.2844 17H34.2764V15.796H29.6704V12.618H33.2124V11.414H29.6704V8.32H34.0384V7.116H28.2844V17ZM36.1868 17H42.1788V15.796H37.5728V12.618H41.1148V11.414H37.5728V8.32H41.9408V7.116H36.1868V17ZM46.7351 16.132C47.4351 16.846 48.4851 17.168 49.4371 17.168C50.9491 17.168 51.9851 16.286 51.9851 15.082C51.9851 12.744 48.3311 13.15 48.3311 11.764C48.3311 11.162 48.8491 10.882 49.5351 10.882C50.1651 10.882 50.9071 11.12 51.3271 11.512L51.8731 10.532C51.2571 9.972 50.3891 9.748 49.5771 9.748C48.1911 9.748 47.0291 10.448 47.0291 11.792C47.0291 14.116 50.6691 13.752 50.6691 15.11C50.6691 15.698 50.1791 16.034 49.4651 16.034C48.7231 16.034 47.9111 15.726 47.3791 15.208L46.7351 16.132ZM53.5988 17H54.9568V13.64C54.9568 12.114 55.9508 10.994 57.3228 10.994C58.4568 10.994 58.6528 11.778 58.6528 12.772V17H60.0108V12.464C60.0108 10.658 59.2548 9.748 57.5888 9.748C56.1748 9.748 55.2508 10.7 54.9288 11.372H54.9008C54.9008 11.372 54.9568 11.12 54.9568 10.784V7.116H53.5988V17ZM62.0064 8.488H63.4064V7.116H62.0064V8.488ZM62.0344 17H63.3924V9.916H62.0344V17ZM65.4797 19.8H66.8377V16.58C66.8377 16.216 66.7817 15.964 66.7817 15.964H66.8097C67.2997 16.72 68.1117 17.168 69.0077 17.168C70.8697 17.168 72.2137 15.712 72.2137 13.458C72.2137 11.26 71.0237 9.748 69.1057 9.748C68.0697 9.748 67.1737 10.224 66.7257 11.078H66.6977C66.6977 11.078 66.7397 10.84 66.7397 10.546V9.916H65.4797V19.8ZM66.7957 13.486C66.7957 11.694 67.7757 10.938 68.8397 10.938C70.0157 10.938 70.8417 11.932 70.8417 13.472C70.8417 15.082 69.9177 15.992 68.7977 15.992C67.4957 15.992 66.7957 14.746 66.7957 13.486ZM73.8879 19.8H75.2459V16.58C75.2459 16.216 75.1899 15.964 75.1899 15.964H75.2179C75.7079 16.72 76.5199 17.168 77.4159 17.168C79.2779 17.168 80.6219 15.712 80.6219 13.458C80.6219 11.26 79.4319 9.748 77.5139 9.748C76.4779 9.748 75.5819 10.224 75.1339 11.078H75.1059C75.1059 11.078 75.1479 10.84 75.1479 10.546V9.916H73.8879V19.8ZM75.2039 13.486C75.2039 11.694 76.1839 10.938 77.2479 10.938C78.4239 10.938 79.2499 11.932 79.2499 13.472C79.2499 15.082 78.3259 15.992 77.2059 15.992C75.9039 15.992 75.2039 14.746 75.2039 13.486ZM82.2681 8.488H83.6681V7.116H82.2681V8.488ZM82.2961 17H83.6541V9.916H82.2961V17ZM85.7414 17H87.0994V13.598C87.0994 12.142 88.0794 10.994 89.4654 10.994C90.5994 10.994 90.7954 11.778 90.7954 12.772V17H92.1534V12.464C92.1534 10.658 91.3974 9.748 89.7314 9.748C88.1774 9.748 87.3094 10.798 87.0434 11.414H87.0154C87.0154 11.414 87.0574 11.176 87.0574 10.882V9.916H85.7414V17ZM94.849 18.288L94.401 19.352C95.101 19.702 95.969 19.94 96.823 19.94C98.615 19.94 100.393 19.044 100.393 16.706V9.916H99.091V10.616C99.091 10.742 99.133 10.826 99.133 10.826H99.091C98.643 10.07 97.733 9.748 96.851 9.748C94.877 9.748 93.757 11.26 93.757 13.304C93.757 15.334 94.947 16.916 96.921 16.916C97.943 16.916 98.629 16.468 99.049 15.768H99.077C99.077 15.768 99.035 15.992 99.035 16.216V16.79C99.035 18.204 98.027 18.764 96.795 18.764C96.109 18.764 95.409 18.568 94.849 18.288ZM95.129 13.262C95.129 11.82 95.843 10.924 97.061 10.924C98.167 10.924 99.063 11.456 99.063 13.304C99.063 15.152 98.167 15.74 97.187 15.74C95.913 15.74 95.129 14.732 95.129 13.262Z" fill="#196A7B"/>
</svg>
