<svg width="40" height="40" viewBox="0 0 40 40" fill="none" xmlns="http://www.w3.org/2000/svg">
<circle r="20" transform="matrix(-1 0 0 1 20 20)" fill="white"/>
<path d="M23.3838 12.0447C23.6181 12.2791 23.7498 12.597 23.7498 12.9284C23.7498 13.2599 23.6181 13.5778 23.3838 13.8122L17.1963 19.9997L23.3838 26.1872C23.6115 26.4229 23.7375 26.7387 23.7346 27.0664C23.7318 27.3942 23.6003 27.7077 23.3685 27.9395C23.1368 28.1712 22.8233 28.3027 22.4955 28.3055C22.1678 28.3084 21.852 28.1824 21.6163 27.9547L14.545 20.8834C14.3107 20.649 14.179 20.3312 14.179 19.9997C14.179 19.6682 14.3107 19.3504 14.545 19.1159L21.6163 12.0447C21.8507 11.8104 22.1686 11.6787 22.5 11.6787C22.8315 11.6787 23.1494 11.8104 23.3838 12.0447V12.0447Z" fill="#5A5A5A"/>
</svg>
