<svg width="220" height="220" viewBox="0 0 220 220" fill="none" xmlns="http://www.w3.org/2000/svg">
<rect x="0.420253" y="0.420253" width="219.16" height="219.16" rx="58.4152" fill="#F7F4FF"/>
<path fill-rule="evenodd" clip-rule="evenodd" d="M62.0095 149.756H51.2523C52.4162 143.125 59.5054 140.162 62.7149 127.43C66.9472 110.571 58.6236 99.7437 52.7689 94.4886C52.7336 94.4533 53.2627 113.181 47.3727 124.503C49.0656 117.661 50.0179 109.584 50.0179 100.908C50.0179 76.3248 42.1881 56.3623 32.489 56.3623C22.8252 56.3623 14.9601 76.2895 14.9601 100.908C14.9601 125.49 22.7899 145.453 32.489 145.453C38.3437 145.453 43.5283 138.152 46.7026 126.972C48.0428 126.125 50.3001 126.09 50.7233 126.09C54.7793 126.09 57.9888 131.134 51.605 139.598C48.2544 144.501 47.1611 147.499 46.9142 149.791H35.3105C34.1467 149.791 33.4413 150.426 33.4413 151.484V161.042C30.7608 161.218 28.6094 163.44 28.6094 166.191V166.509H63.8788V151.484C63.8788 150.355 63.2087 149.756 62.0095 149.756ZM36.2628 131.627C32.101 131.627 28.7504 119.495 28.7504 104.505C28.7504 89.5156 32.101 77.3829 36.2628 77.3829C36.4392 77.3829 36.5802 77.4182 36.7566 77.4534C35.7691 74.1381 34.4641 71.0697 32.9475 68.2834C42.7524 80.0986 43.2109 94.1359 43.2462 94.1006V94.0653C43.5989 97.2749 43.8105 100.767 43.8105 104.47C43.7752 119.495 40.4246 131.627 36.2628 131.627Z" fill="#E3090F"/>
<path fill-rule="evenodd" clip-rule="evenodd" d="M158.754 103.729V96.1462L161.011 93.2894C161.575 93.7479 162.986 95.1587 162.986 97.4865V112.934H168.488V97.0985C168.488 93.9948 167.113 91.0674 164.679 89.0571L164.503 88.8807L165.173 88.0342C167.324 85.2832 168.524 81.8621 168.524 78.3704V67.9307H163.021V79.1111C163.021 81.3683 162.246 83.5903 160.87 85.3538L158.824 87.9284V67.9307H153.322V84.4368V103.694V112.899H158.789L158.754 103.729Z" fill="#342483"/>
<path fill-rule="evenodd" clip-rule="evenodd" d="M205.591 73.4327V67.9307H194.376C193.459 67.9307 192.718 68.6713 192.718 69.5883V111.242C192.718 112.159 193.459 112.899 194.376 112.899H205.591V107.432H198.185V87.6815H205.274V82.1795H198.185V73.4327H205.591Z" fill="#342483"/>
<path fill-rule="evenodd" clip-rule="evenodd" d="M146.339 134.943L142.142 141.044V121.47H136.64V166.474H142.142V149.756L146.339 143.725V166.474H151.841V121.47H146.339V134.943Z" fill="#342483"/>
<path fill-rule="evenodd" clip-rule="evenodd" d="M107.86 121.47H102.041C97.5261 121.47 94.6692 124.785 94.3518 130.322C94.3165 130.781 94.3165 131.204 94.3165 131.592V166.438H99.8186V149.756H104.016V166.474H109.518V123.127C109.518 122.21 108.777 121.47 107.86 121.47ZM104.016 144.254H99.8186C99.8186 144.254 99.8186 130.111 99.8186 130.075C99.8186 128.418 100.207 126.972 102.041 126.972H104.051L104.016 144.254Z" fill="#342483"/>
<path fill-rule="evenodd" clip-rule="evenodd" d="M164.044 121.117C159.53 121.117 156.673 124.432 156.356 129.97C156.32 130.428 156.32 130.851 156.32 131.239V156.633V156.739V156.915C156.32 163.052 159.213 166.72 164.044 166.72C168.559 166.72 171.416 163.405 171.733 157.868C171.768 157.409 171.768 156.986 171.768 156.598V131.204V131.098V130.922C171.733 124.785 168.876 121.117 164.044 121.117ZM166.302 158.467C166.231 159.49 165.878 161.218 164.044 161.218C162.21 161.218 161.822 159.49 161.787 158.467C161.787 158.079 161.752 129.899 161.787 129.476C161.858 128.453 162.21 126.69 164.044 126.69C165.878 126.69 166.266 128.418 166.302 129.441C166.302 129.934 166.337 157.691 166.302 158.467Z" fill="#342483"/>
<path fill-rule="evenodd" clip-rule="evenodd" d="M146.974 110.571C148.349 108.843 149.055 106.48 149.055 103.588V98.5798H143.623V103.694C143.623 105.105 143.376 106.127 142.918 106.798C142.459 107.432 141.895 107.75 141.189 107.75C140.414 107.75 139.885 107.468 139.461 106.868C139.003 106.233 138.826 105.281 138.826 103.835V76.9244C138.826 75.4783 139.038 74.5261 139.461 73.8912C139.885 73.2916 140.449 73.0095 141.189 73.0095C141.895 73.0095 142.459 73.3269 142.918 73.9617C143.376 74.6319 143.623 75.6547 143.623 77.0655V82.1795H149.055V77.1713C149.055 74.2439 148.349 71.9161 146.974 70.1879C145.528 68.3892 143.588 67.4722 141.189 67.4722C138.791 67.4722 136.851 68.3892 135.405 70.1879C134.03 71.9161 133.324 74.2792 133.324 77.1713V103.588C133.324 106.515 134.03 108.843 135.405 110.571C136.851 112.37 138.791 113.287 141.189 113.287C143.588 113.287 145.528 112.37 146.974 110.571Z" fill="#342483"/>
<path fill-rule="evenodd" clip-rule="evenodd" d="M180.444 67.4722C175.894 67.4722 172.967 70.8228 172.685 76.4306C172.65 76.8891 172.65 77.3123 172.65 77.7356V103.694V103.8V103.976C172.65 110.183 175.577 113.922 180.444 113.922C184.994 113.922 187.921 110.571 188.203 104.964C188.239 104.505 188.239 104.082 188.239 103.659V77.7003V77.5945V77.4182C188.239 71.1755 185.311 67.4722 180.444 67.4722ZM182.737 105.493C182.666 106.551 182.313 108.314 180.444 108.314C178.575 108.314 178.187 106.551 178.152 105.528C178.152 105.105 178.116 76.3601 178.152 75.9721C178.222 74.914 178.575 73.1505 180.444 73.1505C182.313 73.1505 182.701 74.914 182.737 75.9721C182.737 76.3953 182.772 104.717 182.737 105.493Z" fill="#342483"/>
<path fill-rule="evenodd" clip-rule="evenodd" d="M121.826 113.287C124.224 113.287 126.164 112.37 127.61 110.571C128.986 108.843 129.691 106.48 129.691 103.588V98.5798H124.26V103.694C124.26 105.105 124.013 106.127 123.554 106.798C123.096 107.432 122.532 107.75 121.826 107.75C121.05 107.75 120.521 107.468 120.098 106.868C119.639 106.233 119.463 105.281 119.463 103.835V76.9244C119.463 75.4783 119.675 74.5261 120.098 73.8912C120.521 73.2916 121.085 73.0095 121.826 73.0095C122.532 73.0095 123.096 73.3269 123.554 73.9617C124.013 74.6319 124.26 75.6547 124.26 77.0655V82.1795H129.691V77.1713C129.691 74.2439 128.986 71.9161 127.61 70.1879C126.164 68.3892 124.224 67.4722 121.826 67.4722C119.428 67.4722 117.488 68.3892 116.042 70.1879C114.666 71.9161 113.961 74.2792 113.961 77.1713V103.588C113.961 106.515 114.666 108.843 116.042 110.571C117.488 112.37 119.428 113.287 121.826 113.287Z" fill="#342483"/>
<path fill-rule="evenodd" clip-rule="evenodd" d="M75.6943 69.6236V112.934H81.161V96.1462L87.5095 88.0342C89.661 85.2832 90.8601 81.8621 90.8601 78.3704V67.9307H77.3519C76.4349 67.9307 75.6943 68.7066 75.6943 69.6236ZM81.161 73.3974H85.3581V79.1111C85.3581 81.3683 84.5822 83.5903 83.2067 85.3538L81.161 87.9284V73.3974Z" fill="#342483"/>
<path fill-rule="evenodd" clip-rule="evenodd" d="M75.6943 123.128V166.438H81.161V149.65L87.5095 141.538C89.661 138.787 90.8601 135.366 90.8601 131.874V121.435H77.3519C76.4349 121.47 75.6943 122.21 75.6943 123.128ZM81.161 126.937H85.3581V132.65C85.3581 134.907 84.5822 137.129 83.2067 138.893L81.161 141.468V126.937Z" fill="#342483"/>
<path fill-rule="evenodd" clip-rule="evenodd" d="M130.962 160.936V125.667V123.127C130.962 122.21 130.221 121.47 129.304 121.47H123.484C118.97 121.47 116.113 124.785 115.796 130.322C115.76 130.781 115.76 131.204 115.76 131.592V143.302C115.76 149.192 114.773 159.102 114.561 160.901H111.951V166.438H133.854V160.901H130.962V160.936ZM125.495 160.936H120.099C120.769 155.117 121.262 150.109 121.262 143.337V130.075C121.262 128.418 121.65 126.972 123.484 126.972H125.495V160.936Z" fill="#342483"/>
<path fill-rule="evenodd" clip-rule="evenodd" d="M104.016 67.9307V87.9284L101.97 85.3538C100.594 83.5903 99.8186 81.3683 99.8186 79.1111V67.9307H94.3165V78.3704C94.3165 81.8621 95.5157 85.2832 97.6671 88.0342L104.333 96.4989V98.5798H99.1484C96.468 98.5798 94.3165 100.731 94.3165 103.412V108.103C94.3165 110.783 96.468 112.934 99.1484 112.934H104.65C107.331 112.934 109.482 110.783 109.482 108.103V103.2C109.482 103.165 109.482 103.165 109.482 103.13V67.9659H104.016V67.9307ZM104.368 107.08C104.368 107.468 104.051 107.75 103.698 107.75H100.207C99.8186 107.75 99.5364 107.432 99.5364 107.08V104.47C99.5364 104.082 99.8538 103.8 100.207 103.8H104.368V107.08Z" fill="#342483"/>
<path fill-rule="evenodd" clip-rule="evenodd" d="M56.4725 67.9307C53.6862 67.9307 51.3937 70.2232 51.3937 73.0095C51.3937 75.7957 53.6862 78.0883 56.4725 78.0883C59.2588 78.0883 61.5513 75.7957 61.5513 73.0095C61.5513 70.2232 59.2588 67.9307 56.4725 67.9307ZM60.5637 73.0095C60.5637 75.2667 58.7297 77.1007 56.4725 77.1007C54.2152 77.1007 52.3812 75.2667 52.3812 73.0095C52.3812 70.7522 54.2152 68.9182 56.4725 68.9182C58.7297 68.9182 60.5637 70.7522 60.5637 73.0095Z" fill="#E3090F"/>
<path fill-rule="evenodd" clip-rule="evenodd" d="M57.5309 73.4327C58.0247 73.1858 58.3774 72.6215 58.3774 71.9867C58.3774 71.2813 58.0247 70.7522 57.4603 70.5053C57.2135 70.3995 56.9313 70.3643 56.4375 70.3643H54.6388V75.6899H55.7321V73.7501H56.5081L57.5309 75.6899H58.7653L57.6367 73.6443C57.6014 73.5385 57.5662 73.468 57.5309 73.4327ZM57.2487 72.0219C57.2487 72.4804 56.9666 72.7626 56.5081 72.7626H55.7674V71.3165H56.367C56.6491 71.3165 56.7902 71.3518 56.896 71.3871C57.2135 71.5281 57.2487 71.8103 57.2487 72.0219Z" fill="#E3090F"/>
<path fill-rule="evenodd" clip-rule="evenodd" d="M75.6932 54.1051C75.9754 54.0345 76.5044 53.9993 77.0335 53.9993C77.7036 53.9993 78.1268 54.1051 78.4795 54.3167C78.7969 54.493 79.0086 54.8457 79.0086 55.269C79.0086 55.7275 78.7264 56.1507 78.1621 56.3623V56.3976C78.6911 56.5387 79.1849 56.9619 79.1849 57.632C79.1849 58.0905 78.9733 58.4432 78.6911 58.6548C78.3384 58.9723 77.7389 59.1133 76.8219 59.1133C76.3281 59.1133 75.9401 59.0781 75.6932 59.0428V54.1051ZM76.6102 56.1154H77.0687C77.7036 56.1154 78.0563 55.8333 78.0563 55.3748C78.0563 54.881 77.7036 54.6694 77.104 54.6694C76.8219 54.6694 76.6808 54.6694 76.575 54.7047V56.1154H76.6102ZM76.6102 58.4079C76.7161 58.4432 76.8924 58.4432 77.104 58.4432C77.7036 58.4432 78.2326 58.2316 78.2326 57.5968C78.2326 56.9972 77.7036 56.7856 77.0687 56.7856H76.6102V58.4079Z" fill="#E3090F"/>
<path fill-rule="evenodd" clip-rule="evenodd" d="M87.6845 58.9369C87.4729 59.0427 86.9791 59.1485 86.3795 59.1485C84.7924 59.1485 83.8049 58.1609 83.8049 56.6091C83.8049 54.9514 84.9688 53.9639 86.5206 53.9639C87.1202 53.9639 87.5434 54.0697 87.755 54.1755L87.5434 54.9161C87.2965 54.8103 86.9791 54.7045 86.5559 54.7045C85.5331 54.7045 84.7924 55.3394 84.7924 56.5738C84.7924 57.6672 85.4273 58.3725 86.5559 58.3725C86.9086 58.3725 87.2965 58.302 87.5434 58.1962L87.6845 58.9369Z" fill="#E3090F"/>
<path fill-rule="evenodd" clip-rule="evenodd" d="M95.4083 56.856H93.5038V58.3373H95.62V59.078H92.5868V54.0345H95.5142V54.7751H93.5038V56.0801H95.4083V56.856ZM93.2922 53.7171C93.0453 53.7171 92.8337 53.5054 92.8337 53.2586C92.8337 53.0117 93.0453 52.8 93.2922 52.8C93.5391 52.8 93.7154 53.0117 93.7154 53.2586C93.7154 53.5054 93.5391 53.7171 93.2922 53.7171ZM94.7735 53.7171C94.5266 53.7171 94.3503 53.5054 94.3503 53.2586C94.3503 53.0117 94.5266 52.8 94.8088 52.8C95.0557 52.8 95.232 53.0117 95.232 53.2586C95.1967 53.5054 95.0204 53.7171 94.7735 53.7171Z" fill="#E3090F"/>
<path fill-rule="evenodd" clip-rule="evenodd" d="M110.222 54.0344V54.7751H108.035V55.8684C108.211 55.8332 108.458 55.8332 108.67 55.8332C109.164 55.8332 109.657 55.939 110.045 56.2211C110.398 56.468 110.645 56.856 110.645 57.4556C110.645 57.9493 110.469 58.302 110.186 58.5842C109.728 59.0074 108.987 59.1485 108.282 59.1485C107.753 59.1485 107.4 59.1132 107.153 59.078V54.0344H110.222ZM108 58.4078C108.141 58.4431 108.282 58.4431 108.493 58.4431C108.846 58.4431 109.164 58.3373 109.375 58.1257C109.516 57.9493 109.622 57.7377 109.622 57.4556C109.622 57.1381 109.481 56.9265 109.269 56.7502C109.058 56.5738 108.74 56.5033 108.423 56.5033C108.282 56.5033 108.105 56.5033 107.964 56.5386V58.4078H108Z" fill="#E3090F"/>
<path fill-rule="evenodd" clip-rule="evenodd" d="M115.936 54.0344L116.782 56.0095C116.923 56.3269 117.029 56.6444 117.135 56.9265H117.17C117.241 56.6796 117.347 56.3975 117.452 55.9742L118.122 54.0344H119.11L118.122 56.5738C117.84 57.3145 117.523 58.0551 117.135 58.5489C116.818 58.9721 116.394 59.1838 115.901 59.1838C115.689 59.1838 115.548 59.1485 115.442 59.1132L115.513 58.3726C115.583 58.4078 115.689 58.4078 115.83 58.4078C116.253 58.4078 116.535 58.0551 116.641 57.773C116.676 57.6672 116.676 57.5966 116.606 57.4908L114.913 54.0344H115.936Z" fill="#E3090F"/>
<path fill-rule="evenodd" clip-rule="evenodd" d="M127.046 54.0344V58.3373L127.504 58.3726L127.469 60.3477H126.764L126.728 59.1132H123.66L123.589 60.3477H122.884L122.849 58.3726L123.237 58.3373C123.448 57.9846 123.625 57.6319 123.731 57.2087C123.872 56.6796 123.942 56.0801 123.942 55.3394V54.0344H127.046ZM124.824 55.5863C124.824 56.2917 124.753 56.8912 124.577 57.4203C124.471 57.7377 124.33 58.0551 124.189 58.3373H126.094V54.8104H124.789V55.5863H124.824Z" fill="#E3090F"/>
<path fill-rule="evenodd" clip-rule="evenodd" d="M135.193 56.856H133.288V58.3373H135.404V59.078H132.371V54.0344H135.299V54.8104H133.288V56.1153H135.193V56.856Z" fill="#E3090F"/>
<path fill-rule="evenodd" clip-rule="evenodd" d="M141.295 54.8104H139.849V54.0344H143.658V54.8104H142.212V59.078H141.295V54.8104Z" fill="#E3090F"/>
<path fill-rule="evenodd" clip-rule="evenodd" d="M157.766 59.078L157.237 58.0904C157.025 57.7024 156.884 57.4203 156.743 57.1381C156.637 57.4203 156.496 57.7024 156.284 58.0904L155.791 59.078H154.732L156.214 56.5386L154.768 54.0344H155.826L156.355 55.0572C156.531 55.3747 156.637 55.6215 156.778 55.9037H156.813C156.954 55.5863 157.06 55.3747 157.201 55.0572L157.73 54.0344H158.788L157.307 56.5033L158.824 59.078H157.766Z" fill="#E3090F"/>
<path fill-rule="evenodd" clip-rule="evenodd" d="M165.419 59.1837C163.973 59.1837 163.091 58.0904 163.091 56.6091C163.091 55.0572 164.078 53.9639 165.489 53.9639C166.97 53.9639 167.817 55.0925 167.817 56.5033C167.852 58.1962 166.829 59.1837 165.419 59.1837ZM165.489 58.4431C166.371 58.4431 166.865 57.6319 166.865 56.5738C166.865 55.6215 166.406 54.7398 165.489 54.7398C164.572 54.7398 164.078 55.6215 164.078 56.6091C164.078 57.5966 164.572 58.4431 165.489 58.4431Z" fill="#E3090F"/>
<path fill-rule="evenodd" clip-rule="evenodd" d="M172.755 54.1051C173.108 54.0345 173.531 53.9993 174.166 53.9993C174.836 53.9993 175.33 54.1403 175.647 54.4225C175.929 54.6694 176.141 55.0574 176.141 55.5511C176.141 56.0449 176 56.4329 175.718 56.6797C175.33 57.0324 174.765 57.2088 174.13 57.2088C173.954 57.2088 173.813 57.2088 173.672 57.1735V59.0781H172.755V54.1051ZM173.672 56.4681C173.778 56.5034 173.919 56.5034 174.13 56.5034C174.836 56.5034 175.224 56.1507 175.224 55.5864C175.224 55.0221 174.836 54.7399 174.201 54.7399C173.954 54.7399 173.778 54.7752 173.672 54.7752V56.4681Z" fill="#E3090F"/>
<path fill-rule="evenodd" clip-rule="evenodd" d="M183.089 59.1837C181.678 59.1837 180.761 58.0904 180.761 56.6091C180.761 55.0572 181.748 53.9639 183.159 53.9639C184.64 53.9639 185.487 55.0925 185.487 56.5033C185.487 58.1962 184.464 59.1837 183.089 59.1837ZM183.124 58.4431C184.006 58.4431 184.499 57.6319 184.499 56.5738C184.499 55.6215 184.041 54.7398 183.124 54.7398C182.207 54.7398 181.713 55.6215 181.713 56.6091C181.713 57.5966 182.242 58.4431 183.124 58.4431Z" fill="#E3090F"/>
<path fill-rule="evenodd" clip-rule="evenodd" d="M191.307 54.0344V58.3373H192.717V54.0344H193.599V58.3373H195.045V54.0344H195.927V59.078H190.39V54.0344H191.307Z" fill="#E3090F"/>
<path fill-rule="evenodd" clip-rule="evenodd" d="M203.192 59.1837C201.746 59.1837 200.864 58.0904 200.864 56.6091C200.864 55.0572 201.852 53.9639 203.263 53.9639C204.744 53.9639 205.59 55.0925 205.59 56.5033C205.59 58.1962 204.568 59.1837 203.192 59.1837ZM203.227 58.4431C204.109 58.4431 204.603 57.6319 204.603 56.5738C204.603 55.6215 204.144 54.7398 203.227 54.7398C202.31 54.7398 201.817 55.6215 201.817 56.6091C201.817 57.5966 202.346 58.4431 203.227 58.4431Z" fill="#E3090F"/>
<path fill-rule="evenodd" clip-rule="evenodd" d="M193.811 144.571C194.058 144.359 194.481 144.183 194.834 144.183L194.904 144.148C195.857 143.971 197.056 144.042 198.149 144.042H198.22L199.278 144.077L199.383 144.113C199.948 144.113 200.336 144.254 200.759 144.465L200.794 144.5C201.253 144.677 201.605 145.03 201.605 145.664C201.605 146.299 201.253 146.617 200.794 146.828L200.759 146.864C200.477 147.005 200.547 147.04 200.195 147.04L200.159 147.075C199.489 147.252 199.207 147.287 198.431 147.287H198.325H198.184H198.079H196.668H196.562H196.456H196.386C195.751 147.287 195.504 147.252 194.94 147.181L194.834 147.146C194.481 147.146 194.058 146.969 193.846 146.828L193.776 146.793C192.929 146.193 192.929 144.994 193.811 144.571ZM205.485 145.171C205.45 144.888 205.415 144.571 205.344 144.183C205.097 143.019 204.568 142.455 203.757 141.785L203.686 141.714C203.51 141.644 203.545 141.679 203.369 141.538L203.334 141.503C203.193 141.432 203.228 141.467 203.051 141.397L203.016 141.362C202.769 141.326 202.522 141.185 202.24 141.115C201.923 141.009 201.711 140.974 201.359 140.868L201.288 140.832H200.971L200.865 140.762C200.583 140.762 200.054 140.691 199.771 140.656C199.348 140.586 198.96 140.621 198.502 140.586L198.431 140.515H196.774L196.738 140.586C196.386 140.621 196.033 140.586 195.68 140.621C195.398 140.656 194.94 140.727 194.657 140.727L194.587 140.797C194.023 140.868 193.247 141.15 192.823 141.362L192.753 141.432H192.647L192.576 141.467C192.435 141.573 192.4 141.608 192.224 141.679C192.118 141.749 192.118 141.749 192.047 141.82C191.871 141.926 192.012 141.855 191.801 141.961L191.236 142.596C191.095 142.808 191.166 142.596 191.095 142.843C190.778 142.843 191.06 142.843 190.954 142.737L190.884 142.631L190.848 142.596C190.637 142.384 190.566 142.349 190.354 142.208C190.143 142.032 190.072 141.961 189.825 141.82C189.437 141.608 189.014 141.397 188.591 141.256L188.52 141.22C188.203 141.185 187.921 141.079 187.568 141.009C187.216 140.938 186.863 140.938 186.51 140.868L186.404 140.832H183.759L183.653 140.868C183.406 140.938 182.983 140.974 182.736 140.974L182.666 141.009L182.137 141.115L182.031 141.185C181.784 141.22 181.502 141.362 181.29 141.467C181.008 141.608 180.832 141.714 180.514 141.82L180.479 141.855C180.338 141.996 180.444 141.926 180.303 141.961L180.267 141.996C180.056 142.208 180.162 142.137 179.915 142.279L179.844 142.314L179.809 142.384C179.633 142.561 179.633 142.631 179.492 142.808C179.315 143.019 179.35 142.984 179.209 143.196L179.139 143.266L178.927 143.654L178.892 143.689C178.857 143.971 178.892 143.795 178.786 144.042L178.751 144.077C178.751 144.324 178.68 144.43 178.61 144.677C178.575 144.888 178.575 145.1 178.539 145.347L178.504 145.453V145.7L178.539 145.805C178.61 146.335 178.575 146.511 178.716 146.969C178.821 147.287 178.962 147.604 179.104 147.922L179.139 147.957C179.28 148.133 179.35 148.239 179.456 148.415L179.527 148.521C179.738 148.803 179.95 148.944 180.232 149.156L180.303 149.227C180.796 149.509 181.361 149.826 181.996 150.038L182.066 150.073C182.384 150.108 183.265 150.32 183.83 150.39C185.276 150.496 187.074 150.39 188.485 149.932C188.767 149.826 189.014 149.685 189.261 149.65L189.332 149.615C189.543 149.438 189.614 149.438 189.825 149.332L189.861 149.297L190.919 148.345L191.765 149.121L191.836 149.191C192.118 149.368 192.33 149.544 192.647 149.72C192.929 149.861 193.211 150.038 193.529 150.144L193.599 150.179L194.234 150.355L194.269 150.39H194.552L194.587 150.461L194.834 150.496L194.94 150.532C195.151 150.532 195.61 150.602 195.857 150.637L195.927 150.673H196.703L196.738 150.743H198.325L198.396 150.708L199.525 150.673L199.63 150.637L200.23 150.602L200.336 150.567C200.865 150.496 201.182 150.426 201.641 150.32C201.852 150.249 201.993 150.214 202.24 150.144C202.487 150.073 202.593 150.003 202.84 149.932L202.875 149.897C203.228 149.72 203.545 149.544 203.792 149.332C204.039 149.121 204.321 148.803 204.568 148.556L204.603 148.521C204.674 148.38 204.568 148.451 204.709 148.345L204.744 148.274L204.991 147.745L205.062 147.675C205.203 147.005 205.309 146.546 205.379 146.052V145.171H205.485ZM182.595 145.523C182.595 145.171 182.701 144.959 182.877 144.783C183.054 144.606 183.371 144.43 183.689 144.43L183.724 144.395C184.077 144.324 184.464 144.254 184.782 144.218C185.17 144.183 185.664 144.218 186.052 144.218H186.228C187.357 144.218 188.379 144.254 189.014 144.747C189.296 144.959 189.543 145.417 189.367 146.017C189.261 146.405 188.873 146.722 188.485 146.828L188.379 146.899H188.238L188.168 146.969H187.956L187.886 147.04H187.498L187.427 147.11H186.334L185.981 147.146L185.911 147.11C185.205 147.11 184.747 147.146 184.147 147.005L184.077 146.969C183.759 146.969 183.442 146.864 183.23 146.722L183.195 146.687C183.018 146.581 183.089 146.652 182.948 146.476L182.913 146.44C182.666 146.193 182.63 146.158 182.63 145.7V145.523H182.595ZM193.423 157.762C193.564 157.515 193.458 157.656 193.635 157.48C194.234 157.021 195.222 156.915 195.962 156.915L196.033 156.845H198.572L198.608 156.915H199.419L199.525 156.986C199.913 156.986 200.089 157.092 200.406 157.197L200.442 157.233C200.759 157.303 200.9 157.374 201.076 157.585V157.621L201.182 157.691C201.359 157.938 201.359 157.868 201.429 158.185L201.464 158.22C201.57 158.608 201.535 158.82 201.359 159.067C201.217 159.314 201.076 159.455 200.83 159.596C200.442 159.843 199.736 160.054 199.137 160.054L199.066 160.09C198.29 160.266 195.61 160.16 194.904 160.019C194.269 159.913 193.776 159.737 193.423 159.349C193.07 158.926 193 158.22 193.423 157.762ZM182.595 158.467C182.595 158.115 182.595 158.185 182.701 157.903L182.772 157.832L183.089 157.515L183.16 157.48C183.301 157.374 183.195 157.409 183.406 157.374L183.477 157.339L183.618 157.303L183.689 157.268C184.041 157.197 184.006 157.162 184.429 157.162L184.464 157.127L185.205 157.092L185.311 157.056C185.734 156.951 186.51 156.951 186.933 157.056L186.969 157.092L187.674 157.127L187.709 157.162C190.037 157.162 189.896 159.631 188.203 159.772L188.133 159.807C187.78 159.878 187.78 159.913 187.357 159.913L187.286 159.949C186.369 160.125 184.323 159.984 183.477 159.666C183.301 159.596 183.16 159.561 183.018 159.419C182.842 159.278 182.736 159.208 182.701 158.961L182.666 158.89L182.63 158.644V158.467H182.595ZM195.539 153.459L195.433 153.494L194.94 153.529L194.904 153.6C194.375 153.635 193.776 153.847 193.352 153.988C193.07 154.094 192.894 154.2 192.682 154.305C192.435 154.446 192.294 154.552 192.047 154.693L192.012 154.729C191.836 154.87 191.73 154.976 191.554 155.152C191.342 155.363 191.342 155.469 191.095 155.681H191.06C190.884 155.505 190.813 155.434 190.637 155.293C190.425 155.081 190.354 155.081 190.143 154.905L190.108 154.87C189.79 154.729 189.684 154.623 189.367 154.482C189.085 154.376 188.908 154.305 188.591 154.2C187.956 153.988 187.533 153.953 186.792 153.847L186.686 153.812C186.334 153.812 185.946 153.847 185.628 153.741H185.487H185.135H185.064H185.029H184.958C184.57 153.741 184.641 153.812 184.323 153.812C184.112 153.812 183.83 153.812 183.618 153.812L183.547 153.882C183.089 153.917 182.842 153.953 182.489 154.059C182.101 154.164 181.855 154.305 181.467 154.376L181.431 154.411C181.079 154.588 180.832 154.729 180.514 154.905L180.409 154.976C180.267 155.081 180.303 155.081 180.162 155.152L180.091 155.222L179.527 155.787L179.492 155.857C179.209 156.245 178.892 156.739 178.786 157.303L178.716 157.374L178.68 157.691L178.645 157.727V158.361V158.432L178.61 158.502V158.573V158.749C178.716 159.032 178.68 159.137 178.68 159.455L178.751 159.525C178.786 159.949 178.927 160.09 178.998 160.478L179.068 160.513L179.174 160.76L179.209 160.795C179.421 161.077 179.456 161.218 179.703 161.465C179.915 161.677 180.056 161.818 180.303 162.065L180.338 162.1C180.514 162.17 180.409 162.135 180.585 162.206C180.726 162.276 180.655 162.241 180.796 162.312L180.867 162.382C181.431 162.629 181.855 162.876 182.56 163.052L182.63 163.087C182.877 163.087 183.054 163.158 183.336 163.193L183.442 163.229C183.865 163.229 183.971 163.264 184.253 163.299C184.535 163.334 184.888 163.299 185.17 163.299C185.875 163.299 186.369 163.229 187.004 163.229L187.11 163.193C187.427 163.158 187.639 163.087 187.921 163.087L187.956 163.052C188.415 162.946 188.697 162.805 189.12 162.7L189.191 162.664L189.896 162.312L189.967 162.241C190.848 161.677 190.848 161.465 191.201 161.218L192.259 162.135L192.33 162.206C192.506 162.312 192.718 162.417 192.894 162.558L192.929 162.594C193.211 162.7 193.388 162.805 193.705 162.946C194.023 163.087 194.234 163.158 194.587 163.264L194.657 163.299C194.975 163.334 195.292 163.405 195.645 163.475L195.68 163.511C196.139 163.511 196.209 163.581 196.562 163.581C196.879 163.581 197.232 163.581 197.549 163.581C198.184 163.581 198.819 163.581 199.489 163.581L199.63 163.546L200.23 163.511L200.3 163.475L201.253 163.37L201.288 163.334C201.641 163.229 202.064 163.087 202.381 163.052L202.452 162.982C203.369 162.664 204.145 162.206 204.674 161.5L204.744 161.43C204.886 161.183 205.027 161.007 205.168 160.76C205.273 160.513 205.379 160.16 205.45 159.949C205.591 159.384 205.626 158.749 205.626 158.079V157.832L205.591 157.762L205.556 157.268L205.52 157.233C205.415 156.81 205.309 156.633 205.238 156.28L205.203 156.245C204.639 155.152 203.968 154.658 202.875 154.129L202.805 154.094C202.558 154.023 202.311 153.953 202.099 153.882C200.688 153.494 199.101 153.424 197.585 153.424C196.703 153.388 196.244 153.459 195.539 153.459ZM182.701 128.488L182.736 128.241L182.772 128.171C182.772 127.748 182.948 127.571 183.195 127.324L183.23 127.254C183.547 127.007 183.724 126.831 184.253 126.795L184.288 126.76C185.417 126.513 195.998 126.654 198.22 126.654C199.031 126.654 199.454 126.689 200.124 126.831L200.159 126.866C200.583 126.936 200.971 127.254 201.182 127.571C201.5 128.03 201.5 128.312 201.323 128.947L201.288 128.982C201.217 129.264 201.323 129.123 201.076 129.335L201.041 129.37C200.971 129.546 201.041 129.476 200.865 129.582L200.83 129.617C199.948 130.393 197.867 130.181 196.456 130.181C194.763 130.181 185.205 130.287 184.218 130.075C183.618 129.934 182.948 129.511 182.807 128.947L182.772 128.876L182.736 128.594L182.701 128.488ZM184.747 123.304C184.429 123.374 184.253 123.339 183.935 123.374C183.618 123.409 183.406 123.48 183.089 123.48L183.054 123.515C182.278 123.727 181.008 124.221 180.409 124.714C180.197 124.891 180.338 124.855 180.021 124.996L179.985 125.032C179.985 125.173 180.021 125.138 179.879 125.138L179.844 125.208C179.738 125.455 179.703 125.42 179.492 125.631L179.456 125.667C179.28 125.984 179.139 126.266 178.962 126.619L178.927 126.654C178.857 126.936 178.821 127.042 178.751 127.36C178.716 127.571 178.716 127.889 178.645 128.135V128.277V128.347V128.488L178.716 129.088L178.786 129.158C178.857 129.793 179.139 130.181 179.35 130.675L179.386 130.71C179.527 130.851 179.456 130.745 179.492 130.886L179.527 130.922C179.703 131.098 179.668 131.028 179.774 131.274L179.809 131.31L180.232 131.733L180.303 131.768L180.62 132.05L180.655 132.086C180.832 132.191 180.902 132.262 181.114 132.368C181.29 132.474 181.396 132.509 181.572 132.615C181.855 132.756 182.278 132.967 182.63 133.038L182.701 133.108C182.948 133.144 182.913 133.144 183.16 133.214L183.23 133.25L183.547 133.285L183.583 133.32C184.182 133.32 184.57 133.461 185.452 133.461H199.454L199.56 133.426L200.195 133.391L200.265 133.355C200.547 133.285 200.688 133.25 200.971 133.25L201.041 133.214C201.429 133.108 201.641 133.003 201.958 132.932L202.029 132.897C202.311 132.756 202.381 132.685 202.664 132.615L202.699 132.579C202.91 132.438 202.981 132.403 203.193 132.333L203.228 132.297C203.334 132.156 203.263 132.227 203.439 132.191L203.475 132.156C203.651 131.98 203.545 132.05 203.722 131.945L203.757 131.909C203.933 131.698 204.039 131.592 204.251 131.416C204.356 131.31 204.392 131.274 204.462 131.169C204.603 130.992 204.533 131.028 204.709 130.851L204.744 130.816L204.921 130.499C205.097 130.146 205.309 129.723 205.379 129.335L205.45 129.264L205.52 128.876V128.806V127.783L205.485 127.748C205.344 127.113 205.344 126.866 205.097 126.337C204.991 126.09 204.886 125.949 204.78 125.737C204.674 125.596 204.498 125.349 204.392 125.208C203.545 124.326 203.087 124.221 202.205 123.762L202.17 123.727C201.711 123.656 201.359 123.515 200.83 123.409C200.688 123.374 200.265 123.304 200.124 123.268C199.771 123.233 199.666 123.339 199.348 123.198H199.278L184.747 123.304ZM204.956 138.681L205.027 138.646V135.472L204.921 135.401H202.134V138.681H204.956ZM186.299 147.11L185.946 147.146V147.11H186.299ZM179.95 125.067C179.95 125.208 179.985 125.173 179.844 125.173L179.95 125.067ZM178.645 158.361H178.61L178.68 158.291L178.645 158.361ZM185.946 147.146L185.875 147.11H185.946V147.146ZM178.645 158.361L178.61 158.432V158.361H178.645ZM199.278 123.268H199.207H199.278ZM180.021 125.032L179.985 125.067L180.021 125.032ZM179.879 125.173L179.844 125.243L179.879 125.173ZM179.492 125.667L179.456 125.702L179.492 125.667ZM178.927 126.654L178.892 126.689L178.927 126.654ZM184.288 126.76L184.253 126.795L184.288 126.76ZM200.195 126.866L200.159 126.831L200.195 126.866ZM183.195 127.289L183.16 127.36L183.195 127.289ZM205.485 127.853L205.45 127.818L205.485 127.853ZM182.736 128.171L182.701 128.241L182.736 128.171ZM178.61 128.347V128.206V128.347ZM178.61 128.559V128.418V128.559ZM182.736 128.559L182.701 128.453L182.736 128.559ZM182.807 128.947L182.772 128.876L182.807 128.947ZM205.485 128.876V128.947V128.876ZM201.323 128.947L201.288 128.982L201.323 128.947ZM178.751 129.264L178.68 129.194L178.751 129.264ZM205.415 129.335L205.344 129.405L205.415 129.335ZM200.865 129.546L200.83 129.582L200.865 129.546ZM179.492 131.028L179.456 130.992L179.492 131.028ZM179.774 131.38L179.738 131.345L179.774 131.38ZM180.267 131.874L180.197 131.839L180.267 131.874ZM203.722 131.98L203.686 132.015L203.722 131.98ZM180.62 132.156L180.585 132.121L180.62 132.156ZM203.193 132.368L203.157 132.403L203.193 132.368ZM202.664 132.65L202.628 132.685L202.664 132.65ZM201.958 132.967L201.888 133.003L201.958 132.967ZM182.666 133.144L182.595 133.073L182.666 133.144ZM183.195 133.32L183.124 133.285L183.195 133.32ZM200.971 133.285L200.9 133.32L200.971 133.285ZM200.195 133.426L200.124 133.461L200.195 133.426ZM199.525 133.496L199.419 133.532L199.525 133.496ZM205.027 135.436L204.921 135.366L205.027 135.436ZM205.027 138.61L204.956 138.646L205.027 138.61ZM196.774 140.515L196.738 140.586L196.774 140.515ZM198.537 140.586L198.466 140.515L198.537 140.586ZM194.693 140.727L194.622 140.797L194.693 140.727ZM200.971 140.797L200.865 140.727L200.971 140.797ZM201.359 140.868L201.288 140.832L201.359 140.868ZM183.83 140.903L183.724 140.938L183.83 140.903ZM186.581 140.938L186.475 140.903L186.581 140.938ZM182.807 141.044L182.736 141.079L182.807 141.044ZM182.207 141.22L182.101 141.291L182.207 141.22ZM188.626 141.326L188.556 141.291L188.626 141.326ZM192.823 141.362L192.753 141.432L192.823 141.362ZM203.051 141.397L203.016 141.362L203.051 141.397ZM192.682 141.432L192.612 141.467L192.682 141.432ZM203.334 141.538L203.298 141.503L203.334 141.538ZM203.722 141.785L203.651 141.714L203.722 141.785ZM180.409 142.032L180.373 142.067L180.409 142.032ZM180.021 142.349L179.95 142.384L180.021 142.349ZM179.95 142.384L179.915 142.455L179.95 142.384ZM190.954 142.702L190.919 142.666L190.954 142.702ZM191.025 142.808L190.954 142.702L191.025 142.808ZM179.28 143.266L179.209 143.337L179.28 143.266ZM198.22 144.042H198.149H198.22ZM199.383 144.113L199.278 144.077L199.383 144.113ZM186.263 144.183H186.087H186.263ZM194.904 144.148L194.834 144.183L194.904 144.148ZM183.724 144.359L183.689 144.395L183.724 144.359ZM178.61 145.523L178.645 145.418L178.61 145.523ZM182.595 145.664V145.523V145.664ZM178.645 145.876L178.61 145.77L178.645 145.876ZM183.195 146.687L183.16 146.652L183.195 146.687ZM193.846 146.758L193.776 146.722L193.846 146.758ZM188.485 146.793L188.379 146.864L188.485 146.793ZM200.794 146.793L200.759 146.828L200.794 146.793ZM188.238 146.864L188.168 146.934L188.238 146.864ZM184.112 146.969L184.041 146.934L184.112 146.969ZM187.956 146.934L187.886 147.005L187.956 146.934ZM187.498 147.04L187.427 147.11L187.498 147.04ZM200.159 147.04L200.124 147.075L200.159 147.04ZM194.904 147.146L194.798 147.11L194.904 147.146ZM196.421 147.252H196.35H196.421ZM196.632 147.252H196.527H196.632ZM198.149 147.252H198.043H198.149ZM198.396 147.252H198.29H198.396ZM205.168 147.675L205.097 147.745L205.168 147.675ZM179.28 148.027L179.245 147.992L179.28 148.027ZM204.886 148.239L204.85 148.31L204.886 148.239ZM179.668 148.556L179.597 148.451L179.668 148.556ZM204.709 148.521L204.674 148.556L204.709 148.521ZM191.977 149.156L191.906 149.086L191.977 149.156ZM180.409 149.262L180.338 149.191L180.409 149.262ZM189.473 149.579L189.402 149.615L189.473 149.579ZM182.172 150.073L182.101 150.038L182.172 150.073ZM193.74 150.179L193.67 150.144L193.74 150.179ZM194.41 150.39L194.375 150.355L194.41 150.39ZM194.728 150.461L194.693 150.39L194.728 150.461ZM195.081 150.532L194.975 150.496L195.081 150.532ZM200.442 150.567L200.336 150.602L200.442 150.567ZM196.068 150.708L195.998 150.673L196.068 150.708ZM199.736 150.673L199.63 150.708L199.736 150.673ZM196.879 150.778L196.844 150.708L196.879 150.778ZM198.537 150.743L198.466 150.778L198.537 150.743ZM195.539 153.459L195.433 153.494L195.539 153.459ZM194.975 153.529L194.94 153.6L194.975 153.529ZM185.064 153.706H184.994H185.064ZM185.17 153.706H185.099H185.17ZM185.664 153.706H185.523H185.664ZM183.653 153.776L183.583 153.847L183.653 153.776ZM186.792 153.812L186.686 153.776L186.792 153.812ZM202.734 154.094L202.664 154.059L202.734 154.094ZM192.047 154.693L192.012 154.729L192.047 154.693ZM180.55 154.834L180.444 154.905L180.55 154.834ZM190.178 154.87L190.143 154.834L190.178 154.87ZM180.197 155.081L180.126 155.152L180.197 155.081ZM179.562 155.681L179.527 155.751L179.562 155.681ZM191.095 155.681H191.06H191.095ZM196.068 156.845L195.998 156.915L196.068 156.845ZM198.643 156.915L198.608 156.845L198.643 156.915ZM199.56 156.986L199.454 156.915L199.56 156.986ZM185.276 157.021L185.17 157.056L185.276 157.021ZM186.933 157.056L186.898 157.021L186.933 157.056ZM184.429 157.092L184.394 157.127L184.429 157.092ZM187.674 157.127L187.639 157.092L187.674 157.127ZM200.477 157.197L200.442 157.162L200.477 157.197ZM178.821 157.197L178.751 157.268L178.821 157.197ZM183.653 157.233L183.583 157.268L183.653 157.233ZM205.415 157.268L205.379 157.233L205.415 157.268ZM183.442 157.339L183.371 157.374L183.442 157.339ZM183.124 157.48L183.054 157.515L183.124 157.48ZM178.716 157.585L178.68 157.621L178.716 157.585ZM201.253 157.656L201.147 157.585L201.253 157.656ZM182.736 157.832L182.666 157.903L182.736 157.832ZM205.485 157.832L205.45 157.762L205.485 157.832ZM182.595 158.644V158.432V158.644ZM178.61 158.679V158.502V158.679ZM182.666 158.961L182.63 158.89L182.666 158.961ZM178.751 159.419L178.68 159.349L178.751 159.419ZM188.168 159.737L188.097 159.772L188.168 159.737ZM187.321 159.878L187.251 159.913L187.321 159.878ZM199.207 160.054L199.137 160.09L199.207 160.054ZM179.033 160.442L178.962 160.407L179.033 160.442ZM179.174 160.724L179.139 160.689L179.174 160.724ZM204.639 161.43L204.568 161.5L204.639 161.43ZM192.224 162.206L192.153 162.135L192.224 162.206ZM189.861 162.206L189.79 162.276L189.861 162.206ZM180.796 162.347L180.726 162.276L180.796 162.347ZM189.085 162.629L189.014 162.664L189.085 162.629ZM182.595 163.052L182.525 163.017L182.595 163.052ZM202.346 162.982L202.276 163.052L202.346 162.982ZM183.371 163.193L183.265 163.158L183.371 163.193ZM187.039 163.123L186.933 163.158L187.039 163.123ZM194.552 163.264L194.481 163.229L194.552 163.264ZM201.217 163.299L201.182 163.334L201.217 163.299ZM195.574 163.511L195.539 163.475L195.574 163.511ZM200.195 163.475L200.124 163.511L200.195 163.475ZM199.525 163.546L199.383 163.581L199.525 163.546Z" fill="#E3090F"/>
<rect x="0.420253" y="0.420253" width="219.16" height="219.16" rx="58.4152" stroke="#DDD9E9" stroke-width="0.840506"/>
</svg>
