<svg width="220" height="220" viewBox="0 0 220 220" fill="none" xmlns="http://www.w3.org/2000/svg">
<rect width="220" height="220" rx="58.8354" fill="#C63032"/>
<path fill-rule="evenodd" clip-rule="evenodd" d="M7.12248 38.72C76.0025 38.72 144.883 38.72 213.763 38.72C213.763 38.72 213.763 38.72 213.763 38.8026C213.763 86.2918 213.763 134.029 213.763 181.353C213.763 181.518 213.928 181.683 213.515 181.683C213.432 181.683 213.35 181.683 213.185 181.683C211.12 181.766 208.89 181.683 206.742 181.683C140.505 181.683 73.0293 181.683 7.03989 181.683C7.03989 134.029 7.03989 86.457 7.12248 38.72C7.03989 38.72 7.03989 38.72 7.12248 38.72Z" fill="#C63032"/>
<path fill-rule="evenodd" clip-rule="evenodd" d="M89.6294 53.4209C90.7031 53.2557 91.8593 53.0905 92.6852 52.6776C93.1808 52.4298 93.6763 51.8517 93.7589 51.1909C93.8415 49.9521 92.6852 49.6217 91.4464 49.7043C90.125 49.7043 88.2254 50.1999 87.3169 50.8606C86.491 51.4387 85.9129 53.0079 86.7388 54.1642C87.4821 53.999 88.4732 53.6686 89.6294 53.4209ZM87.8124 57.22C87.2343 58.7066 87.1517 60.5236 86.7388 62.258C86.1606 64.7357 85.4173 67.1308 85.1696 69.8563C85.0044 71.4255 85.0044 73.4902 85.6651 74.5639C85.8303 74.8117 85.9129 74.8943 86.078 74.8117C86.2432 74.8117 86.3258 74.6465 86.4084 74.3987C86.5736 73.8206 86.5736 72.9947 86.5736 72.334C86.5736 71.2603 86.6562 70.3518 86.7388 69.6085C87.0691 67.8741 87.4821 66.5527 87.895 64.9835C88.3906 62.5884 88.5557 59.8629 89.6294 58.0459C89.8772 57.7155 90.7031 56.8896 90.3727 56.0637C90.2076 55.7334 89.6294 55.4856 89.2991 55.4856C88.5557 55.6508 88.0602 56.6419 87.8124 57.22ZM75.7543 68.9478C76.2498 68.7826 77.0757 68.5348 77.1583 67.9567C77.1583 67.5438 76.828 67.1308 76.5802 67.0482C75.9195 66.6353 74.1851 66.7179 73.2766 66.7179C69.8078 66.883 66.4216 67.3786 63.2832 67.8741C60.1448 68.3697 56.9238 68.7826 53.455 69.1956C50.1514 69.6085 46.8478 69.9389 43.7094 70.5996C42.1402 70.9299 40.7361 71.3429 39.0843 71.5907C38.2584 71.7558 37.5151 71.8384 36.6892 72.0036C35.9459 72.1688 35.0374 72.4166 34.7071 72.8295C34.3767 73.1599 34.0464 74.3987 34.4593 75.0594C34.7897 75.555 35.7807 75.555 36.5241 75.3898C37.8455 75.2246 38.9192 74.8117 40.0754 74.3987C40.6536 74.2335 41.2317 73.9032 41.8924 74.0684C41.8924 76.1331 41.0665 79.2715 42.5531 80.3452C43.6268 78.9412 43.379 76.2157 43.4616 73.8206C47.013 72.6643 51.3902 72.4166 55.4372 71.8384C59.4841 71.2603 63.531 70.517 67.7431 70.104C68.3212 72.334 68.156 75.2246 69.1471 77.0416C69.3123 76.959 69.4775 77.0416 69.6426 77.0416C70.4685 75.0594 69.5601 72.4166 69.7252 70.0215C71.6248 69.6085 73.9373 69.5259 75.7543 68.9478ZM80.5445 111.812C82.3615 108.508 83.6829 104.957 85.4999 101.653C86.4084 100.084 87.3995 98.4324 88.2254 96.7806C89.1339 95.1288 89.8772 93.3944 90.7857 91.7426C91.6942 90.0908 92.5201 88.439 93.2634 86.7046C94.0067 84.9702 94.75 83.1533 95.6585 81.5015C96.0714 80.6756 96.567 80.0148 97.0625 79.1064C97.3929 78.363 98.0536 77.2068 97.8884 76.1331C97.8058 75.4724 97.3929 75.142 96.6496 75.2246C95.2455 75.2246 93.6763 75.3898 92.1897 75.4724C87.8124 75.7202 83.3526 75.9679 79.0579 76.2157C73.3592 76.6287 67.7431 77.2894 62.3747 78.1979C54.2809 79.5193 46.4349 80.8407 38.1759 81.9144C35.4504 82.2448 32.7249 82.4925 29.9994 83.0707C29.9994 84.3095 30.1646 85.3006 30.495 86.1265C30.5776 86.3743 30.7428 86.8698 30.9079 86.9524C31.0731 87.035 31.6512 86.9524 31.9816 86.9524C34.4593 86.7872 36.5241 86.2091 38.6714 85.7961C42.5531 84.9702 46.3523 84.5573 50.0688 83.7314C51.3077 83.401 52.6291 83.3184 54.0331 83.1533C56.676 82.8229 59.3189 82.3274 61.7966 81.9144C62.127 81.8318 62.4573 81.8318 62.7051 81.7492C62.9529 81.6666 63.2006 81.5015 63.4484 81.3363C64.0265 81.1711 64.6872 81.0885 65.348 81.0059C66.6694 80.8407 68.0734 80.6756 69.4775 80.6756C72.3681 80.593 75.1762 80.3452 77.7365 79.9323C78.9753 79.6845 80.2968 79.5193 81.6182 79.2715C85.6651 78.776 90.125 78.776 94.5848 78.8586C94.0067 80.5104 93.1808 82.0796 92.4375 83.6488C91.6942 85.218 91.0334 86.8698 90.2901 88.439C88.8035 91.5774 87.1517 94.6333 85.6651 97.7717C84.1785 100.828 82.5267 103.966 81.0401 107.104C80.2967 108.591 79.636 110.243 78.8927 111.977C78.3972 113.133 77.9016 114.455 77.4061 115.776C77.2409 116.107 76.9931 116.85 76.828 116.933C76.5802 117.015 75.9195 117.015 75.4239 117.015C72.9462 116.933 70.8815 116.685 68.4864 116.602C67.4953 116.602 66.5042 116.685 65.6783 116.685C63.8613 116.767 61.9618 116.85 59.9796 116.85C57.9974 116.85 56.0153 116.767 54.1157 116.85C50.3166 117.015 46.6826 117.18 43.1313 117.511C41.3143 117.676 39.5799 117.841 37.8455 118.089C36.1111 118.337 34.3767 118.667 32.4771 118.584C32.4771 118.584 32.4771 118.584 32.3946 118.584C31.2383 114.207 30.495 109.582 29.9169 104.461C29.7517 103.223 29.5865 101.984 29.5039 100.745C29.2561 98.1846 29.3387 95.5418 28.8432 93.0641C28.5954 91.9078 28.8432 90.256 28.4302 89.3475C28.3476 89.1823 28.1825 88.9346 28.0173 88.852C27.0262 88.439 26.9436 89.6779 26.861 90.5864C26.7784 91.2471 26.861 92.1556 26.9436 92.7337C27.1914 94.1377 27.4392 95.4592 27.6043 96.7806C28.0173 99.5887 28.2651 102.479 28.5954 105.205C28.9258 108.013 29.3387 110.656 29.8343 113.299C30.1646 115.281 30.5776 117.263 31.1557 118.997C31.3209 119.575 31.6512 120.319 31.9816 120.484C32.2294 120.649 32.8075 120.649 33.303 120.649C34.7897 120.814 36.1111 120.401 37.1848 120.154C38.754 119.823 40.6536 119.575 42.3879 119.41C46.1045 119.08 49.821 118.832 53.455 118.667C59.2363 118.419 65.1002 118.502 70.7989 118.254C72.6985 118.171 74.598 118.006 76.3324 118.419C76.4976 118.584 76.415 118.75 76.415 118.832C76.3324 118.997 76.2498 119.08 76.3324 119.245C76.9106 119.328 76.7454 118.667 76.9931 118.502C76.9931 118.502 77.1583 118.502 77.2409 118.419C77.4887 118.337 77.819 118.171 78.0668 118.171C79.3883 118.006 80.7923 118.254 82.0311 118.089C81.7834 117.511 81.0401 117.263 80.3793 117.098C79.7186 117.015 78.8927 116.85 78.0668 116.933C78.6449 115.033 79.636 113.464 80.5445 111.812ZM78.4798 88.2738C78.232 89.5127 78.3146 90.8341 79.0579 91.4949C79.636 91.9904 80.4619 92.1556 81.3704 92.073C82.9396 91.9904 84.3437 91.2471 85.4173 90.3386C86.3258 89.5127 87.4821 88.1913 87.4821 86.5395C87.4821 85.3832 86.7388 84.6399 85.9129 84.1443C85.4999 83.8966 85.0044 83.7314 84.5088 83.5662C84.0133 83.3184 83.5178 82.9881 82.9396 83.0707C81.7008 83.3184 80.3793 83.7314 79.2231 84.1443C79.2231 84.4747 78.8927 84.7225 78.9753 84.9702C79.0579 85.218 79.4709 85.218 79.636 85.3832C79.1405 86.2917 78.7275 87.1176 78.4798 88.2738ZM82.7744 84.8877C83.6003 84.8051 84.5088 84.9702 85.1696 85.3006C85.7477 85.5484 86.3258 85.9613 86.2432 86.9524C86.1606 87.5305 85.8303 88.0261 85.4999 88.439C84.8392 89.1823 84.0133 90.0082 82.9396 90.4212C81.7834 90.8341 79.8012 91.0819 79.636 89.5953C79.5534 89.0172 79.8012 88.439 79.9664 88.0261C80.3793 87.1176 80.7923 86.3743 81.453 85.7136C81.866 85.3006 82.1963 84.9702 82.7744 84.8877ZM75.9195 88.7694C76.1673 87.4479 76.3324 86.0439 76.7454 85.0528C76.828 84.8051 77.2409 84.5573 77.2409 84.3095L77.1583 84.1443C77.0757 83.5662 76.2498 83.0707 75.5891 83.0707C74.8458 83.1533 73.9373 83.401 73.0288 83.6488C72.2029 83.814 71.1293 84.0618 70.3034 83.814C69.8904 83.7314 69.7252 83.3184 69.2297 83.2359C68.9819 83.4836 68.8993 83.8966 68.569 84.0618C68.2386 84.2269 67.7431 84.3095 67.2475 84.3095C65.7609 84.4747 64.1091 84.3921 62.7051 84.5573C60.7229 84.7225 58.8233 85.0528 57.0064 85.218C53.2898 85.7136 49.1603 86.2091 45.2786 85.7961C43.792 87.7783 44.5353 91.9078 45.1134 94.3029C45.196 94.7159 45.3612 95.1288 45.4438 95.4592C45.5264 96.0373 45.3612 96.5328 45.7741 96.7806C46.1871 97.0284 47.013 96.698 47.5085 96.6154C49.4081 96.3677 51.3903 96.2851 53.2072 96.1199C57.089 95.7069 60.5577 95.2114 64.1917 94.7159C67.8257 94.1377 72.1203 94.4681 75.3413 93.477C74.7632 91.7426 75.5891 90.3386 75.9195 88.7694ZM74.9284 85.218C74.9284 86.5395 74.5154 87.6957 74.2677 88.9346C74.0199 90.0908 73.7721 91.3297 73.6895 92.7337C65.0176 93.89 55.5198 94.0551 46.5174 94.881C45.9393 93.1467 46.1045 90.5864 46.1045 88.3564C49.6559 87.6131 53.5376 87.4479 57.2541 86.9524C60.8881 86.4569 64.6046 85.8787 68.569 85.7136C68.3212 87.2002 67.9908 88.9346 67.9082 90.7515C67.9082 91.2471 67.8257 92.1556 68.0734 92.4859C68.2386 92.6511 68.4864 92.5685 68.7341 92.6511C69.7252 90.669 69.8904 87.7783 70.4685 85.3832C71.5422 85.218 72.8636 85.0528 74.0199 84.9702C74.3503 84.9702 74.7632 84.8877 74.9284 85.218ZM32.6423 88.6042C31.9816 89.0172 31.2383 89.5127 30.8253 90.0908C29.9994 91.1645 29.3387 93.5596 30.1646 95.2114C31.3209 97.4413 35.7807 96.9458 38.341 96.2851C39.3321 96.0373 40.4058 95.5418 41.1491 94.9636C41.8924 94.3855 42.6357 93.477 42.7183 92.3208C42.8009 91.3297 42.4705 90.5864 42.1402 90.0082C41.8098 89.3475 41.3969 88.852 40.8187 88.439C39.7451 87.7783 38.0933 88.1087 36.8544 88.3564C36.5241 88.439 36.0285 88.5216 35.7807 88.439C35.3678 88.2738 35.533 87.6957 34.7897 87.6957C33.716 87.6131 33.303 88.1087 32.6423 88.6042ZM37.5151 89.5953C38.4236 89.5127 39.2495 89.6779 39.8277 89.9256C40.571 90.256 41.3969 90.7515 41.4795 91.66C41.562 92.4033 41.1491 93.1467 40.8187 93.477C39.4973 94.881 36.1937 95.294 33.5508 94.7985C32.5597 94.6333 31.6512 94.3029 31.5687 93.3118C31.4861 92.8163 31.6512 92.4859 31.8164 91.9904C31.899 91.66 32.1468 91.1645 32.3946 90.9993C32.6423 90.7515 33.1379 90.5864 33.5508 90.5038C33.9638 90.3386 34.3767 90.256 34.7897 90.0908C35.6156 89.9256 36.4415 89.6779 37.5151 89.5953ZM34.7897 107.022C35.4504 107.022 36.1111 106.774 36.7718 106.691C38.0107 106.444 39.3321 106.113 40.571 105.866C41.2317 105.7 41.8924 105.7 42.4705 105.453C42.7183 105.37 42.8009 105.205 42.9661 105.122C43.379 105.535 43.8746 105.122 44.3701 104.874C44.7005 104.709 44.9482 104.627 45.3612 104.544C46.1871 104.379 46.9304 104.461 47.9215 104.379C48.0041 104.296 48.0041 104.131 48.1692 104.131C48.3344 104.049 48.7474 104.049 49.0777 103.966C49.9862 103.883 51.1425 104.049 51.9684 103.883C52.5465 103.801 53.0421 103.636 53.6202 103.47C55.272 103.057 57.5845 103.223 59.4015 103.057C60.5577 102.975 61.9618 102.81 63.118 102.645C65.4305 102.314 68.0734 102.066 70.5511 101.819C71.79 101.736 73.0288 101.571 74.1025 101.24C74.598 101.075 75.0936 100.828 75.5891 100.662C76.415 100.332 77.819 100.497 77.819 99.5061C77.819 98.6802 76.6628 98.3498 75.7543 98.4324C75.7543 98.4324 75.7543 98.4324 75.6717 98.4324C73.9373 98.515 72.1203 98.8454 70.3859 99.0931C69.4775 99.1757 68.569 99.1757 67.5779 99.0931C66.6694 99.0105 65.6783 99.1757 64.7698 99.2583C61.1359 99.5061 57.4193 99.919 53.9505 100.249C46.6826 101.158 40.4058 102.727 33.4682 103.636C33.0553 105.205 33.2205 107.022 34.7897 107.022ZM64.6872 103.801C58.8234 104.544 53.3724 105.453 47.5085 106.361C45.6915 106.609 42.8835 106.774 40.8187 107.104C39.9928 107.27 39.2495 107.352 39.0018 107.765C38.5888 108.426 38.754 110.408 39.2495 110.821C39.7451 111.151 41.0665 110.904 41.7272 110.821C44.0397 110.408 46.0219 109.665 48.3344 109.252C53.0421 108.426 57.6671 107.682 62.2921 106.774C63.7788 106.526 65.2654 106.031 66.8346 105.866C69.1471 105.535 72.0377 105.618 74.0199 104.874C74.598 104.627 75.5065 104.214 75.4239 103.47C75.3414 102.645 74.1025 102.645 73.2766 102.645C70.1382 102.727 67.5779 103.47 64.6872 103.801ZM71.2118 107.435C68.8993 107.682 66.5868 108.095 64.2743 108.343C61.3011 108.756 57.9974 109.004 54.7764 109.334C51.7206 109.665 48.4996 110.16 45.609 110.656C43.5442 110.986 40.9013 111.234 38.8366 111.729C38.0933 111.895 37.35 112.142 36.937 112.473C36.3589 112.968 36.3589 114.29 36.8544 114.785C37.2674 115.198 37.8455 115.033 38.5062 114.868C38.9192 114.785 39.4147 114.785 39.7451 114.703C40.571 114.537 41.3143 114.29 41.975 114.042C43.5442 113.629 45.196 113.381 46.7652 113.133C51.638 112.308 56.7586 111.564 61.714 110.904C63.4484 110.656 65.1002 110.573 66.8346 110.243C68.4864 109.995 70.0556 109.582 71.6248 109.334C73.194 109.087 74.7632 108.839 76.0021 108.013C75.3414 106.857 72.8636 107.27 71.2118 107.435ZM77.0757 119.163C77.3235 119.163 77.3235 118.667 77.0757 118.75C76.828 118.832 76.828 119.163 77.0757 119.163Z" fill="white"/>
<path fill-rule="evenodd" clip-rule="evenodd" d="M106.065 74.8118C106.891 74.7292 109.699 74.564 110.195 75.0595C110.525 75.3899 110.443 76.6287 110.443 77.372C110.443 78.9413 110.443 80.3453 110.443 81.9971C110.443 82.6578 110.36 83.8967 110.69 84.227C111.021 84.4748 112.59 84.3096 113.168 84.3096C113.664 84.3096 114.077 84.3096 114.489 84.3096C114.902 84.3096 115.481 84.3096 115.646 84.1444C115.976 83.8967 115.811 82.7404 115.811 81.9971C115.811 80.2627 115.811 79.1064 115.811 77.2895C115.811 76.381 115.728 75.3073 116.141 74.9769C116.637 74.564 117.71 74.7292 118.702 74.7292C119.858 74.7292 121.097 74.564 121.427 75.2247C121.592 75.5551 121.592 76.1332 121.592 76.7939C121.592 84.0618 121.592 90.9168 121.592 98.1847C121.592 99.341 121.84 101.241 121.179 101.653C120.766 101.984 119.693 101.819 118.867 101.819C117.793 101.819 116.389 102.066 115.976 101.406C115.646 100.91 115.811 99.5062 115.811 98.5977C115.811 95.9548 115.811 93.8075 115.811 91.1646C115.811 90.7516 115.811 90.0083 115.646 89.8431C115.315 89.5128 113.746 89.678 113.168 89.678C112.672 89.678 112.26 89.678 111.847 89.678C111.434 89.678 110.856 89.5954 110.608 89.8431C110.195 90.1735 110.443 91.9905 110.443 92.7338C110.443 94.8811 110.443 96.7807 110.443 98.928C110.443 99.9191 110.608 101.241 110.03 101.653C109.534 101.984 108.46 101.819 107.635 101.819C106.643 101.819 105.157 101.984 104.826 101.406C104.496 100.828 104.661 99.2584 104.661 98.2673C104.661 91.6601 104.661 84.9703 104.661 78.3631C104.661 77.4546 104.496 75.5551 104.909 75.0595C105.239 74.8118 105.652 74.8118 106.065 74.8118Z" fill="white"/>
<path fill-rule="evenodd" clip-rule="evenodd" d="M142.984 99.8366C142.571 98.1022 142.158 96.4504 141.745 94.7986C141.085 92.4035 140.672 90.5865 140.011 88.1088C139.185 84.7226 138.359 81.419 137.451 78.0328C137.285 77.2069 136.955 75.3073 136.294 74.977C135.799 74.7292 134.312 74.8118 133.486 74.8118C132.33 74.8118 131.256 74.8118 130.596 74.8118C129.522 74.8944 129.522 75.4725 129.274 76.4636C127.457 84.3096 125.475 92.2383 123.658 100.002C123.575 100.497 123.245 101.323 123.575 101.736C123.741 101.984 124.319 101.901 124.732 101.901H126.053C126.879 101.901 127.953 102.066 128.531 101.819C129.109 101.571 129.192 100.415 129.357 99.6714C129.439 99.341 129.522 98.9281 129.604 98.5151C129.687 98.1848 129.77 97.6892 130.017 97.524C130.348 97.2763 131.091 97.3589 131.587 97.3589H134.725C135.221 97.3589 135.881 97.2763 136.212 97.4415C136.542 97.6066 136.625 98.1022 136.707 98.4325C136.79 98.8455 136.955 99.2584 137.038 99.6714C137.203 100.415 137.368 101.488 137.863 101.819C138.194 101.984 138.689 101.984 139.268 101.984H140.672C141.332 101.984 142.819 102.149 143.149 101.736C143.48 101.241 143.149 100.415 142.984 99.8366ZM131.421 91.9905C131.339 91.3298 131.587 90.6691 131.752 90.0084C132 88.6869 132.247 87.5307 132.578 86.1266C132.743 85.5485 132.826 84.7226 133.073 84.2271L133.156 84.1445H133.238C133.651 84.64 133.651 85.3833 133.817 86.044C134.147 87.3655 134.477 88.6043 134.808 89.9258C134.973 90.5865 135.221 91.2472 135.138 91.9079C133.982 92.0731 132.495 92.0731 131.421 91.9905Z" fill="white"/>
<path fill-rule="evenodd" clip-rule="evenodd" d="M145.131 76.8766C145.131 84.2271 145.131 91.2472 145.131 98.5977C145.131 99.6714 144.966 101.241 145.461 101.571C145.957 101.984 147.856 101.819 148.93 101.819C155.785 101.819 162.392 101.819 169.165 101.819C170.073 101.819 171.89 101.984 172.303 101.654C172.881 101.241 172.716 99.5062 172.716 98.4326C172.716 91.7428 172.716 85.1356 172.716 78.4458C172.716 77.5373 172.881 75.8029 172.551 75.3074C172.138 74.6466 170.899 74.8118 169.743 74.8118C168.834 74.8118 167.678 74.7292 167.182 75.1422C166.769 75.5551 166.935 76.8766 166.935 77.8677C166.935 83.8967 166.935 89.5128 166.935 95.3767C166.935 95.8723 167.017 96.4504 166.852 96.6982C166.687 96.9459 166.026 96.8634 165.613 96.8634C165.2 96.8634 164.705 96.8634 164.292 96.8634C163.714 96.8634 162.144 97.0285 161.897 96.6982C161.649 96.4504 161.731 96.0375 161.731 95.3767C161.731 89.3477 161.731 83.5664 161.731 77.6199C161.731 76.7114 161.897 75.5551 161.484 75.1422C160.988 74.6466 159.832 74.8118 158.923 74.8118C158.015 74.8118 156.776 74.7292 156.281 75.0596C155.785 75.4725 155.95 76.9592 155.95 77.9502C155.95 83.4012 155.95 88.7695 155.95 94.1379C155.95 94.8812 156.033 96.4504 155.785 96.6982C155.62 96.8634 154.959 96.8634 154.546 96.8634C154.051 96.8634 153.72 96.8634 153.307 96.8634C152.647 96.8634 151.243 97.0285 150.912 96.6982C150.582 96.3678 150.747 94.9638 150.747 94.1379C150.747 88.6869 150.747 83.1534 150.747 77.8677C150.747 77.0418 150.83 75.7203 150.582 75.3074C150.251 74.7292 149.426 74.8118 148.517 74.8118C147.691 74.8118 146.783 74.8118 146.205 74.8118C144.966 74.8944 145.131 75.4725 145.131 76.8766Z" fill="white"/>
<path fill-rule="evenodd" clip-rule="evenodd" d="M175.937 75.1422C175.524 75.6378 175.689 77.3721 175.689 78.3632C175.689 85.1356 175.689 91.8254 175.689 98.5978C175.689 99.6714 175.524 101.241 176.019 101.654C176.349 101.984 177.093 101.901 177.836 101.901C181.14 101.901 184.361 101.901 187.664 101.901C188.821 101.901 190.803 102.067 191.298 101.654C191.711 101.323 191.629 100.25 191.629 99.3411C191.629 98.4326 191.711 97.6067 191.463 97.1937C191.133 96.7808 189.977 96.8634 189.151 96.8634C187.004 96.8634 184.939 96.8634 182.709 96.8634C182.379 96.8634 181.635 96.946 181.553 96.7808C181.387 96.6156 181.47 95.6245 181.47 95.2116C181.47 94.1379 181.47 92.9817 181.47 91.908C181.47 91.4124 181.387 90.5865 181.635 90.3388C181.883 90.091 182.874 90.2562 183.37 90.2562C184.774 90.2562 185.682 90.2562 187.086 90.2562C187.582 90.2562 188.49 90.3388 188.738 90.091C189.068 89.7606 188.903 88.5218 188.903 87.8611C188.903 87.1178 189.068 85.9615 188.738 85.5486C188.49 85.1356 187.747 85.2182 187.086 85.2182C185.682 85.2182 184.774 85.2182 183.37 85.2182C182.874 85.2182 181.8 85.3834 181.553 85.1356C181.387 84.9704 181.47 84.3923 181.47 83.8968C181.47 83.4012 181.47 82.9883 181.47 82.5753C181.47 81.9146 181.305 80.3454 181.635 80.015C181.8 79.8498 182.296 79.8498 182.709 79.8498C184.774 79.8498 186.838 79.8498 188.821 79.8498C189.729 79.8498 190.555 79.9324 190.968 79.5195C191.298 79.1891 191.216 78.0329 191.216 77.3721C191.216 76.7114 191.298 75.6378 191.05 75.2248C190.803 74.8119 190.059 74.8119 189.234 74.8119C187.334 74.8119 185.847 74.8119 184.03 74.8119C181.8 74.8119 179.075 74.7293 177.01 74.8119C176.597 74.8119 176.184 74.8944 175.937 75.1422Z" fill="white"/>
<path fill-rule="evenodd" clip-rule="evenodd" d="M172.467 107.683C171.228 106.857 169.494 106.361 167.429 106.526C166.686 106.609 166.025 106.691 165.365 106.857C163.548 107.352 162.309 108.508 161.648 110.078C161.152 111.317 161.07 112.886 161.4 114.125C161.978 116.602 163.795 118.089 166.356 118.502C167.677 118.667 169.246 118.75 170.568 118.337C172.798 117.759 174.615 116.024 174.78 113.299C174.945 110.491 173.954 108.756 172.467 107.683ZM170.072 115.198C169.081 116.354 166.603 116.189 165.778 114.868C165.117 113.794 165.199 111.482 165.695 110.491C166.025 109.912 166.686 109.417 167.677 109.334C168.833 109.252 169.824 109.665 170.237 110.325C170.981 111.482 170.816 114.207 170.072 115.198Z" fill="white"/>
<path fill-rule="evenodd" clip-rule="evenodd" d="M114.737 108.591C114.406 107.93 113.828 107.435 113.25 107.104C112.094 106.609 110.525 106.691 108.873 106.691C107.221 106.691 105.569 106.691 104.083 106.691V106.774C104.083 110.656 104.083 114.537 104.083 118.419C105.404 118.419 106.808 118.419 108.13 118.419C108.13 116.933 108.13 115.529 108.13 114.042C111.351 114.207 114.159 113.959 114.902 111.647C115.15 110.821 115.15 109.499 114.737 108.591ZM111.02 110.986C110.607 111.812 109.286 111.729 108.047 111.729C108.047 110.904 108.047 110.078 108.047 109.169V109.087C108.955 109.087 109.947 109.004 110.525 109.334C111.103 109.665 111.351 110.325 111.02 110.986Z" fill="white"/>
<path fill-rule="evenodd" clip-rule="evenodd" d="M123.904 106.691C122.418 106.691 121.014 106.691 119.527 106.691C117.875 110.573 116.223 114.537 114.654 118.419C115.976 118.419 117.38 118.419 118.701 118.419C118.949 117.841 119.114 117.015 119.362 116.437C120.849 116.437 122.335 116.437 123.822 116.437C124.07 117.098 124.235 117.758 124.482 118.419C125.887 118.419 127.291 118.419 128.695 118.419C127.208 114.537 125.556 110.656 123.904 106.691ZM120.27 113.959C120.683 112.555 121.179 111.151 121.674 109.747C122.17 111.151 122.666 112.555 123.078 113.959C122.17 113.959 121.179 113.959 120.27 113.959Z" fill="white"/>
<path fill-rule="evenodd" clip-rule="evenodd" d="M143.726 115.776C143.726 112.803 143.726 109.747 143.726 106.774C140.092 106.774 136.458 106.774 132.824 106.774V106.857C132.907 110.326 132.742 113.547 131.668 115.776C131.255 115.776 130.842 115.776 130.429 115.776C130.347 117.511 130.429 119.328 130.429 121.062C131.503 121.062 132.577 121.062 133.65 121.062C133.65 120.236 133.65 119.328 133.65 118.502C136.376 118.502 139.184 118.502 141.909 118.502C141.909 119.328 141.909 120.154 141.909 121.062C142.983 121.062 144.057 121.062 145.13 121.062C145.13 119.328 145.13 117.511 145.13 115.776C144.635 115.776 144.139 115.776 143.726 115.776ZM139.597 115.776C138.193 115.776 136.871 115.776 135.55 115.776C135.963 113.877 136.458 111.977 136.458 109.747C136.458 109.665 136.458 109.665 136.458 109.665C137.532 109.665 138.606 109.665 139.679 109.665C139.679 111.647 139.679 113.794 139.597 115.776Z" fill="white"/>
<path fill-rule="evenodd" clip-rule="evenodd" d="M147.195 106.774C147.195 110.656 147.195 114.537 147.195 118.419C148.434 118.419 149.673 118.419 150.994 118.419C152.646 116.354 154.215 114.042 155.867 112.06C155.867 114.207 155.867 116.354 155.867 118.419C157.106 118.419 158.345 118.419 159.666 118.419C159.666 114.537 159.666 110.573 159.666 106.691C158.427 106.691 157.188 106.691 155.949 106.691C154.298 108.756 152.728 111.069 151.077 113.133C151.077 110.986 151.077 108.839 151.077 106.691C149.838 106.691 148.599 106.691 147.278 106.691C147.195 106.691 147.195 106.774 147.195 106.774Z" fill="white"/>
<path d="M34.2945 142.453C34.6249 142.453 34.6249 142.701 34.6249 142.866V144.352C34.6249 144.518 34.6249 144.683 34.2945 144.683H32.0646C31.8994 144.683 31.7342 144.765 31.7342 145.013V153.685C31.7342 154.015 31.7342 154.263 31.1561 154.263H29.8346C29.2565 154.263 29.2565 154.015 29.2565 153.685V145.013C29.2565 144.848 29.1739 144.683 28.9262 144.683H26.8614C26.6136 144.683 26.4485 144.518 26.4485 144.352V142.783C26.4485 142.535 26.6136 142.453 26.7788 142.453H34.2945Z" fill="white"/>
<path d="M35.6164 146.748C35.6164 145.674 35.5338 142.288 39.2503 142.288C42.7191 142.288 42.8843 145.096 42.8843 146.748V149.969C42.8843 151.042 42.9669 154.429 39.2503 154.429C35.5338 154.429 35.6164 151.042 35.6164 149.969V146.748ZM40.4892 147.078C40.4892 145.674 40.4892 144.518 39.3329 144.518C38.1767 144.518 38.1767 145.591 38.1767 147.078V149.721C38.1767 151.125 38.1767 152.281 39.3329 152.281C40.4892 152.281 40.4892 151.208 40.4892 149.721V147.078Z" fill="white"/>
<path d="M52.2162 142.453C52.7943 142.453 52.7943 142.701 52.7943 143.031V153.685C52.7943 154.016 52.7943 154.263 52.2162 154.263H50.8947C50.3166 154.263 50.3166 154.016 50.3166 153.685V144.931C50.3166 144.683 50.1514 144.683 49.9862 144.683H48.4996C48.4996 144.683 48.2519 144.683 48.2519 144.848L48.1693 146.83C48.0867 150.712 48.4996 154.346 44.9483 154.346C44.0398 154.346 43.792 154.263 43.792 153.768V152.281C43.792 152.116 43.792 151.951 44.2049 151.951H44.3701C45.4438 151.951 45.609 151.951 45.6916 145.757V143.031C45.6916 142.701 45.6916 142.453 46.2697 142.453H52.2162Z" fill="white"/>
<path d="M54.6944 143.114C54.6944 142.783 54.6944 142.536 55.2725 142.536H56.594C57.1721 142.536 57.1721 142.783 57.1721 143.114V146.5C57.1721 146.583 57.1721 146.665 57.3373 146.665H58.5761C61.1364 146.665 62.5405 148.234 62.5405 150.629C62.5405 153.933 59.9802 154.263 58.411 154.263H55.2725C54.6944 154.263 54.6944 154.016 54.6944 153.685V143.114ZM57.1721 151.703C57.1721 151.868 57.2547 151.951 57.4199 151.951H58.4936C59.3195 151.951 59.815 151.125 59.815 150.382C59.815 149.556 59.2369 148.895 58.2458 148.895H57.4199C57.1721 148.895 57.1721 149.06 57.1721 149.143V151.703Z" fill="white"/>
<path d="M71.2127 142.453C71.7909 142.453 71.7909 142.701 71.7909 143.031V153.685C71.7909 154.263 71.5431 154.263 71.2127 154.263H69.8913C69.3132 154.263 69.3132 154.016 69.3132 153.685V149.473C69.3132 149.391 69.3132 149.308 69.148 149.308H68.8176C68.6525 149.308 68.5699 149.391 68.4873 149.556L66.5051 153.933C66.4225 154.098 66.3399 154.263 65.8444 154.263H64.11C63.7796 154.263 63.6145 153.933 63.7796 153.685L65.927 149.143C66.0096 149.06 66.0096 148.978 66.0096 148.895C66.0096 148.73 65.6792 148.73 65.3489 148.4C64.3578 147.656 64.0274 146.583 64.0274 145.757C64.0274 144.27 65.0185 142.453 68.1569 142.453H71.2127ZM69.3132 144.931C69.3132 144.766 69.2306 144.683 69.0654 144.683H68.3221C67.1658 144.683 66.7529 145.344 66.7529 146.004C66.7529 146.748 67.4136 147.326 68.3221 147.326H69.0654C69.3132 147.326 69.3132 147.161 69.3132 146.996V144.931Z" fill="white"/>
<path d="M80.7099 142.453C81.0402 142.453 81.0402 142.701 81.0402 142.866V144.353C81.0402 144.518 81.0402 144.683 80.7099 144.683H78.48C78.3148 144.683 78.1496 144.766 78.1496 145.013V153.685C78.1496 154.016 78.1496 154.263 77.5715 154.263H76.25C75.6719 154.263 75.6719 154.016 75.6719 153.685V145.013C75.6719 144.848 75.5893 144.683 75.3415 144.683H73.1942C72.9464 144.683 72.7812 144.518 72.7812 144.353V142.783C72.7812 142.536 72.9464 142.453 73.1116 142.453H80.7099Z" fill="white"/>
<path d="M89.4648 142.453C89.7951 142.453 89.7951 142.701 89.7951 142.866V144.352C89.7951 144.518 89.7951 144.683 89.4648 144.683H87.2348C87.0697 144.683 86.9045 144.765 86.9045 145.013V153.685C86.9045 154.015 86.9045 154.263 86.3264 154.263H85.0049C84.4268 154.263 84.4268 154.015 84.4268 153.685V145.013C84.4268 144.848 84.3442 144.683 84.0964 144.683H81.9491C81.7013 144.683 81.5361 144.518 81.5361 144.352V142.783C81.5361 142.535 81.7013 142.453 81.8665 142.453H89.4648Z" fill="white"/>
<path d="M91.4463 154.263C91.1159 154.263 90.8682 154.263 90.8682 153.685V143.031C90.8682 142.701 90.8682 142.453 91.4463 142.453H92.7677C93.3459 142.453 93.3459 142.701 93.3459 143.031V148.565H93.4285L95.6584 143.031C95.741 142.783 95.9062 142.453 96.3191 142.453H97.7231C98.3013 142.453 98.3013 142.701 98.3013 143.031V153.685C98.3013 154.016 98.3013 154.263 97.7231 154.263H96.4017C95.8236 154.263 95.8236 154.016 95.8236 153.685V147.904H95.741L93.5936 153.685C93.511 154.016 93.3459 154.263 92.8503 154.263H91.4463Z" fill="white"/>
<path d="M116.058 147.904C116.058 150.217 115.728 154.264 109.616 154.264C104.991 154.264 105.239 153.272 105.239 152.86V150.712C105.239 150.63 105.239 150.382 105.734 150.382C108.377 150.382 107.138 150.96 109.368 150.96C111.846 150.96 111.846 149.06 111.846 147.987V147.326C111.846 147.243 111.846 147.161 111.681 147.161C111.516 147.161 111.433 147.326 111.02 147.491C110.525 147.739 109.616 147.904 109.038 147.904C107.138 147.904 104.743 146.913 104.743 143.362V139.48C104.743 136.342 106.973 134.359 110.69 134.359C115.728 134.359 116.223 138.241 116.223 140.306V147.904H116.058ZM108.79 142.701C108.79 143.775 109.368 144.353 110.277 144.353C111.268 144.353 111.763 143.692 111.763 142.701V139.315C111.763 138.489 111.268 137.663 110.277 137.663C109.203 137.663 108.79 138.406 108.79 139.315V142.701Z" fill="white"/>
<path d="M118.37 140.636C118.37 138.406 118.701 134.277 124.812 134.277C128.777 134.277 128.942 135.103 128.942 135.681V137.828C128.942 137.911 128.942 138.158 128.446 138.158C126.134 138.158 127.125 137.58 125.143 137.58C122.665 137.58 122.665 139.48 122.665 140.553V141.214C122.665 141.297 122.665 141.379 122.83 141.379C122.995 141.379 123.078 141.214 123.491 141.049C123.987 140.801 124.895 140.636 125.473 140.636C127.373 140.636 129.768 141.627 129.768 145.178V149.06C129.768 152.199 127.538 154.181 123.821 154.181C118.783 154.181 118.288 150.299 118.288 148.234V140.636H118.37ZM125.638 145.922C125.638 144.848 125.06 144.27 124.152 144.27C123.161 144.27 122.665 144.931 122.665 145.922V149.308C122.665 150.134 123.161 150.96 124.152 150.96C125.225 150.96 125.638 150.216 125.638 149.308V145.922Z" fill="white"/>
<path d="M136.127 149.969C136.87 149.969 136.953 150.382 136.953 150.712V153.768C136.953 155.998 135.301 157.319 133.567 157.319H133.236C132.741 157.319 132.741 156.989 132.741 156.824V155.998C132.741 155.585 133.071 155.75 133.484 155.585C133.979 155.42 134.227 155.007 134.227 154.429V154.263C134.227 154.181 134.145 154.016 133.979 154.016H133.484C132.741 154.016 132.658 153.603 132.658 153.272V150.795C132.658 150.051 133.071 150.051 133.484 150.051H136.127V149.969Z" fill="white"/>
<path d="M139.844 140.636C139.844 138.406 140.174 134.277 146.286 134.277C150.25 134.277 150.416 135.103 150.416 135.681V137.828C150.416 137.911 150.416 138.158 149.92 138.158C147.608 138.158 148.599 137.58 146.616 137.58C144.139 137.58 144.139 139.48 144.139 140.553V141.214C144.139 141.297 144.139 141.379 144.304 141.379C144.469 141.379 144.552 141.214 144.965 141.049C145.46 140.801 146.369 140.636 146.947 140.636C148.846 140.636 151.242 141.627 151.242 145.178V149.06C151.242 152.199 149.012 154.181 145.295 154.181C140.257 154.181 139.761 150.299 139.761 148.234V140.636H139.844ZM147.112 145.922C147.112 144.848 146.534 144.27 145.625 144.27C144.634 144.27 144.139 144.931 144.139 145.922V149.308C144.139 150.134 144.634 150.96 145.625 150.96C146.699 150.96 147.112 150.216 147.112 149.308V145.922Z" fill="white"/>
<path d="M161.317 135.515C161.317 135.02 161.317 134.524 162.308 134.524H171.476C172.467 134.524 172.467 135.02 172.467 135.515V137.663C172.467 138.324 171.806 138.324 171.558 138.324H166.025C165.86 138.324 165.529 138.324 165.529 138.737V141.71C165.529 141.958 165.529 142.205 165.86 142.205H170.485C171.063 142.205 171.145 142.536 171.145 142.701V145.261C171.145 145.426 171.145 145.839 170.567 145.839H165.942C165.529 145.839 165.529 146.087 165.529 146.335V153.107C165.529 154.016 165.034 154.098 164.538 154.098H162.308C161.813 154.098 161.317 154.098 161.317 153.107V135.515Z" fill="white"/>
<path d="M179.322 153.107C179.322 154.016 178.827 154.098 178.331 154.098H176.101C175.606 154.098 175.11 154.098 175.11 153.107V135.515C175.11 135.02 175.11 134.524 176.101 134.524H178.662C179.322 134.524 179.653 135.103 179.735 135.185L182.874 141.214C182.956 141.379 183.039 141.71 183.204 141.71C183.369 141.71 183.452 141.379 183.534 141.297L186.673 135.35C186.838 135.103 187.086 134.607 187.746 134.607H190.224C191.215 134.607 191.215 135.103 191.215 135.598V153.19C191.215 154.098 190.72 154.181 190.224 154.181H187.994C187.003 154.181 187.003 153.685 187.003 153.19V143.279C187.003 143.196 187.003 143.114 186.921 143.114C186.921 143.114 186.838 143.114 186.838 143.196L184.608 148.482C184.525 148.73 184.278 149.225 183.865 149.225H182.874C182.543 149.225 182.295 148.978 182.13 148.482L179.818 143.031C179.818 142.949 179.653 142.949 179.653 143.031V153.107H179.322Z" fill="white"/>
</svg>
