<svg width="220" height="220" viewBox="0 0 220 220" fill="none" xmlns="http://www.w3.org/2000/svg">
<rect width="220" height="220" rx="58.8354" fill="#E3090F"/>
<path d="M201.079 18.48H18.4795V201.08H201.079V18.48Z" fill="#E3090F"/>
<path fill-rule="evenodd" clip-rule="evenodd" d="M106.821 61.9937C106.164 61.5117 105.507 60.8105 103.929 59.715C100.161 57.1734 95.5156 55.9026 90.5639 55.9026C78.5133 55.9026 68.4345 65.2364 68.4345 77.1556C68.4345 82.8084 71.1952 88.1107 74.2627 91.0029L94.8145 110.24C96.5673 111.905 98.2763 113.395 100.029 115.06C101.826 116.769 103.184 118.522 106.997 118.522C110.327 118.522 112.167 116.55 113.613 115.236L129.17 100.687C130.879 99.1096 132.5 97.4007 134.297 95.9108C137.627 93.1501 141.79 89.0309 143.499 85.1309C152.701 63.878 125.094 46.0869 106.821 61.9937Z" fill="white"/>
<path fill-rule="evenodd" clip-rule="evenodd" d="M61.2047 55.8151C58.4878 55.8151 54.5001 55.4645 52.2215 56.4724C47.7956 58.4881 45.9551 73.4747 45.9551 77.7691C45.9551 83.8602 46.3057 87.804 48.0147 93.8074C48.5405 95.6041 49.2417 98.0142 50.0304 99.5917C51.0821 101.651 52.1776 102.484 55.2451 102.484C69.0924 102.484 65.28 102.834 61.7305 92.931C56.9979 79.6972 59.3204 64.9297 67.8216 53.7117C70.2317 50.5566 70.5384 50.2499 73.1238 47.7959C76.98 44.1588 81.3183 41.0476 86.6206 38.8565C94.2453 35.7015 99.3723 34.6936 108.136 34.6936C114.14 34.6936 122.028 36.6217 126.716 38.7689C132.983 41.661 139.161 45.7802 143.018 50.4251C143.894 51.4768 144.683 52.2656 145.515 53.4488C150.511 60.2848 154.192 68.7421 154.192 77.7253C154.192 85.3501 152.965 91.704 149.371 98.4086C146.742 103.36 150.511 102.44 158.223 102.44C161.51 102.44 162.781 101.388 163.745 99.0221C164.621 96.8749 165.322 94.7277 165.936 92.3614C167.25 87.322 167.776 81.8883 167.557 76.4107C167.338 71.2399 166.286 66.1567 164.752 61.5994C164.008 59.3645 163.263 57.2173 161.072 56.3409C158.837 55.4645 154.981 55.8589 152.395 55.7712C151.825 54.369 149.985 51.9589 149.021 50.7319C146.085 46.8319 144.77 46.1307 141.791 43.1071C141.352 42.6689 141.002 42.4936 140.52 42.0993C133.202 35.8767 119.924 30.5745 108.575 30.5745H105.376C92.7116 30.5745 81.8441 35.57 73.2115 42.0554C71.4587 43.37 70.2755 44.6847 68.6542 46.1307C66.6384 47.7959 62.344 53.5802 61.2047 55.8151Z" fill="white"/>
<path fill-rule="evenodd" clip-rule="evenodd" d="M118.741 69.531C111.773 70.4074 109.538 76.5423 103.885 73.6501C100.555 71.9411 95.2089 66.9894 88.855 71.0209C84.21 73.9568 83.1583 79.5659 87.0145 84.4738L97.5314 94.2019C98.4516 94.9907 99.3281 95.7356 100.204 96.5682C101.125 97.4446 101.782 98.1896 102.79 99.0222C107.654 103.141 107.61 101.695 112.124 97.9267C114.884 95.6042 116.856 93.4131 120.099 90.6963C120.975 89.9513 121.764 89.0311 122.641 88.2423C125.226 85.9198 128.337 83.7288 128.907 79.3906C129.696 73.6501 124.656 68.786 118.741 69.531Z" fill="#E3090F"/>
<path fill-rule="evenodd" clip-rule="evenodd" d="M89.0305 133.027C82.0631 133.903 76.1911 139.6 77.199 147.225C78.0316 153.666 84.4732 159.144 92.4047 158.224C99.2407 157.391 105.156 151.607 104.192 144.113C103.36 137.628 97.0059 132.019 89.0305 133.027Z" fill="white"/>
<path fill-rule="evenodd" clip-rule="evenodd" d="M143.85 152.395L143.806 148.583C145.165 148.583 153.578 148.802 154.498 148.364C155.55 147.838 155.506 146.918 155.506 145.735C155.506 142.317 154.586 142.799 151.168 142.799C149.503 142.799 145.165 142.974 143.806 142.711L143.762 138.942C146.392 138.417 155.287 139.381 157.084 138.723C158.793 138.11 158.223 134.254 157.653 133.64C156.689 132.676 153.14 133.071 151.475 133.071C136.094 133.071 137.584 131.8 137.584 139.118V151.87C137.584 159.45 135.875 158.092 151.299 158.092C157.873 158.092 158.135 158.706 158.135 154.849C158.135 153.622 158.048 152.921 157.171 152.527C156.164 152.132 145.866 152.395 143.85 152.395Z" fill="white"/>
<path fill-rule="evenodd" clip-rule="evenodd" d="M104.499 133.64C104.279 134.823 105.287 136.094 105.813 137.058L116.155 156.164C117.688 159.056 120.318 159.1 121.939 156.252C122.553 155.2 123.122 154.148 123.692 153.053C124.787 150.949 126.014 148.802 127.154 146.743L132.325 137.146C132.894 136.094 133.902 134.867 133.727 133.597C132.412 132.895 128.468 132.676 127.329 133.947C126.453 134.955 121.15 145.34 119.573 148.101L119.091 148.758C118.653 147.531 117.206 145.165 116.505 143.807C115.585 142.098 114.753 140.52 113.832 138.767C113.044 137.321 111.992 134.999 111.115 133.903C110.108 132.764 105.901 132.808 104.499 133.64Z" fill="white"/>
<path fill-rule="evenodd" clip-rule="evenodd" d="M61.5983 152.352C61.3792 148.495 61.5545 140.389 61.5983 135.831C61.5983 133.465 60.8972 133.158 58.487 133.158C56.1207 133.158 55.4196 133.509 55.4196 135.831V152.439C55.4196 158.53 54.6747 158.18 61.1601 158.18C65.0601 158.18 69.004 158.18 72.904 158.18C75.4456 158.18 75.9714 157.873 75.9714 155.463C75.9714 151.65 75.095 152.395 67.3826 152.395C65.8051 152.395 63.0444 152.571 61.5983 152.352Z" fill="white"/>
<path fill-rule="evenodd" clip-rule="evenodd" d="M89.9065 138.811C79.9154 140.082 82.1065 153.622 91.6593 152.483C95.4279 152.045 98.5392 148.846 98.0133 144.771C97.5751 141.353 94.0256 138.285 89.9065 138.811Z" fill="#E3090F"/>
<path fill-rule="evenodd" clip-rule="evenodd" d="M139.6 172.378H139.381V172.509H139.162V172.597H139.03V172.728H138.899V172.947H138.811V173.254H138.68V186.663H138.811V187.014H138.899V187.101H139.03V187.233H139.162V187.32H139.249V187.452H139.469V187.54H141.66V187.452H141.879V187.32H142.01V187.233H142.142V187.101H142.229V186.882H142.361V186.663H142.492V178.995H142.58V179.214H142.711V179.433H142.799V179.652H142.93V179.871H143.062V180.09H143.149V180.178H143.281V180.397H143.412V180.616H143.5V180.835H143.631V181.054H143.719V181.273H143.851V181.492H143.982V181.711H144.07V181.931H144.201V182.15H144.333V182.369H144.42V182.588H144.552V182.807H144.639V182.982H144.771V183.201H144.902V183.42H144.99V183.64H145.121V183.859H145.253V184.078H145.34V184.297H145.472V184.516H145.56V184.735H145.691V184.954H145.822V185.173H145.91V185.392H146.042V185.611H146.173V185.831H146.261V186.05H146.392V186.269H146.48V186.444H146.611V186.663H146.743V186.882H146.83V187.014H146.962V187.101H147.093V187.233H147.181V187.32H147.312V187.452H147.531V187.54H147.751V187.671H148.583V187.54H149.021V187.452H149.153V187.32H149.372V187.233H149.503V187.101H149.591V187.014H149.723V186.795H149.854V186.576H149.942V186.356H150.073V186.137H150.161V185.918H150.292V185.699H150.424V185.48H150.511V185.392H150.643V185.173H150.774V184.954H150.862V184.735H150.993V184.516H151.081V184.297H151.212V184.078H151.344V183.859H151.432V183.64H151.563V183.42H151.694V183.201H151.782V182.982H151.914V182.807H152.001V182.588H152.133V182.369H152.264V182.15H152.352V181.931H152.483V181.711H152.615V181.492H152.702V181.273H152.834V181.054H152.921V180.835H153.053V180.616H153.184V180.397H153.272V180.178H153.403V179.959H153.535V179.74H153.623V179.52H153.754V179.345H153.842V179.126H153.973V178.907H154.105V178.775H154.192V186.882H154.324V187.101H154.455V187.233H154.543V187.32H154.674V187.452H154.893V187.54H157.084V187.452H157.303V187.32H157.435V187.233H157.523V187.101H157.654V187.014H157.785V186.795H157.873V173.035H157.785V172.947H157.654V172.728H157.523V172.597H157.435V172.509H157.216V172.378H156.953V172.29H153.973V172.378H153.754V172.509H153.535V172.597H153.403V172.728H153.272V172.816H153.184V173.035H153.053V173.166H152.921V173.386H152.834V173.605H152.702V173.824H152.615V174.043H152.483V174.218H152.352V174.437H152.264V174.656H152.133V174.875H152.001V175.095H151.914V175.314H151.782V175.533H151.694V175.752H151.563V175.971H151.432V176.19H151.344V176.409H151.212V176.628H151.081V176.847H150.993V177.066H150.862V177.286H150.774V177.505H150.643V177.68H150.511V177.899H150.424V178.118H150.292V178.337H150.161V178.556H150.073V178.775H149.942V178.995H149.854V179.214H149.723V179.433H149.591V179.652H149.503V179.871H149.372V180.09H149.24V180.309H149.153V180.528H149.021V180.747H148.934V180.967H148.802V181.142H148.671V181.361H148.583V181.58H148.452V181.799H148.32V181.931H148.233V181.711H148.101V181.492H148.014V181.273H147.882V181.054H147.751V180.747H147.663V180.528H147.531V180.309H147.4V180.09H147.312V179.871H147.181V179.652H147.093V179.433H146.962V179.214H146.83V178.995H146.743V178.775H146.611V178.556H146.48V178.337H146.392V178.118H146.261V177.899H146.173V177.68H146.042V177.505H145.91V177.286H145.822V177.066H145.691V176.847H145.56V176.628H145.472V176.409H145.34V176.19H145.253V175.971H145.121V175.752H144.99V175.533H144.902V175.314H144.771V175.095H144.639V174.875H144.552V174.656H144.42V174.437H144.333V174.218H144.201V174.043H144.07V173.824H143.982V173.605H143.851V173.386H143.719V173.254H143.631V173.035H143.5V172.947H143.412V172.728H143.281V172.597H143.062V172.509H142.93V172.378H142.711V172.29H139.6V172.378Z" fill="white"/>
<path fill-rule="evenodd" clip-rule="evenodd" d="M89.6448 172.334H89.2942V172.465H88.7245V172.553H88.5054V172.684H88.0234V172.772H87.8043V172.903H87.5852V172.991H87.3661V173.123H87.1032V173.21H86.8841V173.342H86.665V173.429H86.5335V173.517H86.3144V173.648H86.183V173.736H86.0953V173.867H85.8762V173.955H85.7448V174.087H85.6133V174.174H85.5257V174.306H85.3942V174.393H85.2627V174.525H85.1751V174.612H85.0436V174.744H84.956V174.832H84.8245V174.963H84.6931V175.051H84.6054V175.27H84.474V175.357H84.3425V175.489H84.2549V175.708H84.1234V175.796H84.0358V176.015H83.9043V176.234H83.7728V176.453H83.6852V176.672H83.5537V176.891H83.4223V177.11H83.3346V177.417H83.2032V177.767H83.1155V178.425H82.9841V178.644H82.8526V181.229H82.9841V181.536H83.1155V182.106H83.2032V182.281H83.3346V182.719H83.4223V182.938H83.5537V183.289H83.6852V183.377H83.7728V183.596H83.9043V183.815H84.0358V184.034H84.1234V184.121H84.2549V184.341H84.3425V184.472H84.474V184.691H84.6054V184.779H84.6931V184.91H84.8245V184.998H84.956V185.129H85.0436V185.217H85.1751V185.348H85.2627V185.436H85.3942V185.568H85.5257V185.655H85.6133V185.743H85.7448V185.874H85.8762V185.962H85.9639V186.093H86.183V186.181H86.3144V186.312H86.5335V186.4H86.665V186.532H86.8841V186.619H87.0155V186.751H87.2346V186.838H87.4538V186.97H87.7167V187.057H88.0234V187.189H88.2863V187.277H88.7245V187.408H88.9437V187.496H89.7762V187.583H92.4055V187.496H93.1066V187.408H93.4572V187.277H93.6763V187.189H94.1583V187.057H94.3774V186.97H94.5965V186.838H94.8156V186.751H95.0785V186.619H95.2976V186.532H95.3853V186.4H95.6482V186.312H95.7358V186.181H95.9987V186.093H96.0864V185.962H96.2178V185.874H96.3055V185.743H96.5684V185.655H96.6561V185.568H96.7875V185.436H96.919V185.348H97.0066V185.217H97.1381V185.129H97.2257V184.998H97.3572V184.779H97.4886V184.691H97.5763V184.56H97.7077V184.341H97.8392V184.253H97.9268V184.034H98.0583V183.946H98.1459V183.727H98.2774V183.508H98.4089V183.289H98.4965V183.07H98.628V182.851H98.7594V182.5H98.8471V182.281H98.9785V181.887H99.0662V181.229H99.1977V180.572H99.3291V179.257H99.1977V178.644H99.0662V177.987H98.9785V177.636H98.8471V177.329H98.7594V176.979H98.628V176.803H98.4965V176.584H98.4089V176.365H98.2774V176.146H98.1459V175.927H98.0583V175.796H97.9268V175.576H97.8392V175.489H97.7077V175.27H97.5763V175.138H97.4886V175.051H97.3572V174.963H97.2257V174.744H97.1381V174.612H97.0066V174.525H96.919V174.393H96.7875V174.306H96.6561V174.174H96.437V174.087H96.3055V173.955H96.2178V173.867H96.0864V173.736H95.9987V173.648H95.7358V173.517H95.6482V173.429H95.3853V173.342H95.1662V173.21H95.0785V173.123H94.8156V172.991H94.5965V172.903H94.2459V172.772H94.0268V172.684H93.6763V172.553H93.3257V172.465H92.9751V172.334H92.3178V172.246H89.6448V172.334Z" fill="white"/>
<path fill-rule="evenodd" clip-rule="evenodd" d="M122.905 172.378H122.686V172.509H122.466V172.597H122.335V172.728H122.247V172.816H122.116V173.035H121.984V186.795H122.116V187.014H122.247V187.233H122.335V187.32H122.598V187.452H122.817V187.54H125.008V187.452H125.227V187.32H125.359V187.233H125.446V187.101H125.578V186.882H125.665V181.711H132.019V181.58H132.238V181.492H132.37V181.361H132.458V181.273H132.589V181.142H132.72V180.835H132.808V178.995H132.72V178.775H132.589V178.556H132.458V178.469H132.37V178.337H132.107V178.25H125.665V175.84H133.641V175.752H133.86V175.664H133.947V175.533H134.079V175.445H134.21V175.314H134.298V175.095H134.429V173.035H134.298V172.816H134.21V172.728H134.079V172.597H133.947V172.509H133.86V172.378H133.641V172.29H122.905V172.378Z" fill="white"/>
<path fill-rule="evenodd" clip-rule="evenodd" d="M56.3847 172.465H56.1656V172.553H56.078V172.684H55.9465V172.772H55.815V172.903H55.7274V173.123H55.5959V186.838H55.7274V187.057H55.815V187.189H55.9465V187.277H56.078V187.408H56.2971V187.496H56.5162V187.583H58.3566V187.496H58.7072V187.408H58.9263V187.277H59.0578V187.189H59.1454V186.97H59.2769V186.751H59.4083V173.21H59.2769V172.991H59.1454V172.772H59.0578V172.684H58.9263V172.553H58.7948V172.465H58.5757V172.334H56.3847V172.465Z" fill="white"/>
<path fill-rule="evenodd" clip-rule="evenodd" d="M102.309 184.253H101.739V184.341H101.52V184.472H101.388V184.56H101.257V184.691H101.169V184.779H101.038V184.91H100.906V185.129H100.819V185.349H100.687V186.4H100.819V186.751H100.906V186.838H101.038V187.058H101.169V187.189H101.257V187.277H101.52V187.408H101.608V187.496H101.827V187.583H103.229V187.496H103.448V187.408H103.58V187.277H103.799V187.189H103.93V187.058H104.018V186.838H104.149V186.751H104.237V186.532H104.368V185.349H104.237V185.129H104.149V184.91H104.018V184.779H103.93V184.691H103.799V184.56H103.667V184.472H103.448V184.341H103.317V184.253H103.01V184.122H102.309V184.253Z" fill="white"/>
<path fill-rule="evenodd" clip-rule="evenodd" d="M89.6448 172.334H89.2942V172.465H88.7245V172.553H88.5054V172.684H88.0234V172.772H87.8043V172.903H87.5852V172.991H87.3661V173.123H87.1032V173.21H86.8841V173.342H86.665V173.429H86.5335V173.517H86.3144V173.648H86.183V173.736H86.0953V173.867H85.8762V173.955H85.7448V174.087H85.6133V174.174H85.5257V174.306H85.3942V174.393H85.2627V174.525H85.1751V174.612H85.0436V174.744H84.956V174.832H84.8245V174.963H84.6931V175.051H84.6054V175.27H84.474V175.357H84.3425V175.489H84.2549V175.708H84.1234V175.796H84.0358V176.015H83.9043V176.234H83.7728V176.453H83.6852V176.672H83.5537V176.891H83.4223V177.11H83.3346V177.417H83.2032V177.767H83.1155V178.425H82.9841V178.644H82.8526V181.229H82.9841V181.536H83.1155V182.106H83.2032V182.281H83.3346V182.719H83.4223V182.938H83.5537V183.289H83.6852V183.377H83.7728V183.596H83.9043V183.815H84.0358V184.034H84.1234V184.121H84.2549V184.341H84.3425V184.472H84.474V184.691H84.6054V184.779H84.6931V184.91H84.8245V184.998H84.956V185.129H85.0436V185.217H85.1751V185.348H85.2627V185.436H85.3942V185.568H85.5257V185.655H85.6133V185.743H85.7448V185.874H85.8762V185.962H85.9639V186.093H86.183V186.181H86.3144V186.312H86.5335V186.4H86.665V186.532H86.8841V186.619H87.0155V186.751H87.2346V186.838H87.4538V186.97H87.7167V187.057H88.0234V187.189H88.2863V187.277H88.7245V187.408H88.9437V187.496H89.7762V187.583H92.4055V187.496H93.1066V187.408H93.4572V187.277H93.6763V187.189H94.1583V187.057H94.3774V186.97H94.5965V186.838H94.8156V186.751H95.0785V186.619H95.2976V186.532H95.3853V186.4H95.6482V186.312H95.7358V186.181H95.9987V186.093H96.0864V185.962H96.2178V185.874H96.3055V185.743H96.5684V185.655H96.6561V185.568H96.7875V185.436H96.919V185.348H97.0066V185.217H97.1381V185.129H97.2257V184.998H97.3572V184.779H97.4886V184.691H97.5763V184.56H97.7077V184.341H97.8392V184.253H97.9268V184.034H98.0583V183.946H98.1459V183.727H98.2774V183.508H98.4089V183.289H98.4965V183.07H98.628V182.851H98.7594V182.5H98.8471V182.281H98.9785V181.887H99.0662V181.229H99.1977V180.572H99.3291V179.257H99.1977V178.644H99.0662V177.987H98.9785V177.636H98.8471V177.329H98.7594V176.979H98.628V176.803H98.4965V176.584H98.4089V176.365H98.2774V176.146H98.1459V175.927H98.0583V175.796H97.9268V175.576H97.8392V175.489H97.7077V175.27H97.5763V175.138H97.4886V175.051H97.3572V174.963H97.2257V174.744H97.1381V174.612H97.0066V174.525H96.919V174.393H96.7875V174.306H96.6561V174.174H96.437V174.087H96.3055V173.955H96.2178V173.867H96.0864V173.736H95.9987V173.648H95.7358V173.517H95.6482V173.429H95.3853V173.342H95.1662V173.21H95.0785V173.123H94.8156V172.991H94.5965V172.903H94.2459V172.772H94.0268V172.684H93.6763V172.553H93.3257V172.465H92.9751V172.334H92.3178V172.246H89.6448V172.334Z" fill="white"/>
<path fill-rule="evenodd" clip-rule="evenodd" d="M90.6964 175.796H89.8638V175.927H89.5571V176.015H89.2941V176.146H88.9436V176.234H88.8559V176.365H88.6368V176.453H88.5054V176.584H88.2863V176.672H88.1548V176.804H88.0233V176.891H87.9357V176.979H87.8042V177.11H87.7166V177.198H87.5851V177.329H87.4537V177.548H87.366V177.636H87.2346V177.855H87.1031V178.074H87.0155V178.293H86.884V178.513H86.7964V178.819H86.6649V179.257H86.5334V180.572H86.6649V181.01H86.7964V181.317H86.884V181.536H87.0155V181.887H87.1031V181.974H87.2346V182.193H87.366V182.281H87.4537V182.5H87.5851V182.632H87.7166V182.719H87.8042V182.851H87.9357V182.938H88.0233V183.07H88.1548V183.157H88.2863V183.289H88.3739V183.377H88.6368V183.508H88.7245V183.596H88.9436V183.727H89.2065V183.815H89.5571V183.946H89.8638V184.034H90.2144V184.122H91.8357V184.034H92.3178V183.946H92.6245V183.815H92.8874V183.727H93.1065V183.596H93.3256V183.508H93.4571V183.377H93.6762V183.289H93.8076V183.157H94.0267V183.07H94.1582V182.938H94.2458V182.851H94.3773V182.719H94.465V182.5H94.5964V182.413H94.7279V182.281H94.8155V182.106H94.947V181.887H95.0784V181.668H95.1661V181.448H95.2975V181.229H95.3852V180.572H95.5166V179.389H95.3852V178.732H95.2975V178.425H95.1661V178.206H95.0784V177.987H94.947V177.768H94.8155V177.636H94.7279V177.417H94.5964V177.329H94.465V177.198H94.3773V177.11H94.2458V176.979H94.1582V176.891H94.0267V176.804H93.8953V176.672H93.8076V176.584H93.6762V176.453H93.4571V176.365H93.3256V176.234H93.1065V176.146H92.8874V176.015H92.5369V175.927H92.3178V175.796H91.3975V175.708H90.6964V175.796Z" fill="#E41113"/>
<path fill-rule="evenodd" clip-rule="evenodd" d="M69.6623 172.334H69.3117V172.465H68.7421V172.553H68.4791V172.684H68.0409V172.772H67.8218V172.903H67.5589V172.991H67.3398V173.123H67.1207V173.21H66.9016V173.342H66.6387V173.429H66.551V173.517H66.3319V173.648H66.2005V173.736H66.069V173.867H65.8499V173.955H65.7184V174.087H65.6308V174.174H65.4993V174.306H65.4117V174.393H65.2802V174.525H65.1488V174.612H65.0611V174.744H64.9297V174.832H64.7982V174.963H64.7106V175.051H64.5791V175.27H64.4915V175.357H64.36V175.489H64.2285V175.708H64.1409V175.796H64.0094V176.015H63.878V176.234H63.7903V176.453H63.6589V176.672H63.5712V176.891H63.4398V177.11H63.3083V177.417H63.2207V177.767H63.0892V178.425H62.9578V178.644H62.8701V181.229H62.9578V181.536H63.0892V182.106H63.2207V182.281H63.3083V182.719H63.4398V182.938H63.5712V183.289H63.6589V183.377H63.7903V183.596H63.878V183.815H64.0094V184.034H64.1409V184.121H64.2285V184.341H64.36V184.472H64.4915V184.691H64.5791V184.779H64.7106V184.91H64.7982V184.998H64.9297V185.129H65.0611V185.217H65.1488V185.348H65.2802V185.436H65.4117V185.568H65.4993V185.655H65.6308V185.743H65.7184V185.874H65.8499V185.962H65.9814V186.093H66.2005V186.181H66.3319V186.312H66.551V186.4H66.6387V186.532H66.9016V186.619H66.9892V186.751H67.2522V186.838H67.4713V186.97H67.6904V187.057H68.0409V187.189H68.26V187.277H68.7421V187.408H68.9612V187.496H69.7499V187.583H72.423V187.496H73.0803V187.408H73.4309V187.277H73.65V187.189H74.132V187.057H74.3511V186.97H74.5702V186.838H74.8331V186.751H75.0522V186.619H75.2713V186.532H75.4028V186.4H75.6219V186.312H75.7533V186.181H75.9724V186.093H76.1039V185.962H76.1915V185.874H76.323V185.743H76.5421V185.655H76.6736V185.568H76.7612V185.436H76.8927V185.348H77.0241V185.217H77.1118V185.129H77.2432V184.998H77.3309V184.779H77.4623V184.691H77.5938V184.56H77.6814V184.341H77.8129V184.253H77.9444V184.034H78.032V183.946H78.1635V183.727H78.2511V183.508H78.3826V183.289H78.514V183.07H78.6017V182.851H78.7331V182.5H78.8646V182.281H78.9522V181.887H79.0837V181.229H79.1713V180.572H79.3028V179.257H79.1713V178.644H79.0837V177.987H78.9522V177.636H78.8646V177.329H78.7331V176.979H78.6017V176.803H78.514V176.584H78.3826V176.365H78.2511V176.146H78.1635V175.927H78.032V175.796H77.9444V175.576H77.8129V175.489H77.6814V175.27H77.5938V175.138H77.4623V175.051H77.3309V174.963H77.2432V174.744H77.1118V174.612H77.0241V174.525H76.8927V174.393H76.7612V174.306H76.6736V174.174H76.4106V174.087H76.323V173.955H76.1915V173.867H76.1039V173.736H75.9724V173.648H75.7533V173.517H75.6219V173.429H75.4028V173.342H75.1837V173.21H75.0522V173.123H74.8331V172.991H74.5702V172.903H74.2634V172.772H74.0005V172.684H73.65V172.553H73.3432V172.465H72.9926V172.334H72.2915V172.246H69.6623V172.334Z" fill="white"/>
<path fill-rule="evenodd" clip-rule="evenodd" d="M70.67 175.796H69.8812V175.927H69.5306V176.015H69.3115V176.146H68.961V176.234H68.8295V176.365H68.6104V176.453H68.4789V176.584H68.2598V176.672H68.1722V176.804H68.0407V176.891H67.9093V176.979H67.8216V177.11H67.6902V177.198H67.5587V177.329H67.4711V177.548H67.3396V177.636H67.252V177.855H67.1205V178.074H66.989V178.293H66.9014V178.513H66.7699V178.819H66.6385V179.257H66.5508V180.572H66.6385V181.01H66.7699V181.317H66.9014V181.536H66.989V181.887H67.1205V181.974H67.252V182.193H67.3396V182.281H67.4711V182.5H67.5587V182.632H67.6902V182.719H67.8216V182.851H67.9093V182.938H68.0407V183.07H68.1722V183.157H68.2598V183.289H68.3913V183.377H68.6104V183.508H68.7419V183.596H68.961V183.727H69.1801V183.815H69.5306V183.946H69.8812V184.034H70.2318V184.122H71.8093V184.034H72.2913V183.946H72.6419V183.815H72.861V183.727H73.0801V183.596H73.343V183.508H73.4307V183.377H73.6498V183.289H73.7812V183.157H74.0003V183.07H74.1318V182.938H74.2633V182.851H74.3509V182.719H74.4824V182.5H74.57V182.413H74.7015V182.281H74.8329V182.106H74.9206V181.887H75.052V181.668H75.1835V181.448H75.2711V181.229H75.4026V180.572H75.4902V179.389H75.4026V178.732H75.2711V178.425H75.1835V178.206H75.052V177.987H74.9206V177.768H74.8329V177.636H74.7015V177.417H74.57V177.329H74.4824V177.198H74.3509V177.11H74.2633V176.979H74.1318V176.891H74.0003V176.804H73.9127V176.672H73.7812V176.584H73.6498V176.453H73.4307V176.365H73.343V176.234H73.0801V176.146H72.861V176.015H72.5104V175.927H72.2913V175.796H71.3711V175.708H70.67V175.796Z" fill="#E41113"/>
<path fill-rule="evenodd" clip-rule="evenodd" d="M108.268 172.465H108.005V172.553H107.918V172.684H107.786V172.772H107.655V172.903H107.567V173.123H107.436V186.838H107.567V187.057H107.655V187.189H107.786V187.277H107.918V187.408H108.137V187.496H108.356V187.583H110.196V187.496H110.547V187.408H110.766V187.277H110.897V187.189H111.029V186.97H111.117V186.751H111.248V173.21H111.117V172.991H111.029V172.772H110.897V172.684H110.766V172.553H110.678V172.465H110.415V172.334H108.268V172.465Z" fill="white"/>
</svg>
