<svg width="18" height="19" viewBox="0 0 18 19" fill="none" xmlns="http://www.w3.org/2000/svg">
<path d="M14.8738 18.1178H3.12602C1.50264 18.1178 0.176392 16.7915 0.176392 15.1681V3.42034C0.176392 1.79695 1.50264 0.470703 3.12602 0.470703H14.8738C16.4972 0.470703 17.8235 1.79695 17.8235 3.42034V15.1681C17.8235 16.7988 16.5044 18.1178 14.8738 18.1178Z" fill="white"/>
<path d="M9.00371 13.8274C7.79342 13.8274 6.6556 13.3563 5.80043 12.5011C4.94525 11.646 4.47418 10.5081 4.47418 9.29784C4.47418 8.08755 4.94525 6.94973 5.80043 6.09456C6.6556 5.23938 7.79342 4.76831 9.00371 4.76831C10.214 4.76831 11.3518 5.23938 12.207 6.09456C13.0622 6.94973 13.5332 8.08755 13.5332 9.29784C13.5332 10.5081 13.0622 11.646 12.207 12.5011C11.3446 13.3563 10.214 13.8274 9.00371 13.8274ZM9.00371 5.7322C7.03971 5.7322 5.43807 7.32659 5.43807 9.29784C5.43807 11.2618 7.03246 12.8635 9.00371 12.8635C10.9677 12.8635 12.5694 11.2691 12.5694 9.29784C12.5621 7.33384 10.9677 5.7322 9.00371 5.7322Z" fill="#0B0B0B"/>
<path d="M14.4161 4.61951C14.8965 4.61951 15.2858 4.23014 15.2858 3.74982C15.2858 3.2695 14.8965 2.88013 14.4161 2.88013C13.9358 2.88013 13.5464 3.2695 13.5464 3.74982C13.5464 4.23014 13.9358 4.61951 14.4161 4.61951Z" fill="#0B0B0B"/>
</svg>
