<svg width="220" height="220" viewBox="0 0 220 220" fill="none" xmlns="http://www.w3.org/2000/svg">
<rect x="0.420253" y="0.420253" width="219.16" height="219.16" rx="58.4152" fill="#F7F4FF"/>
<path d="M205.48 46.6399H14.0802V151.45H144.983L174.984 174.24V151.45H205.48V46.6399Z" fill="#FFDD00"/>
<path d="M50.7975 103.614H36.1549H32.4667H28.7785C28.2831 103.614 27.8978 103.999 27.8978 104.495V136.753C27.8978 137.248 28.2831 137.633 28.7785 137.633H36.1549C36.6503 137.633 37.0356 137.248 37.0356 136.753V126.183H46.9442C47.4396 126.183 47.8249 125.798 47.8249 125.303V118.972C47.8249 118.477 47.4396 118.091 46.9442 118.091H37.0356V112.807H50.7425C51.2379 112.807 51.6232 112.422 51.6232 111.926V104.55C51.6783 103.999 51.2929 103.614 50.7975 103.614Z" fill="#101010" stroke="black" stroke-width="0.311155" stroke-miterlimit="10"/>
<path d="M28.7785 94.5313H36.1549C36.6503 94.5313 37.0356 94.1459 37.0356 93.6505V81.5401H39.733C41.5495 89.0265 48.2653 94.5313 56.3023 94.5313H66.7062C76.1193 94.5313 83.7709 86.8797 83.7709 77.4666C83.7709 68.0534 76.1193 60.4019 66.7062 60.4019H56.3023C48.3204 60.4019 41.6046 65.9066 39.788 73.338H37.0356V61.3377C37.0356 60.8422 36.6503 60.4569 36.1549 60.4569H28.7785C28.2831 60.4569 27.8978 60.8422 27.8978 61.3377V93.5955C27.8978 94.0909 28.2831 94.5313 28.7785 94.5313ZM56.3573 69.7049H66.7062C70.9449 69.7049 74.4679 73.1729 74.4679 77.4115C74.4679 81.6502 70.9999 85.1182 66.7062 85.1182H56.3023C52.0636 85.1182 48.5406 81.6502 48.5406 77.4115C48.5406 73.1729 52.0636 69.7049 56.3573 69.7049Z" fill="#101010" stroke="black" stroke-width="0.311155" stroke-miterlimit="10"/>
<path d="M145.369 58.2549C135.955 58.2549 128.304 65.9065 128.304 75.3196V91.4485C128.304 100.862 135.955 108.513 145.369 108.513C154.782 108.513 162.433 100.862 162.433 91.4485V75.3196C162.433 65.8514 154.782 58.2549 145.369 58.2549ZM153.075 91.4485C153.075 95.6872 149.607 99.2102 145.369 99.2102C141.13 99.2102 137.662 95.7422 137.662 91.4485V75.3196C137.662 71.0809 141.13 67.5579 145.369 67.5579C149.607 67.5579 153.075 71.0259 153.075 75.3196V91.4485Z" fill="#101010" stroke="black" stroke-width="0.311155" stroke-miterlimit="10"/>
<path d="M124.011 60.4568H119.662C118.891 60.4568 118.231 60.7871 117.735 61.3375L115.754 63.6495L106.561 74.2186C106.285 74.5489 105.79 74.5489 105.515 74.2186L96.3218 63.6495L94.3401 61.3375C93.8447 60.7871 93.1291 60.4568 92.4134 60.4568H88.0647C87.5693 60.4568 87.1839 60.8421 87.1839 61.3375V65.5212V93.5953C87.1839 94.0908 87.5693 94.4761 88.0647 94.4761H95.441C95.9365 94.4761 96.3218 94.0908 96.3218 93.5953V77.8518C96.3218 77.2463 97.0925 76.916 97.5329 77.4114L100.616 80.9895L105.405 86.4942C105.46 86.5493 105.515 86.6043 105.57 86.6043C105.625 86.6594 105.68 86.6594 105.735 86.7144C105.79 86.7144 105.845 86.7695 105.9 86.7695C105.955 86.7695 106.01 86.7695 106.065 86.7695C106.12 86.7695 106.175 86.7695 106.23 86.7695C106.285 86.7695 106.34 86.7695 106.395 86.7144C106.451 86.7144 106.506 86.6594 106.561 86.6043C106.616 86.5493 106.671 86.5493 106.726 86.4942L111.515 80.9895L114.598 77.4114C115.038 76.916 115.809 77.2463 115.809 77.8518V93.5403C115.809 94.0357 116.194 94.4211 116.689 94.4211H124.066C124.561 94.4211 124.946 94.0357 124.946 93.5403V65.4661V61.2825C124.946 60.8421 124.506 60.4568 124.011 60.4568Z" fill="#101010" stroke="black" stroke-width="0.311155" stroke-miterlimit="10"/>
<path d="M179.994 60.4568H166.728C166.232 60.4568 165.847 60.8421 165.847 61.3375V93.5953C165.847 94.0908 166.232 94.4761 166.728 94.4761H174.049C174.544 94.4761 174.93 94.0908 174.93 93.5953V84.0171H179.939C186.435 84.0171 191.719 78.7325 191.719 72.2369C191.774 65.7413 186.49 60.4568 179.994 60.4568ZM179.994 75.9802H174.985V68.4937H179.994C182.086 68.4937 183.737 70.2002 183.737 72.2369C183.737 74.3287 182.031 75.9802 179.994 75.9802Z" fill="#101010" stroke="black" stroke-width="0.311155" stroke-miterlimit="10"/>
<path d="M101.331 103.614H100.175H97.1473C96.4316 103.614 95.7711 103.834 95.2206 104.275L79.0366 117.706C78.8165 117.871 78.4862 117.871 78.266 117.706L62.082 104.275C61.5316 103.834 60.871 103.614 60.1554 103.614H57.1278H55.9718C55.4763 103.614 55.091 103.999 55.091 104.495V136.753C55.091 137.248 55.4763 137.633 55.9718 137.633H63.3481C63.8435 137.633 64.2289 137.248 64.2289 136.753V118.147C64.2289 117.541 64.9445 117.211 65.3849 117.596L78.0458 128.11C78.0458 128.11 78.1008 128.165 78.1559 128.165C78.2109 128.22 78.266 128.22 78.321 128.275C78.3761 128.275 78.4311 128.33 78.4862 128.33C78.5412 128.33 78.5963 128.33 78.6513 128.33C78.7064 128.33 78.7614 128.33 78.8165 128.33C78.8715 128.33 78.9266 128.33 78.9816 128.275C79.0366 128.275 79.0917 128.22 79.1467 128.165C79.2018 128.165 79.2018 128.165 79.2568 128.11L91.9178 117.596C92.3581 117.211 93.0737 117.541 93.0737 118.147V136.753C93.0737 137.248 93.4591 137.633 93.9545 137.633H101.331C101.826 137.633 102.212 137.248 102.212 136.753V104.495C102.267 103.999 101.826 103.614 101.331 103.614Z" fill="#101010" stroke="black" stroke-width="0.311155" stroke-miterlimit="10"/>
<path d="M173.058 132.954H173.003C171.627 132.954 170.471 134.11 170.471 135.487C170.471 136.863 171.627 138.019 173.003 138.019H173.058C174.434 138.019 175.59 136.863 175.59 135.487C175.59 134.11 174.489 132.954 173.058 132.954Z" fill="#101010" stroke="black" stroke-width="0.311155" stroke-miterlimit="10"/>
<path d="M131.166 118.257V137.633H125.937V122.605H123.074V118.202H131.166V118.257Z" fill="#101010" stroke="black" stroke-width="0.311155" stroke-miterlimit="10"/>
<path d="M134.304 128C134.304 121.78 137.607 117.816 142.781 117.816C147.956 117.816 151.258 121.78 151.258 128C151.258 134.221 147.901 138.184 142.781 138.184C137.662 138.184 134.304 134.221 134.304 128ZM145.974 128C145.974 124.422 144.818 122.44 142.781 122.44C140.744 122.44 139.588 124.422 139.588 128C139.588 131.578 140.744 133.56 142.781 133.56C144.873 133.56 145.974 131.578 145.974 128Z" fill="#101010" stroke="black" stroke-width="0.311155" stroke-miterlimit="10"/>
<path d="M160.562 124.917C164.91 124.917 167.883 127.56 167.883 131.358C167.883 135.321 164.855 138.129 160.617 138.129C156.378 138.129 153.406 135.321 153.406 131.413H158.36C158.36 132.734 159.296 133.67 160.617 133.67C161.883 133.67 162.819 132.679 162.819 131.358C162.819 129.982 161.828 128.991 160.397 128.991H154.341L153.846 128.33L154.947 118.202H166.452V122.605H158.965L158.745 124.807L160.562 124.917Z" fill="#101010" stroke="black" stroke-width="0.311155" stroke-miterlimit="10"/>
<path d="M191.774 118.257V119.027L184.398 137.689H178.948L184.893 122.826H176.911V118.257H191.774Z" fill="#101010" stroke="black" stroke-width="0.311155" stroke-miterlimit="10"/>
<rect x="0.420253" y="0.420253" width="219.16" height="219.16" rx="58.4152" stroke="#DDD9E9" stroke-width="0.840506"/>
</svg>
