<svg width="220" height="220" viewBox="0 0 220 220" fill="none" xmlns="http://www.w3.org/2000/svg">
<rect x="0.420253" y="0.420253" width="219.16" height="219.16" rx="58.4152" fill="#F7F4FF"/>
<path fill-rule="evenodd" clip-rule="evenodd" d="M173.494 120.753C173.756 119.778 174.093 118.879 174.318 117.941C174.581 117.004 174.881 116.18 175.143 115.243C175.63 113.481 176.267 111.607 176.755 109.808L184.589 109.845L181.29 120.753H173.494ZM162.474 126L184.738 126.038C185.563 126.038 186.725 125.663 187.437 125.326C189.011 124.576 189.986 123.227 190.511 121.615C190.661 121.202 190.736 120.715 190.886 120.303C191.036 119.853 191.148 119.441 191.298 118.991C191.823 117.229 192.422 115.468 192.91 113.743C193.247 112.506 194.372 109.395 194.372 108.383C194.372 107.484 194.484 106.734 193.884 105.947C193.659 105.647 193.285 105.347 192.91 105.197C191.186 104.373 188.412 104.56 186.538 104.56C180.728 104.56 174.768 104.485 168.996 104.56C168.771 104.898 165.36 116.442 164.91 117.979L163.261 123.376C163.111 123.751 162.474 125.738 162.474 126Z" fill="#040000"/>
<path fill-rule="evenodd" clip-rule="evenodd" d="M26.6744 115.28C26.7869 114.793 26.9743 114.418 27.1242 113.893L27.9863 111.157C28.0988 110.782 28.3611 110.145 28.3986 109.77C30.3102 109.77 32.1844 109.77 34.096 109.77C34.9956 109.77 36.27 109.545 36.0826 110.482C35.9701 110.895 35.5953 112.282 35.4079 112.619C35.183 112.994 35.033 113.031 34.5458 113.181C33.4588 113.556 27.1242 115.093 26.6744 115.28ZM14.1177 125.888V126H23.4884C23.6758 125.55 23.9007 124.688 24.0506 124.201C24.2381 123.564 24.4255 122.927 24.6129 122.327C24.6878 122.102 25.7374 118.429 25.8123 118.541L28.7734 118.504C29.1483 119.028 29.3732 119.778 29.673 120.34C30.0104 120.977 30.2353 121.577 30.5726 122.252L32.3718 126.038H42.8294C42.2672 124.801 41.4426 123.339 40.8054 122.027C40.6554 121.69 38.8188 118.166 38.7813 117.941C39.1186 117.829 39.5684 117.829 39.9807 117.717C40.8054 117.529 41.3301 117.379 42.0798 116.967C43.9164 115.992 44.2912 114.381 44.816 112.544C45.6781 109.583 47.4398 105.722 43.3542 104.748C41.8924 104.41 39.5684 104.523 37.8817 104.523C32.1094 104.523 26.3746 104.523 20.6022 104.523L14.0803 125.85C14.1177 125.85 14.1177 125.888 14.1177 125.888Z" fill="#040000"/>
<path fill-rule="evenodd" clip-rule="evenodd" d="M75.4396 159.322C75.4396 158.76 75.7395 157.448 75.8894 156.848C76.3767 154.937 77.1263 151.863 77.8385 150.139C78.5882 148.34 79.038 147.665 81.062 147.553C82.4864 147.478 85.5225 147.14 85.5225 148.79V149.764C85.5225 150.551 84.6604 153.475 84.398 154.449C83.9857 155.949 83.5734 157.411 82.9736 158.835C82.2615 160.522 81.8492 161.121 79.6752 161.346C78.8131 161.459 77.6511 161.421 76.864 161.271C75.4771 161.084 75.4396 160.597 75.4396 159.322ZM76.2642 164.12H79.1879C79.2629 164.082 80.7247 163.895 80.9871 163.82C82.7487 163.37 83.7608 162.658 84.8853 161.234C86.0097 159.772 86.9093 157.223 87.509 155.237C88.1462 153.138 88.8959 150.439 88.7085 147.927C88.4836 145.304 86.0097 144.741 83.2735 144.741C80.9496 144.741 78.2508 145.079 76.6766 146.728C75.3647 148.077 74.4276 150.364 73.7529 152.425C73.4156 153.55 73.1157 154.599 72.8158 155.761C72.5535 156.886 72.2161 158.273 72.2161 159.51C72.2161 161.459 72.4035 162.958 74.4276 163.708C75.2897 164.045 76.0019 163.97 76.2642 164.12Z" fill="#040000"/>
<path fill-rule="evenodd" clip-rule="evenodd" d="M119.444 147.553C119.857 147.478 119.519 147.478 120.156 147.478C120.869 147.478 121.656 147.44 122.368 147.59C122.668 147.665 123.23 147.89 123.417 148.077C123.605 148.302 123.68 148.865 123.68 149.277C123.642 150.926 122.443 154.712 121.918 156.586C121.693 157.373 121.431 158.085 121.131 158.797C120.456 160.559 119.894 161.196 117.795 161.421C117.045 161.496 115.509 161.459 114.834 161.346C114.422 161.271 114.009 161.121 113.822 160.859C112.997 159.697 114.234 155.986 114.572 154.674C115.059 152.763 115.771 149.652 117.12 148.265C117.908 147.403 119.182 147.59 119.444 147.553ZM114.309 164.12H117.233C117.495 163.97 118.882 164.12 120.644 163.258C121.656 162.771 122.293 162.096 122.93 161.271C123.305 160.822 123.455 160.447 123.717 159.959C125.142 157.486 127.128 150.664 126.753 148.002C126.566 146.728 126.191 146.016 125.067 145.416C122.93 144.292 116.746 144.404 114.759 146.728C114.084 147.515 113.485 148.152 112.997 149.239C111.798 151.901 110.299 156.736 110.224 159.435C110.149 160.896 110.411 162.058 111.123 162.846C111.461 163.22 111.873 163.483 112.398 163.67C112.622 163.745 112.96 163.858 113.26 163.895L114.197 164.045C114.272 164.082 114.272 164.082 114.309 164.12Z" fill="#040000"/>
<path fill-rule="evenodd" clip-rule="evenodd" d="M92.944 156.511C93.0939 156.174 93.2064 156.136 93.4312 155.874C94.5932 154.675 96.7297 152.126 97.9292 150.701C98.304 150.214 100.366 147.89 100.553 147.853C100.478 148.003 98.229 156.174 98.1915 156.549L92.944 156.511ZM88.3711 158.685C88.3711 159.585 88.9333 159.51 90.1328 159.51C91.7445 159.51 96.2799 159.397 97.292 159.547C97.292 159.885 97.1045 160.334 97.0296 160.634L96.13 163.895C100.028 163.933 99.2785 164.158 100.291 160.859C100.403 160.522 100.59 159.885 100.628 159.547H102.689C102.802 159.322 103.214 157.861 103.289 157.486C103.552 156.361 102.427 156.586 101.49 156.586C101.565 155.949 103.364 149.652 103.627 148.602C103.889 147.553 104.339 146.541 104.339 145.679C104.339 144.967 103.739 145.042 103.139 145.042C100.665 145.042 99.6159 144.704 98.4914 146.091C98.3415 146.278 98.1915 146.391 98.0416 146.541C97.292 147.365 96.5798 148.34 95.7926 149.09L93.5812 151.526C93.3938 151.751 93.2813 151.826 93.0939 152.051C92.794 152.388 92.5317 152.763 92.1943 153.063C92.0069 153.25 91.9319 153.325 91.7445 153.55L90.3952 155.087C90.0953 155.387 90.2077 155.199 89.9454 155.574L89.0458 156.586C88.671 156.998 88.3711 158.498 88.3711 158.685Z" fill="#040000"/>
<path fill-rule="evenodd" clip-rule="evenodd" d="M59.3968 140.281H63.295C63.4075 139.869 63.5574 139.381 63.7073 138.969L64.5319 136.345C64.6444 135.933 64.8693 135.371 64.9442 134.996C65.2066 135.108 65.2441 135.258 65.469 135.596L68.5051 140.244H71.7661C71.916 140.206 71.841 140.131 72.0285 139.681C72.1034 139.456 72.1784 139.269 72.2534 139.044C72.4033 138.594 72.5157 138.182 72.6657 137.732C72.9655 136.795 73.2279 136.008 73.4903 135.108C74.0525 133.384 74.6148 131.623 75.177 129.861H71.2788L70.6791 131.81C70.6041 132.035 70.5292 132.26 70.4542 132.485L69.817 134.434C69.742 134.659 69.7045 134.921 69.5921 135.146C69.3672 134.996 66.7434 130.835 66.2936 130.198C66.1812 130.011 66.1812 129.973 65.9938 129.898H62.7328L59.3968 140.281Z" fill="#040000"/>
<path fill-rule="evenodd" clip-rule="evenodd" d="M36.1574 136.645C36.3448 136.083 36.4948 135.633 36.6447 135.146L37.6192 132.072H42.1921L40.7303 136.683C40.5804 137.095 40.393 137.807 40.243 138.182H35.6701L36.1574 136.645ZM31.0598 140.281H40.1681C41.4425 140.281 41.1801 140.131 42.5295 139.606C42.8668 139.456 43.2042 139.269 43.5415 139.157C44.0663 138.932 43.8788 139.082 44.1412 138.22C44.3661 137.47 44.666 136.645 44.8909 135.896C45.1158 135.221 45.4531 134.284 45.6405 133.572C45.8279 132.859 46.2402 131.96 46.3527 131.248C46.2402 131.098 46.0903 131.023 45.8654 130.91C43.4665 129.561 45.1907 129.898 41.0302 129.898C38.8936 129.898 36.4198 129.786 34.3208 129.898C33.796 131.66 33.1588 133.347 32.6715 135.033C32.4092 135.933 32.1468 136.72 31.8469 137.62L31.0598 140.281Z" fill="#040000"/>
<path fill-rule="evenodd" clip-rule="evenodd" d="M158.313 138.107C158.388 137.695 158.613 137.02 158.763 136.608L160.188 132.035H164.76L162.811 138.107H158.313ZM154.115 138.894C154.303 139.082 154.978 139.494 155.202 139.644C155.465 139.794 156.139 140.281 156.477 140.281H163.336C163.673 140.281 164.686 139.719 165.098 139.569C165.398 139.457 165.623 139.344 165.922 139.194C166.335 139.007 166.41 139.082 166.56 138.594L168.059 133.909C168.171 133.572 168.246 133.272 168.359 132.935C168.471 132.597 168.546 132.372 168.659 132.035C168.996 130.985 168.921 131.285 168.321 130.91L167.197 130.198C166.785 129.936 166.822 129.898 166.222 129.898H160.038C159.213 129.898 159.138 130.086 158.164 130.498C157.864 130.611 157.639 130.761 157.301 130.91C156.252 131.36 156.739 130.91 155.915 133.272L154.115 138.894Z" fill="#040000"/>
<path fill-rule="evenodd" clip-rule="evenodd" d="M82.7111 81.2835L91.0323 87.2432C91.2946 87.1308 93.6186 83.0452 93.806 82.7078L96.2049 78.6597C96.3173 78.4348 96.5047 78.2474 96.4298 78.06C94.743 77.6102 91.6695 76.4482 89.8328 75.886C89.0832 75.6611 88.2211 75.2863 87.5464 75.1738C86.7218 76.1484 85.9346 77.1979 85.11 78.2474C84.6977 78.7722 84.3229 79.2594 83.9106 79.7842C83.6482 80.0466 82.8236 80.9836 82.7111 81.2835Z" fill="#004989"/>
<path fill-rule="evenodd" clip-rule="evenodd" d="M51.6759 135.783C51.7133 135.671 53.3251 133.609 53.55 133.572C53.55 133.946 53.8124 135.408 53.9248 135.783H51.6759ZM43.842 140.281H47.7777C48.04 140.244 49.6893 137.882 49.9142 137.845H54.4121C54.5245 138.182 54.637 138.669 54.7119 139.044C54.7869 139.494 54.9368 139.869 54.9743 140.281H58.7975L56.3612 129.898L52.9128 129.861L51.7883 131.135C50.289 132.747 48.7522 134.659 47.2529 136.308C46.8781 136.795 44.0294 139.944 43.842 140.281Z" fill="#040000"/>
<path fill-rule="evenodd" clip-rule="evenodd" d="M70.9041 74.0868C71.1665 74.0868 71.4289 73.712 71.7288 73.3372L73.6404 71.1257C73.7153 71.0507 73.7528 70.9758 73.8278 70.9008C74.0152 70.7134 73.9402 70.8633 74.0152 70.5635L68.6552 68.8018C66.856 68.2021 65.0943 67.6398 63.2952 67.0401C61.5335 66.4404 59.7718 65.8407 57.9726 65.2784C52.6876 63.5542 47.1402 61.5676 41.8176 59.9184C40.918 59.656 40.0559 59.3187 39.1938 59.0563L33.7963 57.2571C33.534 57.1822 31.36 56.5075 31.1351 56.3201H31.0976C31.1726 56.5075 31.0226 56.395 31.3225 56.5075C31.3975 56.545 31.5849 56.5824 31.6598 56.6199C33.1217 57.1072 34.9583 57.8569 36.3077 58.3066L42.7922 60.818C45.6034 61.9425 48.2646 63.1044 51.0009 64.3039C53.6621 65.4658 57.5978 67.265 60.2216 68.6144C60.5964 68.8018 61.0462 68.9892 61.4585 69.1766L67.3808 72.2502C67.8306 72.5126 70.5668 74.0119 70.9041 74.0868Z" fill="#040000"/>
<path fill-rule="evenodd" clip-rule="evenodd" d="M145.457 68.8392C145.344 69.0641 141.521 72.3626 140.772 73.0748L138.71 74.8739C138.485 75.0613 134.699 78.3598 134.624 78.5847L144.37 72.9248C144.895 72.6625 145.344 72.3626 145.832 72.1002L149.43 70.2636C150.03 69.8888 152.391 68.8018 153.141 68.4269L157.676 66.3279C158.163 66.103 158.651 65.8781 159.213 65.6532C159.7 65.4283 160.225 65.2034 160.75 64.9785C161.799 64.5662 162.774 64.1164 163.823 63.6666C165.81 62.8795 168.171 61.83 170.12 61.1178C170.608 60.9304 171.207 60.7055 171.695 60.5181C173.194 59.9184 174.956 59.2812 176.492 58.7189C177.542 58.3066 178.666 57.9693 179.716 57.557L183.014 56.4325C182.677 56.395 174.169 59.2812 173.644 59.4686C167.422 61.6051 161.087 63.5917 154.865 65.7282L146.656 68.4269C146.319 68.5394 145.757 68.6893 145.457 68.8392Z" fill="#040000"/>
<path fill-rule="evenodd" clip-rule="evenodd" d="M68.73 147.965C68.6925 148.415 65.2441 160.559 64.8693 162.133C64.382 164.195 64.532 163.895 67.4931 163.895L67.7555 163.858L69.3672 157.973C69.6671 156.998 69.892 156.024 70.1544 155.049C70.4542 154.075 70.6791 153.1 70.9415 152.126C71.4662 150.139 72.0285 148.19 72.5532 146.278C72.9656 144.667 72.1035 144.966 70.3043 144.966C69.0674 144.966 67.8304 144.966 66.556 144.966C66.4811 145.491 65.9188 147.065 66.0313 147.478C66.2562 148.227 67.9429 147.965 68.73 147.965Z" fill="#040000"/>
<path fill-rule="evenodd" clip-rule="evenodd" d="M76.3763 77.3103L78.7003 78.7721C79.0001 78.9595 79.2625 79.072 79.5249 79.2594C80.0496 79.5967 80.6119 79.9715 81.0992 80.2714C81.6239 80.5713 82.2236 81.096 82.7109 81.2834C82.8234 80.9836 83.648 80.0465 83.9104 79.7092C84.3227 79.1844 84.6975 78.6971 85.1098 78.1724C85.9344 77.1229 86.7215 76.0734 87.5462 75.0988C87.2463 74.9114 86.3092 74.649 85.9344 74.5366C85.4097 74.3492 84.7724 74.1617 84.2477 73.9743L80.8368 72.8499C80.9117 72.9248 80.7618 72.8873 81.0242 72.9998L78.138 75.736C77.8007 76.0359 76.6762 77.2353 76.3763 77.3103Z" fill="#81B021"/>
<path fill-rule="evenodd" clip-rule="evenodd" d="M148.231 140.281H152.167C152.241 139.681 155.315 130.761 155.465 129.898H151.567C151.042 131.623 150.442 133.384 149.918 135.071C149.655 135.933 149.393 136.833 149.093 137.657L148.231 140.281Z" fill="#040000"/>
<path fill-rule="evenodd" clip-rule="evenodd" d="M70.9035 74.0868C71.016 74.2368 73.4148 75.5487 73.6397 75.6986L75.6638 76.8606C75.8887 76.973 76.1511 77.1604 76.376 77.2729C76.6758 77.1979 77.8003 76.0359 78.1002 75.7361L80.9863 72.9998C80.724 72.8874 80.8739 72.9249 80.7989 72.8499C80.2742 72.625 79.7119 72.4751 79.1497 72.2877C78.55 72.1003 78.0252 71.9129 77.463 71.7254C76.9382 71.5755 76.3385 71.3506 75.7762 71.1632C75.1765 70.9758 74.6143 70.7884 74.052 70.5635C73.9771 70.8259 74.052 70.6759 73.8646 70.9008C73.7897 70.9758 73.7522 71.0133 73.6772 71.1257L71.7656 73.3372C71.3908 73.712 71.1659 74.0868 70.9035 74.0868Z" fill="#445B0F"/>
<path fill-rule="evenodd" clip-rule="evenodd" d="M197.521 100.774C197.521 99.8748 198.195 98.8627 198.72 98.3754C201.082 96.164 205.055 97.8132 205.092 101.112C205.092 102.274 204.642 103.136 204.043 103.773C202.656 105.272 200.257 105.385 198.72 103.923C197.633 102.836 197.521 102.086 197.521 100.774ZM206.142 101.711V100.549L206.067 100.362C205.729 98.9752 205.58 98.6003 204.493 97.4759C203.256 96.2389 200.969 95.8641 199.17 96.7262C198.645 96.9886 198.121 97.3634 197.783 97.7008C195.947 99.5749 195.984 102.461 197.708 104.523C197.896 104.747 198.758 105.347 199.058 105.497C200.22 106.097 201.719 106.172 202.993 105.722C203.406 105.572 204.193 105.122 204.493 104.822C205.13 104.26 205.13 104.148 205.542 103.473C205.992 102.761 206.067 101.861 206.142 101.711Z" fill="#040000"/>
<path fill-rule="evenodd" clip-rule="evenodd" d="M200.481 99.5374C201.231 99.4999 202.543 99.3125 202.43 100.137C202.355 100.887 201.194 100.774 200.444 100.737L200.481 99.5374ZM202.318 101.487C202.468 101.337 202.768 101.337 202.993 101.149C203.18 100.999 203.368 100.812 203.442 100.549C203.63 99.9497 203.442 99.2751 203.105 98.9752C202.468 98.3755 200.481 98.5629 199.319 98.5629V103.735H200.406V101.599C201.531 101.524 201.568 102.274 202.693 103.698H203.892C203.892 103.473 203.705 103.286 203.555 103.061C203.405 102.836 203.293 102.648 203.18 102.461C202.918 102.011 202.768 101.861 202.318 101.487Z" fill="#040000"/>
<path fill-rule="evenodd" clip-rule="evenodd" d="M107.637 78.0225C107.824 78.0975 108.162 78.0975 108.349 78.135C108.649 78.1724 108.799 78.2099 109.061 78.2849C109.511 78.3973 109.923 78.5473 110.298 78.7722L112.847 74.6491C112.735 74.5366 112.697 74.5366 112.51 74.4242C112.397 74.3492 112.285 74.2742 112.172 74.2368C111.947 74.1243 111.648 73.9369 111.385 73.8994C111.198 74.0119 110.636 74.6866 110.448 74.9114C110.298 75.0989 110.111 75.2488 109.961 75.4362C109.774 75.6611 109.699 75.7361 109.474 75.961L107.637 78.0225Z" fill="#96005B"/>
<path fill-rule="evenodd" clip-rule="evenodd" d="M103.477 163.895C105.838 163.933 106.663 164.232 107.113 162.696C107.225 162.358 107.6 161.046 107.6 160.709C105.388 160.672 104.451 160.409 104.039 161.871C103.814 162.433 103.477 163.408 103.477 163.895Z" fill="#040000"/>
<path fill-rule="evenodd" clip-rule="evenodd" d="M144.22 115.243C144.37 115.018 144.557 114.231 144.67 113.893L145.794 110.37C145.869 110.108 145.869 109.845 146.132 109.845H152.916C153.778 109.845 153.666 110.332 153.478 110.97C153.028 112.544 153.066 113.031 151.904 113.331C149.767 113.781 146.057 114.905 144.22 115.243ZM131.663 126H141.072L142.796 120.378C142.946 119.891 143.283 118.991 143.358 118.466C146.994 118.466 146.319 118.166 146.881 119.366L149.805 125.55C150.03 125.963 149.917 125.963 150.067 126H160.375L159.401 124.014C159.063 123.339 158.688 122.664 158.388 121.99C158.089 121.315 157.714 120.64 157.376 120.003C157.189 119.628 157.039 119.366 156.852 118.991C156.702 118.654 156.477 118.316 156.327 117.979C157.152 117.604 160.15 117.866 161.687 114.755C161.987 114.118 162.174 113.294 162.399 112.544C163.186 109.883 165.098 105.61 160.975 104.71C159.326 104.335 151.941 104.485 149.693 104.485C145.832 104.485 142.009 104.448 138.148 104.485L136.536 109.845C135.786 112.244 134.774 115.468 134.1 117.941L131.663 126Z" fill="#040000"/>
<path fill-rule="evenodd" clip-rule="evenodd" d="M112.997 120.753C113.147 120.303 113.296 119.816 113.409 119.328C113.784 117.941 116.183 110.332 116.258 109.808H124.166C124.129 110.107 123.492 112.132 123.342 112.581C122.855 114.156 121.168 119.516 120.905 120.753H112.997ZM103.251 122.514C103.251 123.826 103.439 124.613 104.601 125.325C105.2 125.7 106.812 126.038 107.487 126.038H124.166C124.991 126.038 126.153 125.7 126.903 125.363C127.765 124.988 128.365 124.463 128.852 123.864C129.826 122.627 130.351 120.678 130.838 118.991C131.251 117.642 133.912 109.47 133.912 108.346C133.912 107.521 133.987 106.697 133.425 105.947C132.862 105.197 131.963 104.897 131.063 104.71C130.726 104.635 129.789 104.485 129.489 104.485H113.109C112.397 104.485 110.973 104.822 110.335 105.122C108.611 105.984 107.787 107.109 107.187 108.871L105.538 114.193C105.05 115.917 103.251 121.165 103.251 122.514Z" fill="#040000"/>
<path fill-rule="evenodd" clip-rule="evenodd" d="M44.179 126.038H70.7917C70.9791 126 70.9041 126.038 71.0541 125.476L72.4784 120.753H55.2364L56.0235 118.017H69.7796L71.3914 112.544H57.7102C57.8227 112.094 57.9726 111.645 58.1226 111.195C58.235 110.857 58.4599 110.145 58.4974 109.808H75.8143C75.8893 109.396 76.0767 108.871 76.1892 108.458L76.9763 105.797C77.0888 105.385 77.2012 104.898 77.3511 104.523C76.4515 104.448 64.9444 104.523 63.67 104.523H51.6755C50.2512 104.523 50.7385 103.961 49.6515 107.596L48.452 111.532C48.1147 112.806 47.5899 114.268 47.2526 115.505C46.7653 117.267 46.1656 118.991 45.6783 120.753C45.4534 121.577 45.1161 122.514 44.8912 123.339C44.8162 123.939 44.2165 125.551 44.179 126.038Z" fill="#040000"/>
<path fill-rule="evenodd" clip-rule="evenodd" d="M74.7646 122.664C74.7646 124.426 75.6267 125.438 77.3884 125.813C77.7632 125.888 78.5878 126.075 79.0001 126.075H96.3171C97.5915 126.075 99.5031 124.613 100.14 123.301L100.927 120.753C101.152 119.928 101.49 118.953 101.677 118.166H94.443C94.3305 118.354 93.7308 120.565 93.6933 120.79H84.5476C84.66 120.303 84.8474 119.853 84.9599 119.403C85.0723 118.991 85.2222 118.466 85.3722 118.016C85.6345 117.154 85.9344 116.18 86.1968 115.243L87.6586 110.445C87.7336 110.183 87.6961 109.845 87.996 109.845H96.467C96.3546 110.258 95.7174 112.244 95.6799 112.581H103.101C103.289 112.544 103.251 112.394 103.401 112.019C103.739 110.932 104.863 107.821 104.901 107.146C104.938 106.059 104.301 105.197 103.626 104.86C102.727 104.448 101.49 104.56 100.29 104.56C95.4175 104.56 90.5823 104.56 85.7095 104.56C82.561 104.56 80.0122 105.46 78.8877 108.571L76.3389 116.892C75.8141 118.241 74.7646 121.465 74.7646 122.664Z" fill="#040000"/>
<path fill-rule="evenodd" clip-rule="evenodd" d="M126.753 135.783C126.828 135.633 128.252 133.797 128.552 133.534L128.965 135.783H126.753ZM111.798 134.209C111.76 133.834 112.322 132.485 112.435 132.035H116.933C116.858 132.522 116.633 133.047 116.483 133.497C116.22 134.359 116.445 134.209 115.433 134.209C114.234 134.209 113.034 134.209 111.798 134.209ZM105.875 140.281H109.811C109.848 139.981 110.261 138.819 110.373 138.37C110.561 137.732 110.785 137.095 110.973 136.458H112.997L114.271 139.382C114.571 140.094 114.534 140.281 114.834 140.281H122.817C123.042 140.206 123.68 139.344 123.867 139.082C124.017 138.932 124.767 137.92 124.916 137.882C125.066 137.807 129.077 137.807 129.414 137.882C129.527 138.22 129.639 138.707 129.714 139.044C129.789 139.419 129.939 139.869 129.977 140.281H133.725C133.725 139.944 133.275 138.145 133.163 137.657C132.638 135.408 131.963 132.372 131.401 130.198C131.326 129.973 131.401 129.898 131.101 129.898H128.102C127.765 129.898 127.578 130.236 127.428 130.423L125.741 132.335C125.366 132.747 124.916 133.197 124.617 133.609C123.23 135.371 121.131 137.582 119.556 139.419C119.444 139.532 119.369 139.606 119.257 139.719C119.144 139.869 119.144 139.944 118.994 140.094C118.657 139.944 118.394 138.969 118.02 138.257L117.158 136.346C117.307 136.196 119.294 135.333 119.444 135.296C120.081 135.071 119.819 134.996 120.231 133.834C120.344 133.497 120.456 133.234 120.531 132.972C120.606 132.672 121.056 131.473 121.056 131.21L119.594 130.273C119.406 130.161 119.219 130.048 119.069 129.973C118.619 129.711 116.52 129.861 115.808 129.861C113.597 129.861 111.423 129.861 109.211 129.861C109.061 129.898 108.799 130.911 108.761 131.098L107.525 135.034C107.375 135.483 107.225 135.858 107.112 136.308C106.812 137.432 106.1 139.344 105.875 140.281Z" fill="#040000"/>
<path fill-rule="evenodd" clip-rule="evenodd" d="M120.306 77.2354C119.968 77.6477 119.631 78.0975 119.331 78.5098L106.887 94.5898C106.55 95.0021 105.125 96.7638 105.013 97.1012H110.036C110.223 96.8013 110.523 96.6139 110.785 96.314C111.048 96.0516 111.235 95.8267 111.497 95.5644C114.683 92.116 118.357 88.5176 121.543 85.1067C124.316 82.1456 127.353 79.1095 130.164 76.1109L131.588 74.6116C132.038 74.1243 132.525 73.5621 133.012 73.1123C132.937 72.9998 133.087 72.9998 132.937 73.0373C132.225 73.1872 120.456 77.1604 120.306 77.2354Z" fill="#CE7600"/>
<path fill-rule="evenodd" clip-rule="evenodd" d="M96.4299 78.06C96.5049 78.2849 96.3175 78.4348 96.205 78.6597L93.8061 82.7079C93.6187 83.0452 91.2948 87.1308 91.0324 87.2433L94.5183 90.1294C94.9306 90.4293 95.2679 90.8416 95.6803 91.1789C95.7927 90.9166 97.7793 88.7426 98.1916 88.3303C98.3415 88.1803 98.454 88.0304 98.6039 87.8805L100.291 86.0438C100.441 85.8564 100.553 85.7065 100.74 85.5565C101.078 85.2192 102.202 83.8698 102.502 83.7199C102.24 83.2701 101.827 81.9957 101.94 81.2835C102.202 79.7467 103.627 78.8097 105.013 78.3224C105.876 78.0225 106.663 78.0225 107.675 77.9851L109.549 75.886C109.774 75.6611 109.849 75.5862 110.036 75.3613C110.186 75.1739 110.373 75.0239 110.523 74.8365C110.711 74.6116 111.273 73.9744 111.46 73.8245C110.823 73.2997 108.312 72.775 107.187 72.7375C105.538 72.7 104.226 73.2248 102.877 73.787C101.153 74.4992 98.7163 76.3733 97.2545 77.4978C96.9172 77.7602 96.7672 78.06 96.4299 78.06Z" fill="#0E9AD7"/>
<path fill-rule="evenodd" clip-rule="evenodd" d="M132.938 73.0372C133.126 72.9997 132.976 72.9997 133.013 73.1121C132.488 73.5619 132.039 74.1242 131.589 74.6114L130.164 76.1108C127.353 79.1094 124.28 82.1455 121.543 85.1066C118.357 88.555 114.684 92.1158 111.498 95.5642C111.236 95.8266 111.048 96.0515 110.786 96.3139C110.524 96.6137 110.224 96.8012 110.036 97.101C110.636 97.101 112.21 97.176 112.698 97.101C112.922 97.0635 112.922 96.9886 113.072 96.8012L114.009 95.6767C114.572 95.002 115.246 94.1774 115.884 93.5402L120.681 88.8923C121.319 88.4425 123.792 86.1186 125.104 85.219C125.629 84.8442 127.128 83.5698 127.728 83.195L134.55 78.5096C134.625 78.2847 138.411 74.9863 138.636 74.7989L140.697 72.9997C141.447 72.2875 145.27 68.9891 145.382 68.7642L142.234 69.8137C141.147 70.1885 140.135 70.5258 139.085 70.8632L132.938 73.0372Z" fill="#FFEC00"/>
<path fill-rule="evenodd" clip-rule="evenodd" d="M110.298 78.7721C111.198 79.2219 112.247 80.084 112.36 81.2835C112.472 82.5204 111.76 83.9447 111.198 84.6194C110.148 86.0063 108.911 87.1683 107 87.2807C106.175 87.3182 105.65 86.9434 105.238 86.8309C104.788 87.693 103.177 90.1669 102.539 91.2164L100.515 94.4774C100.365 94.7397 99.9156 95.3395 99.8781 95.5269C100.14 95.7893 100.365 96.0141 100.553 96.314L101.227 97.1011H104.976C105.088 96.8013 106.513 95.0021 106.85 94.5898L119.294 78.5098C119.631 78.0975 119.931 77.6477 120.269 77.2354C119.931 77.2728 119.369 77.4977 118.994 77.6102C118.544 77.7226 118.132 77.9475 117.72 78.0225L115.358 76.2608C114.946 75.9609 114.571 75.6986 114.159 75.3987L112.81 74.6116L110.298 78.7721Z" fill="#E5007B"/>
<path fill-rule="evenodd" clip-rule="evenodd" d="M143.62 138.107H139.047C139.122 137.845 139.234 137.582 139.309 137.32C139.384 137.058 139.459 136.795 139.534 136.57C139.684 136.083 139.872 135.558 140.022 135.034C140.321 134.059 140.696 133.01 140.959 131.998H145.494C145.419 132.447 144.295 135.896 144.07 136.57C143.92 136.945 143.657 137.732 143.62 138.107ZM134.437 140.281C135.036 140.356 142.196 140.281 143.47 140.319C144.632 140.319 144.557 140.169 145.831 139.644C146.206 139.494 146.469 139.344 146.843 139.194C147.368 138.969 147.256 138.894 147.443 138.295L149.317 132.485C149.43 132.11 149.617 131.698 149.655 131.285L147.631 130.011C147.256 129.824 141.896 129.936 141.034 129.936C140.172 129.936 138.485 129.824 137.698 129.973L135.186 137.695C135.074 138.145 134.437 139.906 134.437 140.281Z" fill="#040000"/>
<path fill-rule="evenodd" clip-rule="evenodd" d="M86.8341 140.281H99.2783C99.3158 139.981 99.5032 139.532 99.5782 139.232C99.6906 138.894 99.8031 138.52 99.953 138.182H91.4445C91.5194 137.882 91.6694 137.47 91.7443 137.208C91.8568 136.87 91.9692 136.608 92.0442 136.271H98.941C99.0534 136.046 99.2034 135.483 99.3158 135.184L99.6907 134.059L92.7938 134.022C92.8313 133.722 93.0187 133.347 93.0937 133.047C93.2062 132.71 93.3186 132.41 93.3936 132.073H101.902C102.015 131.885 102.539 130.198 102.577 129.974L90.1326 129.936C89.9452 130.311 86.8716 140.056 86.8341 140.281Z" fill="#040000"/>
<path fill-rule="evenodd" clip-rule="evenodd" d="M73.4904 138.894C73.7903 139.119 75.6269 140.281 76.0018 140.281H85.0351C85.185 140.244 85.26 139.831 85.3724 139.532L85.8972 137.882C86.0096 137.508 86.1221 137.358 86.197 136.983H83.5732L83.2734 137.957H78.2507C78.3257 137.508 78.5506 136.908 78.7005 136.495L80.1623 132.185H85.1475L84.6977 133.684L87.2465 133.722C87.434 133.684 88.5209 130.198 88.5959 129.899C85.7098 129.824 82.5237 129.899 79.6001 129.899C78.8879 129.899 77.0138 130.798 76.3016 131.135C75.9643 131.285 75.8893 131.81 75.7769 132.148C75.552 132.897 75.2896 133.647 75.0272 134.396C74.7648 135.146 74.5024 135.858 74.2775 136.608L73.4904 138.894Z" fill="#040000"/>
<path fill-rule="evenodd" clip-rule="evenodd" d="M95.6427 91.2164C95.9051 91.3663 96.4298 91.9285 96.7672 92.2284C97.2545 92.6407 99.8033 95.302 99.9157 95.5269C99.9907 95.3395 100.403 94.7397 100.553 94.4774L102.577 91.2164C103.214 90.1669 104.826 87.693 105.276 86.8309C105.238 86.7934 105.276 86.7934 105.163 86.7559C104.713 86.3811 104.526 86.4936 103.627 85.519C103.252 85.1067 102.727 84.357 102.465 83.7573C102.165 83.9073 101.04 85.2566 100.703 85.594C100.553 85.7814 100.44 85.9313 100.253 86.0812L98.5664 87.9179C98.4164 88.1053 98.304 88.2178 98.154 88.3677C97.7792 88.7425 95.7551 90.954 95.6427 91.2164Z" fill="#96005B"/>
<rect x="0.420253" y="0.420253" width="219.16" height="219.16" rx="58.4152" stroke="#DDD9E9" stroke-width="0.840506"/>
</svg>
