<svg width="18" height="21" viewBox="0 0 18 21" fill="none" xmlns="http://www.w3.org/2000/svg">
<path d="M13.2909 0.783192L12.7942 0H9.78823V7.05385L9.77799 13.9439C9.78311 13.9951 9.78823 14.0514 9.78823 14.1026C9.78823 15.8277 8.38512 17.2354 6.65427 17.2354C4.92342 17.2354 3.52031 15.8328 3.52031 14.1026C3.52031 12.3775 4.92342 10.9698 6.65427 10.9698C7.01273 10.9698 7.36095 11.0364 7.68356 11.149V7.70907C7.3507 7.65276 7.00761 7.62205 6.65427 7.62205C3.08504 7.62717 0.176392 10.5347 0.176392 14.1077C0.176392 17.6807 3.08503 20.5882 6.65939 20.5882C10.2337 20.5882 13.1424 17.6807 13.1424 14.1077V5.91234C14.438 7.20742 16.1125 8.47179 17.9662 8.87618V5.35949C15.9537 4.4688 13.9515 1.83769 13.2909 0.783192Z" fill="white"/>
</svg>
