<svg width="21" height="19" viewBox="0 0 21 19" fill="none" xmlns="http://www.w3.org/2000/svg">
<path d="M-0.000366211 15.5884C2.17638 15.7109 4.07985 15.2021 5.93621 13.8546C4.06101 13.5342 2.76062 12.6767 2.05388 10.9051C2.60042 10.8297 3.08101 10.9711 3.6464 10.7449C1.79946 9.93454 0.602717 8.71896 0.555601 6.6176C1.13984 6.66471 1.58273 7.05106 2.28004 6.99452C0.583875 5.33605 0.0655957 3.52681 1.13041 1.33122C2.90196 3.36662 4.97506 4.75182 7.50988 5.40201C7.65123 5.43971 7.78314 5.4774 7.92449 5.50567C8.57469 5.65644 9.34739 5.97682 9.74316 5.92971C10.4216 5.8449 9.74317 5.06278 9.91278 4.04508C10.4499 0.878907 13.9365 -0.562833 16.5184 1.29352C17.2723 1.84007 17.8659 1.83064 18.6103 1.50083C18.9967 1.33122 19.3925 1.1616 19.8542 0.963715C19.7505 1.86834 19.0532 2.36776 18.4973 3.03681C19.1286 3.17815 19.6375 2.99911 20.2217 2.81065C20.0238 3.46085 19.5338 3.82835 19.0909 4.18643C18.6292 4.55393 18.4501 4.94028 18.4313 5.54336C18.1486 14.6744 7.77373 21.7323 0.678107 16.1161C-0.00978247 15.5696 0.659253 16.1161 -0.000366211 15.5884Z" fill="white"/>
</svg>
