<svg width="7" height="8" viewBox="0 0 7 8" fill="none" xmlns="http://www.w3.org/2000/svg">
<path d="M2.46374 4.90791C2.50774 5.16791 2.58774 5.39991 2.70374 5.60391C2.81974 5.80791 2.97974 5.97191 3.17574 6.09591C3.36374 6.21191 3.59974 6.27591 3.89174 6.27991C4.08374 6.27591 4.25974 6.24391 4.41174 6.17591C4.57574 6.10391 4.71174 6.00791 4.82774 5.88791C4.94374 5.76791 5.03174 5.62391 5.09574 5.46391C5.15974 5.30391 5.19574 5.13191 5.20374 4.95191H6.63574C6.62374 5.32791 6.54774 5.67191 6.41574 5.98391C6.28374 6.29591 6.09174 6.56391 5.85174 6.79191C5.61174 7.01991 5.32374 7.19191 4.98774 7.31591C4.65174 7.43991 4.27974 7.50391 3.87174 7.50391C3.35174 7.50391 2.89974 7.41591 2.51574 7.23591C2.13174 7.05591 1.81174 6.81191 1.55574 6.49991C1.29974 6.18791 1.10774 5.82791 0.983744 5.41591C0.859744 5.00391 0.799744 4.5679 0.799744 4.1079V3.8879C0.799744 3.4239 0.863743 2.9879 0.987743 2.5759C1.11174 2.1639 1.30374 1.8039 1.55974 1.4959C1.81574 1.1879 2.13574 0.943903 2.52374 0.763904C2.91174 0.583903 3.36374 0.495904 3.88374 0.495904C4.25974 0.495904 4.61174 0.555904 4.93974 0.679904C5.26774 0.803904 5.55574 0.971903 5.80374 1.1879C6.05174 1.4039 6.25174 1.6519 6.39574 1.9399C6.53974 2.2279 6.62374 2.5319 6.63574 2.8599H5.20374C5.19574 2.6919 5.15574 2.5399 5.08374 2.3959C5.01174 2.2519 4.91574 2.1319 4.79574 2.0319C4.67574 1.9319 4.53574 1.8519 4.37574 1.7959C4.22374 1.7439 4.06374 1.7159 3.89174 1.7159C3.60374 1.7239 3.36774 1.7839 3.17574 1.9039C2.97574 2.0319 2.81574 2.1959 2.69974 2.3999C2.58374 2.6039 2.50374 2.8359 2.45974 3.09991C2.41574 3.3639 2.39974 3.6199 2.39974 3.8879V4.1079C2.39974 4.3799 2.41974 4.64791 2.46374 4.90791Z" fill="#8F91D0"/>
</svg>
