<svg width="70" height="101" viewBox="0 0 70 101" fill="none" xmlns="http://www.w3.org/2000/svg">
<path d="M43.6544 79.9176C43.6544 83.2035 46.2948 85.8439 49.5806 85.8439C52.8665 85.8439 55.5069 83.2035 55.5069 79.9176C55.5069 76.6318 52.8665 73.9914 49.5806 73.9914C46.2948 73.9914 43.6544 76.6318 43.6544 79.9176Z" fill="#DFE7EF"/>
<path d="M29.1023 81.2673C29.1023 84.5532 31.7427 87.1936 35.0286 87.1936C38.3144 87.1936 40.9548 84.5532 40.9548 81.2673C40.9548 77.9815 38.3144 75.3411 35.0286 75.3411C31.7427 75.3411 29.1023 77.9815 29.1023 81.2673Z" fill="#DFE7EF"/>
<path d="M58.1474 93.1198C58.1474 96.4057 60.7879 99.0461 64.0737 99.0461C67.3596 99.0461 70 96.4057 70 93.1198C70 89.834 67.3596 87.1935 64.0737 87.1935C60.8465 87.1935 58.1474 89.834 58.1474 93.1198Z" fill="#DFE7EF"/>
<path d="M43.6544 94.4695C43.6544 97.7553 46.2948 100.396 49.5806 100.396C52.8665 100.396 55.5069 97.7553 55.5069 94.4695C55.5069 91.1836 52.8665 88.5432 49.5806 88.5432C46.2948 88.5432 43.6544 91.1836 43.6544 94.4695Z" fill="#DFE7EF"/>
<path d="M58.1474 5.92721C58.1474 9.21306 60.7879 11.8535 64.0737 11.8535C67.3596 11.8535 70 9.21306 70 5.92721C70 2.64135 67.3596 0.000938951 64.0737 0.000938951C60.8465 -0.057737 58.1474 2.64135 58.1474 5.92721Z" fill="#DFE7EF"/>
<path d="M43.6544 7.21806C43.6544 10.5039 46.2948 13.1443 49.5806 13.1443C52.8665 13.1443 55.5069 10.5039 55.5069 7.21806C55.5069 3.9322 52.8665 1.29178 49.5806 1.29178C46.2948 1.29178 43.6544 3.9322 43.6544 7.21806Z" fill="#DFE7EF"/>
<path d="M29.1023 66.3634C29.1023 69.6493 31.7427 72.2897 35.0286 72.2897C38.3144 72.2897 40.9548 69.6493 40.9548 66.3634C40.9548 63.0776 38.3144 60.4372 35.0286 60.4372C31.7427 60.4372 29.1023 63.0776 29.1023 66.3634Z" fill="#DFE7EF"/>
<path d="M29.1023 36.6146C29.1023 39.9005 31.7427 42.5409 35.0286 42.5409C38.3144 42.5409 40.9548 39.9005 40.9548 36.6146C40.9548 33.3287 38.3144 30.6883 35.0286 30.6883C31.7427 30.6883 29.1023 33.3287 29.1023 36.6146Z" fill="#DFE7EF"/>
<path d="M43.6544 21.7698C43.6544 25.0556 46.2948 27.696 49.5806 27.696C52.8665 27.696 55.5069 25.0556 55.5069 21.7698C55.5069 18.4839 52.8665 15.8435 49.5806 15.8435C46.2948 15.7848 43.6544 18.4839 43.6544 21.7698Z" fill="#DFE7EF"/>
<path d="M29.1023 21.7697C29.1023 25.0555 31.7427 27.696 35.0286 27.696C38.3144 27.696 40.9548 25.0555 40.9548 21.7697C40.9548 18.4838 38.3144 15.8434 35.0286 15.8434C31.7427 15.8434 29.1023 18.4838 29.1023 21.7697Z" fill="#DFE7EF"/>
<path d="M14.552 50.8142C14.552 54.1 17.1924 56.7405 20.4783 56.7405C23.7641 56.7405 26.4045 54.1 26.4045 50.8142C26.4045 47.5283 23.7641 44.8879 20.4783 44.8879C17.1924 44.8879 14.552 47.5283 14.552 50.8142Z" fill="#DFE7EF"/>
<path d="M14.552 65.366C14.552 68.6519 17.1924 71.2923 20.4783 71.2923C23.7641 71.2923 26.4045 68.6519 26.4045 65.366C26.4045 62.0802 23.7641 59.4398 20.4783 59.4398C17.1924 59.4398 14.552 62.0802 14.552 65.366Z" fill="#DFE7EF"/>
<path d="M-7.9155e-05 50.8142C-7.9155e-05 54.1 2.64034 56.7405 5.9262 56.7405C9.21205 56.7405 11.8525 54.1 11.8525 50.8142C11.8525 47.5283 9.21205 44.8879 5.9262 44.8879C2.69902 44.8879 -7.9155e-05 47.5283 -7.9155e-05 50.8142Z" fill="#DFE7EF"/>
<path d="M14.552 36.3214C14.552 39.6072 17.1924 42.2476 20.4783 42.2476C23.7641 42.2476 26.4045 39.6072 26.4045 36.3214C26.4045 33.0355 23.7641 30.3951 20.4783 30.3951C17.1924 30.3364 14.552 33.0355 14.552 36.3214Z" fill="#DFE7EF"/>
</svg>
