<svg width="261" height="261" viewBox="0 0 261 261" fill="none" xmlns="http://www.w3.org/2000/svg">
<rect x="0.896289" y="0.895801" width="259.008" height="259.008" rx="19.5041" fill="#F7F4FF"/>
<path d="M243.24 55.5201H17.0401V179.387H171.743L207.199 206.32V179.387H243.24V55.5201Z" fill="#FFDD00"/>
<path d="M60.4326 122.854H43.1276H38.7689H34.4101C33.8246 122.854 33.3692 123.309 33.3692 123.895V162.018C33.3692 162.603 33.8246 163.058 34.4101 163.058H43.1276C43.7131 163.058 44.1685 162.603 44.1685 162.018V149.527H55.8786C56.4641 149.527 56.9195 149.071 56.9195 148.486V141.004C56.9195 140.419 56.4641 139.964 55.8786 139.964H44.1685V133.718H60.3675C60.953 133.718 61.4084 133.263 61.4084 132.677V123.96C61.4735 123.309 61.0181 122.854 60.4326 122.854Z" fill="#101010" stroke="black" stroke-width="0.367163" stroke-miterlimit="10"/>
<path d="M34.4101 112.119H43.1276C43.7131 112.119 44.1685 111.664 44.1685 111.079V96.7662H47.3563C49.5031 105.614 57.44 112.119 66.9382 112.119H79.2338C90.3584 112.119 99.4012 103.077 99.4012 91.952C99.4012 80.8275 90.3584 71.7847 79.2338 71.7847H66.9382C57.505 71.7847 49.5682 78.2903 47.4213 87.0728H44.1685V72.8906C44.1685 72.3051 43.7131 71.8497 43.1276 71.8497H34.4101C33.8246 71.8497 33.3692 72.3051 33.3692 72.8906V111.013C33.3692 111.599 33.8246 112.119 34.4101 112.119ZM67.0032 82.7791H79.2338C84.2431 82.7791 88.4067 86.8777 88.4067 91.887C88.4067 96.8963 84.3081 100.995 79.2338 100.995H66.9382C61.9289 100.995 57.7653 96.8963 57.7653 91.887C57.7653 86.8777 61.9288 82.7791 67.0032 82.7791Z" fill="#101010" stroke="black" stroke-width="0.367163" stroke-miterlimit="10"/>
<path d="M172.199 69.2473C161.074 69.2473 152.031 78.2901 152.031 89.4147V108.476C152.031 119.601 161.074 128.644 172.199 128.644C183.323 128.644 192.366 119.601 192.366 108.476V89.4147C192.366 78.2251 183.323 69.2473 172.199 69.2473ZM181.306 108.476C181.306 113.485 177.208 117.649 172.199 117.649C167.189 117.649 163.091 113.551 163.091 108.476V89.4147C163.091 84.4054 167.189 80.2418 172.199 80.2418C177.208 80.2418 181.306 84.3403 181.306 89.4147V108.476Z" fill="#101010" stroke="black" stroke-width="0.367163" stroke-miterlimit="10"/>
<path d="M146.957 71.8499H141.818C140.907 71.8499 140.126 72.2402 139.541 72.8907L137.199 75.6231L126.334 88.1139C126.009 88.5042 125.424 88.5042 125.098 88.1139L114.234 75.6231L111.892 72.8907C111.306 72.2402 110.461 71.8499 109.615 71.8499H104.476C103.89 71.8499 103.435 72.3052 103.435 72.8907V77.835V111.014C103.435 111.599 103.89 112.055 104.476 112.055H113.193C113.779 112.055 114.234 111.599 114.234 111.014V92.4076C114.234 91.692 115.145 91.3016 115.665 91.8871L119.308 96.1158L124.968 102.621C125.033 102.686 125.098 102.751 125.163 102.751C125.228 102.817 125.294 102.817 125.359 102.882C125.424 102.882 125.489 102.947 125.554 102.947C125.619 102.947 125.684 102.947 125.749 102.947C125.814 102.947 125.879 102.947 125.944 102.947C126.009 102.947 126.074 102.947 126.139 102.882C126.204 102.882 126.269 102.817 126.334 102.751C126.399 102.686 126.465 102.686 126.53 102.621L132.189 96.1158L135.833 91.8871C136.353 91.3016 137.264 91.692 137.264 92.4076V110.949C137.264 111.534 137.719 111.989 138.305 111.989H147.022C147.608 111.989 148.063 111.534 148.063 110.949V77.77V72.8257C148.063 72.3052 147.543 71.8499 146.957 71.8499Z" fill="#101010" stroke="black" stroke-width="0.367163" stroke-miterlimit="10"/>
<path d="M213.12 71.8499H197.441C196.856 71.8499 196.4 72.3052 196.4 72.8907V111.014C196.4 111.599 196.856 112.055 197.441 112.055H206.094C206.679 112.055 207.135 111.599 207.135 111.014V99.6939H213.055C220.731 99.6939 226.977 93.4485 226.977 85.7718C227.042 78.0952 220.797 71.8499 213.12 71.8499ZM213.12 90.1957H207.2V81.348H213.12C215.592 81.348 217.544 83.3648 217.544 85.7718C217.544 88.244 215.527 90.1957 213.12 90.1957Z" fill="#101010" stroke="black" stroke-width="0.367163" stroke-miterlimit="10"/>
<path d="M120.154 122.854H118.788H115.21C114.364 122.854 113.583 123.114 112.933 123.634L93.8062 139.508C93.546 139.703 93.1557 139.703 92.8954 139.508L73.769 123.634C73.1184 123.114 72.3377 122.854 71.492 122.854H67.9139H66.5477C65.9622 122.854 65.5068 123.309 65.5068 123.895V162.018C65.5068 162.603 65.9622 163.058 66.5477 163.058H75.2652C75.8508 163.058 76.3061 162.603 76.3061 162.018V140.029C76.3061 139.313 77.1519 138.923 77.6723 139.378L92.6352 151.804C92.6352 151.804 92.7003 151.869 92.7653 151.869C92.8304 151.934 92.8955 151.934 92.9605 151.999C93.0256 151.999 93.0906 152.064 93.1557 152.064C93.2207 152.064 93.2858 152.064 93.3508 152.064C93.4159 152.064 93.481 152.064 93.546 152.064C93.6111 152.064 93.6761 152.064 93.7412 151.999C93.8062 151.999 93.8713 151.934 93.9363 151.869C94.0014 151.869 94.0014 151.869 94.0665 151.804L109.029 139.378C109.55 138.923 110.396 139.313 110.396 140.029V162.018C110.396 162.603 110.851 163.058 111.436 163.058H120.154C120.739 163.058 121.195 162.603 121.195 162.018V123.895C121.26 123.309 120.739 122.854 120.154 122.854Z" fill="#101010" stroke="black" stroke-width="0.367163" stroke-miterlimit="10"/>
<path d="M204.923 157.528H204.858C203.231 157.528 201.865 158.894 201.865 160.521C201.865 162.147 203.231 163.513 204.858 163.513H204.923C206.549 163.513 207.915 162.147 207.915 160.521C207.915 158.894 206.614 157.528 204.923 157.528Z" fill="#101010" stroke="black" stroke-width="0.367163" stroke-miterlimit="10"/>
<path d="M155.414 140.158V163.058H149.233V145.297H145.85V140.093H155.414V140.158Z" fill="#101010" stroke="black" stroke-width="0.367163" stroke-miterlimit="10"/>
<path d="M159.122 151.673C159.122 144.321 163.025 139.637 169.141 139.637C175.256 139.637 179.159 144.321 179.159 151.673C179.159 159.024 175.191 163.708 169.141 163.708C163.09 163.708 159.122 159.024 159.122 151.673ZM172.914 151.673C172.914 147.444 171.548 145.102 169.141 145.102C166.734 145.102 165.367 147.444 165.367 151.673C165.367 155.901 166.734 158.243 169.141 158.243C171.613 158.243 172.914 155.901 172.914 151.673Z" fill="#101010" stroke="black" stroke-width="0.367163" stroke-miterlimit="10"/>
<path d="M190.154 148.03C195.293 148.03 198.806 151.152 198.806 155.641C198.806 160.325 195.228 163.643 190.219 163.643C185.209 163.643 181.696 160.325 181.696 155.706H187.551C187.551 157.268 188.657 158.374 190.219 158.374C191.715 158.374 192.821 157.203 192.821 155.641C192.821 154.015 191.65 152.844 189.958 152.844H182.802L182.217 152.063L183.518 140.093H197.115V145.297H188.267L188.007 147.9L190.154 148.03Z" fill="#101010" stroke="black" stroke-width="0.367163" stroke-miterlimit="10"/>
<path d="M227.041 140.158V141.069L218.323 163.123H211.883L218.909 145.558H209.475V140.158H227.041Z" fill="#101010" stroke="black" stroke-width="0.367163" stroke-miterlimit="10"/>
<rect x="0.896289" y="0.895801" width="259.008" height="259.008" rx="19.5041" stroke="#DDD9E9" stroke-width="0.991798"/>
</svg>
