<svg width="261" height="260" viewBox="0 0 261 260" fill="none" xmlns="http://www.w3.org/2000/svg">
<rect x="0.799805" width="260" height="260" rx="20" fill="#E3090F"/>
<path d="M238.44 21.8402H22.6397V237.64H238.44V21.8402Z" fill="#E3090F"/>
<path fill-rule="evenodd" clip-rule="evenodd" d="M127.043 73.2649C126.266 72.6952 125.489 71.8666 123.625 70.5719C119.171 67.5682 113.682 66.0664 107.83 66.0664C93.588 66.0664 81.6768 77.0972 81.6768 91.1835C81.6768 97.8641 84.9395 104.13 88.5646 107.548L112.853 130.283C114.925 132.251 116.944 134.012 119.016 135.98C121.139 138 122.745 140.071 127.25 140.071C131.186 140.071 133.361 137.741 135.07 136.187L153.455 118.994C155.475 117.129 157.391 115.109 159.514 113.349C163.45 110.086 168.37 105.218 170.389 100.609C181.265 75.4918 148.639 54.4659 127.043 73.2649Z" fill="white"/>
<path fill-rule="evenodd" clip-rule="evenodd" d="M73.1326 65.963C69.9217 65.963 65.209 65.5487 62.5161 66.7398C57.2855 69.122 55.1104 86.8335 55.1104 91.9087C55.1104 99.1072 55.5247 103.768 57.5444 110.863C58.1659 112.986 58.9945 115.835 59.9267 117.699C61.1696 120.133 62.4643 121.117 66.0894 121.117C82.4544 121.117 77.9489 121.531 73.754 109.827C68.1609 94.1874 70.9057 76.7349 80.9526 63.4772C83.8009 59.7484 84.1634 59.3859 87.2189 56.4858C91.7762 52.1874 96.9032 48.5105 103.17 45.9211C112.181 42.1924 118.24 41.0012 128.597 41.0012C135.692 41.0012 145.014 43.2799 150.555 45.8175C157.961 49.2355 165.263 54.1036 169.821 59.5931C170.856 60.836 171.788 61.7682 172.772 63.1664C178.676 71.2453 183.026 81.2404 183.026 91.8569C183.026 100.868 181.576 108.377 177.33 116.301C174.222 122.153 178.676 121.065 187.791 121.065C191.675 121.065 193.177 119.822 194.316 117.026C195.352 114.488 196.18 111.951 196.906 109.154C198.459 103.198 199.081 96.7768 198.822 90.3033C198.563 84.1923 197.32 78.1849 195.507 72.799C194.627 70.1578 193.746 67.6202 191.157 66.5844C188.516 65.5487 183.959 66.0148 180.903 65.9112C180.23 64.254 178.055 61.4056 176.915 59.9556C173.446 55.3465 171.892 54.5179 168.37 50.9445C167.853 50.4266 167.438 50.2195 166.869 49.7534C158.22 42.3995 142.528 36.1332 129.115 36.1332H125.335C110.368 36.1332 97.5247 42.037 87.3225 49.7016C85.2509 51.2552 83.8527 52.8089 81.9365 54.5179C79.5543 56.4858 74.4791 63.3218 73.1326 65.963Z" fill="white"/>
<path fill-rule="evenodd" clip-rule="evenodd" d="M141.129 82.1728C132.895 83.2085 130.254 90.4588 123.573 87.0408C119.637 85.0211 113.319 79.1691 105.81 83.9336C100.32 87.4034 99.0775 94.0322 103.635 99.8324L116.064 111.329C117.151 112.262 118.187 113.142 119.223 114.126C120.311 115.162 121.087 116.042 122.278 117.026C128.027 121.894 127.975 120.185 133.309 115.731C136.572 112.987 138.902 110.397 142.735 107.186C143.77 106.306 144.703 105.218 145.738 104.286C148.794 101.541 152.471 98.952 153.144 93.825C154.076 87.0408 148.121 81.2924 141.129 82.1728Z" fill="#E3090F"/>
<path fill-rule="evenodd" clip-rule="evenodd" d="M106.018 157.213C97.7836 158.249 90.844 164.981 92.0351 173.992C93.0191 181.605 100.632 188.079 110.006 186.991C118.084 186.007 125.076 179.171 123.936 170.316C122.952 162.651 115.443 156.022 106.018 157.213Z" fill="white"/>
<path fill-rule="evenodd" clip-rule="evenodd" d="M170.804 180.103L170.752 175.598C172.358 175.598 182.301 175.857 183.389 175.339C184.632 174.717 184.58 173.63 184.58 172.232C184.58 168.192 183.492 168.762 179.453 168.762C177.485 168.762 172.358 168.969 170.752 168.658L170.701 164.204C173.808 163.583 184.321 164.722 186.444 163.945C188.464 163.22 187.791 158.663 187.117 157.938C185.978 156.799 181.783 157.265 179.815 157.265C161.638 157.265 163.399 155.763 163.399 164.412V179.482C163.399 188.441 161.379 186.836 179.608 186.836C187.376 186.836 187.687 187.561 187.687 183.003C187.687 181.553 187.584 180.725 186.548 180.259C185.357 179.793 173.187 180.103 170.804 180.103Z" fill="white"/>
<path fill-rule="evenodd" clip-rule="evenodd" d="M124.298 157.938C124.039 159.337 125.23 160.838 125.852 161.978L138.074 184.557C139.886 187.975 142.993 188.027 144.91 184.661C145.635 183.418 146.308 182.175 146.981 180.88C148.276 178.395 149.726 175.857 151.072 173.423L157.183 162.081C157.857 160.838 159.048 159.388 158.841 157.887C157.287 157.058 152.626 156.799 151.28 158.301C150.244 159.492 143.977 171.766 142.113 175.028L141.543 175.805C141.026 174.355 139.317 171.559 138.488 169.953C137.4 167.933 136.416 166.069 135.329 163.997C134.397 162.288 133.154 159.544 132.118 158.249C130.927 156.903 125.955 156.954 124.298 157.938Z" fill="white"/>
<path fill-rule="evenodd" clip-rule="evenodd" d="M73.5975 180.052C73.3386 175.495 73.5457 165.914 73.5975 160.528C73.5975 157.732 72.7689 157.369 69.9206 157.369C67.124 157.369 66.2954 157.783 66.2954 160.528V180.156C66.2954 187.354 65.415 186.94 73.0796 186.94C77.6888 186.94 82.3497 186.94 86.9588 186.94C89.9625 186.94 90.5839 186.577 90.5839 183.729C90.5839 179.223 89.5482 180.104 80.4335 180.104C78.5692 180.104 75.3065 180.311 73.5975 180.052Z" fill="white"/>
<path fill-rule="evenodd" clip-rule="evenodd" d="M107.053 164.049C95.2453 165.551 97.8347 181.554 109.124 180.207C113.578 179.689 117.255 175.909 116.634 171.093C116.116 167.053 111.921 163.428 107.053 164.049Z" fill="#E3090F"/>
<path fill-rule="evenodd" clip-rule="evenodd" d="M165.782 203.719H165.523V203.874H165.264V203.978H165.109V204.133H164.953V204.392H164.85V204.755H164.694V220.602H164.85V221.016H164.953V221.12H165.109V221.275H165.264V221.379H165.368V221.534H165.626V221.638H168.216V221.534H168.475V221.379H168.63V221.275H168.786V221.12H168.889V220.861H169.044V220.602H169.2V211.539H169.303V211.798H169.459V212.057H169.562V212.316H169.718V212.575H169.873V212.834H169.977V212.937H170.132V213.196H170.287V213.455H170.391V213.714H170.546V213.973H170.65V214.232H170.805V214.491H170.961V214.75H171.064V215.009H171.22V215.268H171.375V215.527H171.478V215.786H171.634V216.044H171.737V216.252H171.893V216.511H172.048V216.769H172.152V217.028H172.307V217.287H172.462V217.546H172.566V217.805H172.721V218.064H172.825V218.323H172.98V218.582H173.136V218.841H173.239V219.1H173.395V219.359H173.55V219.618H173.654V219.877H173.809V220.136H173.913V220.343H174.068V220.602H174.223V220.861H174.327V221.016H174.482V221.12H174.638V221.275H174.741V221.379H174.896V221.534H175.155V221.638H175.414V221.793H176.398V221.638H176.916V221.534H177.072V221.379H177.331V221.275H177.486V221.12H177.589V221.016H177.745V220.757H177.9V220.498H178.004V220.239H178.159V219.98H178.263V219.721H178.418V219.462H178.573V219.204H178.677V219.1H178.832V218.841H178.988V218.582H179.091V218.323H179.247V218.064H179.35V217.805H179.506V217.546H179.661V217.287H179.765V217.028H179.92V216.769H180.075V216.511H180.179V216.252H180.334V216.044H180.438V215.786H180.593V215.527H180.749V215.268H180.852V215.009H181.007V214.75H181.163V214.491H181.266V214.232H181.422V213.973H181.525V213.714H181.681V213.455H181.836V213.196H181.94V212.937H182.095V212.678H182.25V212.419H182.354V212.16H182.509V211.953H182.613V211.694H182.768V211.435H182.924V211.28H183.027V220.861H183.183V221.12H183.338V221.275H183.441V221.379H183.597V221.534H183.856V221.638H186.445V221.534H186.704V221.379H186.859V221.275H186.963V221.12H187.118V221.016H187.274V220.757H187.377V204.496H187.274V204.392H187.118V204.133H186.963V203.978H186.859V203.874H186.601V203.719H186.29V203.615H182.768V203.719H182.509V203.874H182.25V203.978H182.095V204.133H181.94V204.237H181.836V204.496H181.681V204.651H181.525V204.91H181.422V205.169H181.266V205.428H181.163V205.687H181.007V205.894H180.852V206.153H180.749V206.412H180.593V206.671H180.438V206.93H180.334V207.189H180.179V207.448H180.075V207.707H179.92V207.966H179.765V208.224H179.661V208.483H179.506V208.742H179.35V209.001H179.247V209.26H179.091V209.519H178.988V209.778H178.832V209.985H178.677V210.244H178.573V210.503H178.418V210.762H178.263V211.021H178.159V211.28H178.004V211.539H177.9V211.798H177.745V212.057H177.589V212.316H177.486V212.575H177.331V212.834H177.175V213.093H177.072V213.351H176.916V213.61H176.813V213.869H176.657V214.077H176.502V214.335H176.398V214.594H176.243V214.853H176.088V215.009H175.984V214.75H175.829V214.491H175.725V214.232H175.57V213.973H175.414V213.61H175.311V213.351H175.155V213.093H175V212.834H174.896V212.575H174.741V212.316H174.638V212.057H174.482V211.798H174.327V211.539H174.223V211.28H174.068V211.021H173.913V210.762H173.809V210.503H173.654V210.244H173.55V209.985H173.395V209.778H173.239V209.519H173.136V209.26H172.98V209.001H172.825V208.742H172.721V208.483H172.566V208.224H172.462V207.966H172.307V207.707H172.152V207.448H172.048V207.189H171.893V206.93H171.737V206.671H171.634V206.412H171.478V206.153H171.375V205.894H171.22V205.687H171.064V205.428H170.961V205.169H170.805V204.91H170.65V204.755H170.546V204.496H170.391V204.392H170.287V204.133H170.132V203.978H169.873V203.874H169.718V203.719H169.459V203.615H165.782V203.719Z" fill="white"/>
<path fill-rule="evenodd" clip-rule="evenodd" d="M106.744 203.667H106.33V203.823H105.656V203.926H105.397V204.081H104.828V204.185H104.569V204.34H104.31V204.444H104.051V204.599H103.74V204.703H103.481V204.858H103.222V204.962H103.067V205.065H102.808V205.221H102.653V205.324H102.549V205.48H102.29V205.583H102.135V205.739H101.979V205.842H101.876V205.998H101.72V206.101H101.565V206.257H101.461V206.36H101.306V206.516H101.203V206.619H101.047V206.774H100.892V206.878H100.788V207.137H100.633V207.241H100.478V207.396H100.374V207.655H100.219V207.758H100.115V208.017H99.9596V208.276H99.8043V208.535H99.7007V208.794H99.5453V209.053H99.39V209.312H99.2864V209.675H99.131V210.089H99.0275V210.866H98.8721V211.125H98.7167V214.18H98.8721V214.543H99.0275V215.216H99.131V215.423H99.2864V215.941H99.39V216.2H99.5453V216.614H99.7007V216.718H99.8043V216.977H99.9596V217.236H100.115V217.495H100.219V217.598H100.374V217.857H100.478V218.012H100.633V218.271H100.788V218.375H100.892V218.53H101.047V218.634H101.203V218.789H101.306V218.893H101.461V219.048H101.565V219.152H101.72V219.307H101.876V219.411H101.979V219.514H102.135V219.67H102.29V219.773H102.394V219.929H102.653V220.032H102.808V220.188H103.067V220.291H103.222V220.446H103.481V220.55H103.637V220.705H103.896V220.809H104.154V220.964H104.465V221.068H104.828V221.223H105.138V221.327H105.656V221.482H105.915V221.586H106.899V221.689H110.006V221.586H110.835V221.482H111.249V221.327H111.508V221.223H112.078V221.068H112.337V220.964H112.596V220.809H112.855V220.705H113.166V220.55H113.424V220.446H113.528V220.291H113.839V220.188H113.942V220.032H114.253V219.929H114.357V219.773H114.512V219.67H114.616V219.514H114.926V219.411H115.03V219.307H115.185V219.152H115.341V219.048H115.444V218.893H115.6V218.789H115.703V218.634H115.859V218.375H116.014V218.271H116.117V218.116H116.273V217.857H116.428V217.753H116.532V217.495H116.687V217.391H116.791V217.132H116.946V216.873H117.101V216.614H117.205V216.355H117.36V216.096H117.516V215.682H117.619V215.423H117.775V214.957H117.878V214.18H118.034V213.403H118.189V211.85H118.034V211.125H117.878V210.348H117.775V209.934H117.619V209.571H117.516V209.157H117.36V208.95H117.205V208.691H117.101V208.432H116.946V208.173H116.791V207.914H116.687V207.758H116.532V207.499H116.428V207.396H116.273V207.137H116.117V206.982H116.014V206.878H115.859V206.774H115.703V206.516H115.6V206.36H115.444V206.257H115.341V206.101H115.185V205.998H115.03V205.842H114.771V205.739H114.616V205.583H114.512V205.48H114.357V205.324H114.253V205.221H113.942V205.065H113.839V204.962H113.528V204.858H113.269V204.703H113.166V204.599H112.855V204.444H112.596V204.34H112.182V204.185H111.923V204.081H111.508V203.926H111.094V203.823H110.68V203.667H109.903V203.564H106.744V203.667Z" fill="white"/>
<path fill-rule="evenodd" clip-rule="evenodd" d="M146.05 203.719H145.791V203.874H145.532V203.978H145.377V204.133H145.274V204.237H145.118V204.496H144.963V220.757H145.118V221.016H145.274V221.275H145.377V221.379H145.688V221.534H145.947V221.638H148.536V221.534H148.795V221.379H148.95V221.275H149.054V221.12H149.209V220.861H149.313V214.75H156.822V214.594H157.081V214.491H157.237V214.335H157.34V214.232H157.495V214.077H157.651V213.714H157.754V211.539H157.651V211.28H157.495V211.021H157.34V210.917H157.237V210.762H156.926V210.659H149.313V207.81H158.738V207.707H158.997V207.603H159.101V207.448H159.256V207.344H159.412V207.189H159.515V206.93H159.671V204.496H159.515V204.237H159.412V204.133H159.256V203.978H159.101V203.874H158.997V203.719H158.738V203.615H146.05V203.719Z" fill="white"/>
<path fill-rule="evenodd" clip-rule="evenodd" d="M67.436 203.822H67.1771V203.926H67.0735V204.081H66.9181V204.185H66.7628V204.34H66.6592V204.599H66.5038V220.809H66.6592V221.067H66.7628V221.223H66.9181V221.326H67.0735V221.482H67.3325V221.585H67.5914V221.689H69.7665V221.585H70.1808V221.482H70.4397V221.326H70.5951V221.223H70.6987V220.964H70.854V220.705H71.0094V204.703H70.854V204.444H70.6987V204.185H70.5951V204.081H70.4397V203.926H70.2844V203.822H70.0254V203.667H67.436V203.822Z" fill="white"/>
<path fill-rule="evenodd" clip-rule="evenodd" d="M121.71 217.754H121.037V217.857H120.778V218.013H120.622V218.116H120.467V218.272H120.364V218.375H120.208V218.53H120.053V218.789H119.949V219.048H119.794V220.291H119.949V220.706H120.053V220.809H120.208V221.068H120.364V221.223H120.467V221.327H120.778V221.482H120.881V221.586H121.14V221.69H122.798V221.586H123.057V221.482H123.212V221.327H123.471V221.223H123.626V221.068H123.73V220.809H123.885V220.706H123.989V220.447H124.144V219.048H123.989V218.789H123.885V218.53H123.73V218.375H123.626V218.272H123.471V218.116H123.315V218.013H123.057V217.857H122.901V217.754H122.539V217.598H121.71V217.754Z" fill="white"/>
<path fill-rule="evenodd" clip-rule="evenodd" d="M106.744 203.667H106.33V203.823H105.656V203.926H105.397V204.081H104.828V204.185H104.569V204.34H104.31V204.444H104.051V204.599H103.74V204.703H103.481V204.858H103.222V204.962H103.067V205.065H102.808V205.221H102.653V205.324H102.549V205.48H102.29V205.583H102.135V205.739H101.979V205.842H101.876V205.998H101.72V206.101H101.565V206.257H101.461V206.36H101.306V206.516H101.203V206.619H101.047V206.774H100.892V206.878H100.788V207.137H100.633V207.241H100.478V207.396H100.374V207.655H100.219V207.758H100.115V208.017H99.9596V208.276H99.8043V208.535H99.7007V208.794H99.5453V209.053H99.39V209.312H99.2864V209.675H99.131V210.089H99.0275V210.866H98.8721V211.125H98.7167V214.18H98.8721V214.543H99.0275V215.216H99.131V215.423H99.2864V215.941H99.39V216.2H99.5453V216.614H99.7007V216.718H99.8043V216.977H99.9596V217.236H100.115V217.495H100.219V217.598H100.374V217.857H100.478V218.012H100.633V218.271H100.788V218.375H100.892V218.53H101.047V218.634H101.203V218.789H101.306V218.893H101.461V219.048H101.565V219.152H101.72V219.307H101.876V219.411H101.979V219.514H102.135V219.67H102.29V219.773H102.394V219.929H102.653V220.032H102.808V220.188H103.067V220.291H103.222V220.446H103.481V220.55H103.637V220.705H103.896V220.809H104.154V220.964H104.465V221.068H104.828V221.223H105.138V221.327H105.656V221.482H105.915V221.586H106.899V221.689H110.006V221.586H110.835V221.482H111.249V221.327H111.508V221.223H112.078V221.068H112.337V220.964H112.596V220.809H112.855V220.705H113.166V220.55H113.424V220.446H113.528V220.291H113.839V220.188H113.942V220.032H114.253V219.929H114.357V219.773H114.512V219.67H114.616V219.514H114.926V219.411H115.03V219.307H115.185V219.152H115.341V219.048H115.444V218.893H115.6V218.789H115.703V218.634H115.859V218.375H116.014V218.271H116.117V218.116H116.273V217.857H116.428V217.753H116.532V217.495H116.687V217.391H116.791V217.132H116.946V216.873H117.101V216.614H117.205V216.355H117.36V216.096H117.516V215.682H117.619V215.423H117.775V214.957H117.878V214.18H118.034V213.403H118.189V211.85H118.034V211.125H117.878V210.348H117.775V209.934H117.619V209.571H117.516V209.157H117.36V208.95H117.205V208.691H117.101V208.432H116.946V208.173H116.791V207.914H116.687V207.758H116.532V207.499H116.428V207.396H116.273V207.137H116.117V206.982H116.014V206.878H115.859V206.774H115.703V206.516H115.6V206.36H115.444V206.257H115.341V206.101H115.185V205.998H115.03V205.842H114.771V205.739H114.616V205.583H114.512V205.48H114.357V205.324H114.253V205.221H113.942V205.065H113.839V204.962H113.528V204.858H113.269V204.703H113.166V204.599H112.855V204.444H112.596V204.34H112.182V204.185H111.923V204.081H111.508V203.926H111.094V203.823H110.68V203.667H109.903V203.564H106.744V203.667Z" fill="white"/>
<path fill-rule="evenodd" clip-rule="evenodd" d="M107.986 207.758H107.002V207.914H106.64V208.017H106.329V208.173H105.915V208.276H105.811V208.432H105.552V208.535H105.397V208.691H105.138V208.794H104.982V208.95H104.827V209.053H104.724V209.157H104.568V209.312H104.465V209.416H104.309V209.571H104.154V209.83H104.05V209.934H103.895V210.193H103.74V210.451H103.636V210.71H103.481V210.969H103.377V211.332H103.222V211.85H103.066V213.403H103.222V213.921H103.377V214.284H103.481V214.543H103.636V214.957H103.74V215.061H103.895V215.32H104.05V215.423H104.154V215.682H104.309V215.837H104.465V215.941H104.568V216.096H104.724V216.2H104.827V216.355H104.982V216.459H105.138V216.614H105.241V216.718H105.552V216.873H105.656V216.977H105.915V217.132H106.225V217.236H106.64V217.391H107.002V217.495H107.417V217.598H109.333V217.495H109.902V217.391H110.265V217.236H110.576V217.132H110.835V216.977H111.093V216.873H111.249V216.718H111.508V216.614H111.663V216.459H111.922V216.355H112.077V216.2H112.181V216.096H112.336V215.941H112.44V215.682H112.595V215.578H112.751V215.423H112.854V215.216H113.01V214.957H113.165V214.698H113.269V214.439H113.424V214.18H113.527V213.403H113.683V212.005H113.527V211.228H113.424V210.866H113.269V210.607H113.165V210.348H113.01V210.089H112.854V209.934H112.751V209.675H112.595V209.571H112.44V209.416H112.336V209.312H112.181V209.157H112.077V209.053H111.922V208.95H111.767V208.794H111.663V208.691H111.508V208.535H111.249V208.432H111.093V208.276H110.835V208.173H110.576V208.017H110.161V207.914H109.902V207.758H108.815V207.655H107.986V207.758Z" fill="#E41113"/>
<path fill-rule="evenodd" clip-rule="evenodd" d="M83.1276 203.667H82.7133V203.823H82.0401V203.926H81.7294V204.081H81.2115V204.185H80.9526V204.34H80.6418V204.444H80.3829V204.599H80.1239V204.703H79.865V204.858H79.5543V204.962H79.4507V205.065H79.1918V205.221H79.0364V205.324H78.881V205.48H78.6221V205.583H78.4667V205.739H78.3632V205.842H78.2078V205.998H78.1042V206.101H77.9489V206.257H77.7935V206.36H77.6899V206.516H77.5346V206.619H77.3792V206.774H77.2756V206.878H77.1202V207.137H77.0167V207.241H76.8613V207.396H76.7059V207.655H76.6024V207.758H76.447V208.017H76.2916V208.276H76.1881V208.535H76.0327V208.794H75.9291V209.053H75.7738V209.312H75.6184V209.675H75.5148V210.089H75.3595V210.866H75.2041V211.125H75.1005V214.18H75.2041V214.543H75.3595V215.216H75.5148V215.423H75.6184V215.941H75.7738V216.2H75.9291V216.614H76.0327V216.718H76.1881V216.977H76.2916V217.236H76.447V217.495H76.6024V217.598H76.7059V217.857H76.8613V218.012H77.0167V218.271H77.1202V218.375H77.2756V218.53H77.3792V218.634H77.5346V218.789H77.6899V218.893H77.7935V219.048H77.9489V219.152H78.1042V219.307H78.2078V219.411H78.3632V219.514H78.4667V219.67H78.6221V219.773H78.7775V219.929H79.0364V220.032H79.1918V220.188H79.4507V220.291H79.5543V220.446H79.865V220.55H79.9686V220.705H80.2793V220.809H80.5382V220.964H80.7972V221.068H81.2115V221.223H81.4704V221.327H82.0401V221.482H82.299V221.586H83.2312V221.689H86.3903V221.586H87.1671V221.482H87.5814V221.327H87.8403V221.223H88.41V221.068H88.6689V220.964H88.9279V220.809H89.2386V220.705H89.4976V220.55H89.7565V220.446H89.9118V220.291H90.1708V220.188H90.3262V220.032H90.5851V219.929H90.7405V219.773H90.844V219.67H90.9994V219.514H91.2583V219.411H91.4137V219.307H91.5173V219.152H91.6726V219.048H91.828V218.893H91.9316V218.789H92.0869V218.634H92.1905V218.375H92.3459V218.271H92.5012V218.116H92.6048V217.857H92.7602V217.753H92.9155V217.495H93.0191V217.391H93.1745V217.132H93.2781V216.873H93.4334V216.614H93.5888V216.355H93.6924V216.096H93.8477V215.682H94.0031V215.423H94.1067V214.957H94.262V214.18H94.3656V213.403H94.521V211.85H94.3656V211.125H94.262V210.348H94.1067V209.934H94.0031V209.571H93.8477V209.157H93.6924V208.95H93.5888V208.691H93.4334V208.432H93.2781V208.173H93.1745V207.914H93.0191V207.758H92.9155V207.499H92.7602V207.396H92.6048V207.137H92.5012V206.982H92.3459V206.878H92.1905V206.774H92.0869V206.516H91.9316V206.36H91.828V206.257H91.6726V206.101H91.5173V205.998H91.4137V205.842H91.103V205.739H90.9994V205.583H90.844V205.48H90.7405V205.324H90.5851V205.221H90.3262V205.065H90.1708V204.962H89.9118V204.858H89.6529V204.703H89.4976V204.599H89.2386V204.444H88.9279V204.34H88.5654V204.185H88.2546V204.081H87.8403V203.926H87.4778V203.823H87.0635V203.667H86.2349V203.564H83.1276V203.667Z" fill="white"/>
<path fill-rule="evenodd" clip-rule="evenodd" d="M84.3192 207.758H83.387V207.914H82.9727V208.017H82.7137V208.173H82.2994V208.276H82.1441V208.432H81.8851V208.535H81.7298V208.691H81.4708V208.794H81.3673V208.95H81.2119V209.053H81.0565V209.157H80.953V209.312H80.7976V209.416H80.6422V209.571H80.5387V209.83H80.3833V209.934H80.2797V210.193H80.1244V210.451H79.969V210.71H79.8654V210.969H79.7101V211.332H79.5547V211.85H79.4511V213.403H79.5547V213.921H79.7101V214.284H79.8654V214.543H79.969V214.957H80.1244V215.061H80.2797V215.32H80.3833V215.423H80.5387V215.682H80.6422V215.837H80.7976V215.941H80.953V216.096H81.0565V216.2H81.2119V216.355H81.3673V216.459H81.4708V216.614H81.6262V216.718H81.8851V216.873H82.0405V216.977H82.2994V217.132H82.5584V217.236H82.9727V217.391H83.387V217.495H83.8013V217.598H85.6657V217.495H86.2353V217.391H86.6496V217.236H86.9086V217.132H87.1675V216.977H87.4782V216.873H87.5818V216.718H87.8407V216.614H87.9961V216.459H88.255V216.355H88.4104V216.2H88.5658V216.096H88.6694V215.941H88.8247V215.682H88.9283V215.578H89.0837V215.423H89.239V215.216H89.3426V214.957H89.498V214.698H89.6533V214.439H89.7569V214.18H89.9123V213.403H90.0158V212.005H89.9123V211.228H89.7569V210.866H89.6533V210.607H89.498V210.348H89.3426V210.089H89.239V209.934H89.0837V209.675H88.9283V209.571H88.8247V209.416H88.6694V209.312H88.5658V209.157H88.4104V209.053H88.255V208.95H88.1515V208.794H87.9961V208.691H87.8407V208.535H87.5818V208.432H87.4782V208.276H87.1675V208.173H86.9086V208.017H86.4943V207.914H86.2353V207.758H85.1478V207.655H84.3192V207.758Z" fill="#E41113"/>
<path fill-rule="evenodd" clip-rule="evenodd" d="M128.753 203.822H128.443V203.926H128.339V204.081H128.184V204.185H128.028V204.34H127.925V204.599H127.769V220.809H127.925V221.068H128.028V221.223H128.184V221.327H128.339V221.482H128.598V221.586H128.857V221.689H131.032V221.586H131.446V221.482H131.705V221.327H131.861V221.223H132.016V220.964H132.12V220.705H132.275V204.703H132.12V204.444H132.016V204.185H131.861V204.081H131.705V203.926H131.602V203.822H131.291V203.667H128.753V203.822Z" fill="white"/>
</svg>
