<svg width="260" height="260" viewBox="0 0 260 260" fill="none" xmlns="http://www.w3.org/2000/svg">
<rect x="0.495899" y="0.495899" width="259.008" height="259.008" rx="19.5041" fill="#F7F4FF"/>
<path fill-rule="evenodd" clip-rule="evenodd" d="M73.2855 176.984H60.5725C61.948 169.147 70.3261 165.646 74.1191 150.599C79.121 130.675 69.284 117.879 62.3648 111.668C62.3231 111.626 62.9484 133.759 55.9874 147.139C57.9882 139.053 59.1136 129.508 59.1136 119.254C59.1136 90.2017 49.8602 66.6096 38.3976 66.6096C26.9767 66.6096 17.6816 90.16 17.6816 119.254C17.6816 148.306 26.9351 171.898 38.3976 171.898C45.3168 171.898 51.4441 163.27 55.1955 150.057C56.7794 149.057 59.4471 149.015 59.9472 149.015C64.7407 149.015 68.5337 154.976 60.9893 164.979C57.0295 170.773 55.7374 174.316 55.4456 177.025H41.7322C40.3567 177.025 39.523 177.776 39.523 179.026V190.322C36.3552 190.53 33.8126 193.156 33.8126 196.408V196.783H75.4947V179.026C75.4947 177.692 74.7027 176.984 73.2855 176.984ZM42.8576 155.559C37.9391 155.559 33.9793 141.221 33.9793 123.506C33.9793 105.791 37.9391 91.4521 42.8576 91.4521C43.066 91.4521 43.2327 91.4938 43.4412 91.5355C42.2741 87.6174 40.7318 83.991 38.9395 80.6982C50.5271 94.6616 51.069 111.251 51.1106 111.209V111.168C51.5275 114.961 51.7776 119.087 51.7776 123.464C51.7359 141.221 47.7761 155.559 42.8576 155.559Z" fill="#E3090F"/>
<path fill-rule="evenodd" clip-rule="evenodd" d="M187.62 122.589V113.627L190.288 110.251C190.955 110.793 192.622 112.46 192.622 115.211V133.468H199.124V114.753C199.124 111.085 197.499 107.625 194.623 105.249L194.414 105.041L195.206 104.04C197.749 100.789 199.166 96.7459 199.166 92.6194V80.2815H192.664V93.4947C192.664 96.1624 191.747 98.7883 190.121 100.872L187.704 103.915V80.2815H181.201V99.7887V122.547V133.426H187.662L187.62 122.589Z" fill="#342483"/>
<path fill-rule="evenodd" clip-rule="evenodd" d="M242.973 86.7839V80.2815H229.718C228.634 80.2815 227.759 81.1568 227.759 82.2405V131.467C227.759 132.551 228.634 133.426 229.718 133.426H242.973V126.965H234.22V103.623H242.598V97.121H234.22V86.7839H242.973Z" fill="#342483"/>
<path fill-rule="evenodd" clip-rule="evenodd" d="M172.948 159.477L167.988 166.688V143.555H161.485V196.741H167.988V176.984L172.948 169.856V196.741H179.45V143.555H172.948V159.477Z" fill="#342483"/>
<path fill-rule="evenodd" clip-rule="evenodd" d="M127.473 143.555H120.595C115.26 143.555 111.884 147.473 111.508 154.017C111.467 154.559 111.467 155.059 111.467 155.518V196.7H117.969V176.984H122.929V196.741H129.432V145.514C129.432 144.43 128.556 143.555 127.473 143.555ZM122.929 170.482H117.969C117.969 170.482 117.969 153.767 117.969 153.725C117.969 151.766 118.428 150.057 120.595 150.057H122.971L122.929 170.482Z" fill="#342483"/>
<path fill-rule="evenodd" clip-rule="evenodd" d="M193.873 143.138C188.537 143.138 185.161 147.056 184.786 153.6C184.744 154.142 184.744 154.642 184.744 155.101V185.112V185.237V185.445C184.744 192.698 188.162 197.033 193.873 197.033C199.208 197.033 202.584 193.115 202.959 186.571C203.001 186.029 203.001 185.529 203.001 185.07V155.059V154.934V154.726C202.959 147.473 199.583 143.138 193.873 143.138ZM196.54 187.279C196.457 188.488 196.04 190.53 193.873 190.53C191.705 190.53 191.247 188.488 191.205 187.279C191.205 186.821 191.163 153.517 191.205 153.017C191.288 151.808 191.705 149.724 193.873 149.724C196.04 149.724 196.498 151.766 196.54 152.975C196.54 153.558 196.582 186.362 196.54 187.279Z" fill="#342483"/>
<path fill-rule="evenodd" clip-rule="evenodd" d="M173.697 130.675C175.323 128.633 176.157 125.84 176.157 122.422V116.503H169.738V122.547C169.738 124.214 169.446 125.423 168.904 126.215C168.362 126.965 167.695 127.34 166.862 127.34C165.945 127.34 165.319 127.007 164.819 126.298C164.277 125.548 164.069 124.423 164.069 122.714V90.9103C164.069 89.2013 164.319 88.0759 164.819 87.3256C165.319 86.617 165.986 86.2836 166.862 86.2836C167.695 86.2836 168.362 86.6587 168.904 87.409C169.446 88.201 169.738 89.4097 169.738 91.077V97.1209H176.157V91.2021C176.157 87.7425 175.323 84.9914 173.697 82.949C171.988 80.8232 169.696 79.7395 166.862 79.7395C164.027 79.7395 161.735 80.8232 160.026 82.949C158.4 84.9914 157.566 87.7841 157.566 91.2021V122.422C157.566 125.882 158.4 128.633 160.026 130.675C161.735 132.801 164.027 133.885 166.862 133.885C169.696 133.885 171.988 132.801 173.697 130.675Z" fill="#342483"/>
<path fill-rule="evenodd" clip-rule="evenodd" d="M213.254 79.7395C207.877 79.7395 204.417 83.6993 204.084 90.3267C204.042 90.8686 204.042 91.3688 204.042 91.869V122.547V122.672V122.88C204.042 130.216 207.501 134.635 213.254 134.635C218.631 134.635 222.09 130.675 222.424 124.048C222.465 123.506 222.465 123.005 222.465 122.505V91.8273V91.7023V91.4938C222.465 84.1161 219.006 79.7395 213.254 79.7395ZM215.963 124.673C215.88 125.923 215.463 128.007 213.254 128.007C211.044 128.007 210.586 125.923 210.544 124.714C210.544 124.214 210.503 90.2434 210.544 89.7849C210.628 88.5344 211.044 86.4503 213.254 86.4503C215.463 86.4503 215.921 88.5344 215.963 89.7849C215.963 90.2851 216.005 123.756 215.963 124.673Z" fill="#342483"/>
<path fill-rule="evenodd" clip-rule="evenodd" d="M143.978 133.885C146.812 133.885 149.105 132.801 150.814 130.675C152.439 128.633 153.273 125.84 153.273 122.422V116.503H146.854V122.547C146.854 124.214 146.562 125.423 146.02 126.215C145.478 126.965 144.812 127.34 143.978 127.34C143.061 127.34 142.436 127.007 141.935 126.298C141.394 125.548 141.185 124.423 141.185 122.714V90.9103C141.185 89.2013 141.435 88.0759 141.935 87.3256C142.436 86.617 143.103 86.2836 143.978 86.2836C144.812 86.2836 145.478 86.6587 146.02 87.409C146.562 88.201 146.854 89.4097 146.854 91.077V97.1209H153.273V91.2021C153.273 87.7425 152.439 84.9914 150.814 82.949C149.105 80.8232 146.812 79.7395 143.978 79.7395C141.144 79.7395 138.851 80.8232 137.142 82.949C135.516 84.9914 134.683 87.7841 134.683 91.2021V122.422C134.683 125.882 135.516 128.633 137.142 130.675C138.851 132.801 141.144 133.885 143.978 133.885Z" fill="#342483"/>
<path fill-rule="evenodd" clip-rule="evenodd" d="M89.459 82.2822V133.468H95.9197V113.627L103.422 104.04C105.965 100.789 107.382 96.7459 107.382 92.6194V80.2815H91.418C90.3343 80.2815 89.459 81.1985 89.459 82.2822ZM95.9197 86.7422H100.88V93.4947C100.88 96.1624 99.9629 98.7883 98.3373 100.872L95.9197 103.915V86.7422Z" fill="#342483"/>
<path fill-rule="evenodd" clip-rule="evenodd" d="M89.459 145.514V196.7H95.9197V176.859L103.422 167.272C105.965 164.021 107.382 159.978 107.382 155.851V143.513H91.418C90.3343 143.555 89.459 144.43 89.459 145.514ZM95.9197 150.016H100.88V156.768C100.88 159.436 99.9629 162.062 98.3373 164.146L95.9197 167.189V150.016Z" fill="#342483"/>
<path fill-rule="evenodd" clip-rule="evenodd" d="M154.774 190.197V148.515V145.514C154.774 144.43 153.899 143.555 152.815 143.555H145.938C140.602 143.555 137.226 147.473 136.851 154.017C136.809 154.559 136.809 155.059 136.809 155.518V169.356C136.809 176.317 135.642 188.03 135.392 190.155H132.308V196.699H158.192V190.155H154.774V190.197ZM148.314 190.197H141.936C142.728 183.319 143.312 177.401 143.312 169.398V153.725C143.312 151.766 143.77 150.057 145.938 150.057H148.314V190.197Z" fill="#342483"/>
<path fill-rule="evenodd" clip-rule="evenodd" d="M122.929 80.2815V103.915L120.512 100.872C118.886 98.7883 117.969 96.1624 117.969 93.4947V80.2815H111.467V92.6194C111.467 96.7459 112.884 100.789 115.427 104.04L123.305 114.044V116.503H117.177C114.009 116.503 111.467 119.046 111.467 122.214V127.757C111.467 130.925 114.009 133.468 117.177 133.468H123.68C126.847 133.468 129.39 130.925 129.39 127.757V121.964C129.39 121.922 129.39 121.922 129.39 121.88V80.3232H122.929V80.2815ZM123.346 126.549C123.346 127.007 122.971 127.341 122.554 127.341H118.428C117.969 127.341 117.636 126.965 117.636 126.549V123.464C117.636 123.006 118.011 122.672 118.428 122.672H123.346V126.549Z" fill="#342483"/>
<path fill-rule="evenodd" clip-rule="evenodd" d="M66.7415 80.2815C63.4486 80.2815 60.7393 82.9908 60.7393 86.2837C60.7393 89.5766 63.4486 92.2859 66.7415 92.2859C70.0344 92.2859 72.7437 89.5766 72.7437 86.2837C72.7437 82.9908 70.0344 80.2815 66.7415 80.2815ZM71.5766 86.2837C71.5766 88.9514 69.4091 91.1188 66.7415 91.1188C64.0738 91.1188 61.9064 88.9514 61.9064 86.2837C61.9064 83.6161 64.0738 81.4486 66.7415 81.4486C69.4091 81.4486 71.5766 83.6161 71.5766 86.2837Z" fill="#E3090F"/>
<path fill-rule="evenodd" clip-rule="evenodd" d="M67.9922 86.7838C68.5757 86.492 68.9926 85.8251 68.9926 85.0748C68.9926 84.2412 68.5757 83.616 67.9088 83.3242C67.617 83.1992 67.2836 83.1575 66.7 83.1575H64.5743V89.4515H65.8664V87.1589H66.7834L67.9922 89.4515H69.4511L68.1172 87.0339C68.0755 86.9089 68.0339 86.8255 67.9922 86.7838ZM67.6587 85.1165C67.6587 85.6584 67.3253 85.9918 66.7834 85.9918H65.9081V84.2829H66.6167C66.9501 84.2829 67.1169 84.3246 67.2419 84.3663C67.617 84.533 67.6587 84.8664 67.6587 85.1165Z" fill="#E3090F"/>
<path fill-rule="evenodd" clip-rule="evenodd" d="M89.4569 63.9423C89.7903 63.8589 90.4156 63.8173 91.0408 63.8173C91.8327 63.8173 92.3329 63.9423 92.7497 64.1924C93.1249 64.4008 93.375 64.8176 93.375 65.3178C93.375 65.8597 93.0415 66.3599 92.3746 66.61V66.6516C92.9998 66.8184 93.5834 67.3186 93.5834 68.1105C93.5834 68.6524 93.3333 69.0692 92.9998 69.3193C92.583 69.6944 91.8744 69.8612 90.7907 69.8612C90.2071 69.8612 89.7486 69.8195 89.4569 69.7778V63.9423ZM90.5406 66.3182H91.0825C91.8327 66.3182 92.2496 65.9847 92.2496 65.4429C92.2496 64.8593 91.8327 64.6092 91.1241 64.6092C90.7907 64.6092 90.624 64.6092 90.4989 64.6509V66.3182H90.5406ZM90.5406 69.0275C90.6656 69.0692 90.8741 69.0692 91.1241 69.0692C91.8327 69.0692 92.458 68.8191 92.458 68.0688C92.458 67.3602 91.8327 67.1101 91.0825 67.1101H90.5406V69.0275Z" fill="#E3090F"/>
<path fill-rule="evenodd" clip-rule="evenodd" d="M103.628 69.6528C103.378 69.7779 102.794 69.9029 102.086 69.9029C100.21 69.9029 99.043 68.7358 99.043 66.9018C99.043 64.9427 100.418 63.7756 102.252 63.7756C102.961 63.7756 103.461 63.9007 103.711 64.0257L103.461 64.901C103.17 64.776 102.794 64.651 102.294 64.651C101.085 64.651 100.21 65.4012 100.21 66.8601C100.21 68.1523 100.96 68.9859 102.294 68.9859C102.711 68.9859 103.17 68.9025 103.461 68.7775L103.628 69.6528Z" fill="#E3090F"/>
<path fill-rule="evenodd" clip-rule="evenodd" d="M112.757 67.1933H110.506V68.944H113.007V69.8193H109.422V63.8588H112.882V64.7341H110.506V66.2763H112.757V67.1933ZM110.256 63.4836C109.964 63.4836 109.714 63.2335 109.714 62.9418C109.714 62.65 109.964 62.3999 110.256 62.3999C110.547 62.3999 110.756 62.65 110.756 62.9418C110.756 63.2335 110.547 63.4836 110.256 63.4836ZM112.006 63.4836C111.714 63.4836 111.506 63.2335 111.506 62.9418C111.506 62.65 111.714 62.3999 112.048 62.3999C112.34 62.3999 112.548 62.65 112.548 62.9418C112.506 63.2335 112.298 63.4836 112.006 63.4836Z" fill="#E3090F"/>
<path fill-rule="evenodd" clip-rule="evenodd" d="M130.263 63.8588V64.7341H127.679V66.0262C127.887 65.9845 128.179 65.9846 128.429 65.9846C129.013 65.9846 129.596 66.1096 130.055 66.4431C130.472 66.7348 130.763 67.1933 130.763 67.9019C130.763 68.4855 130.555 68.9023 130.221 69.2358C129.68 69.7359 128.804 69.9027 127.971 69.9027C127.345 69.9027 126.929 69.861 126.637 69.8193V63.8588H130.263ZM127.637 69.0273C127.804 69.069 127.971 69.069 128.221 69.069C128.638 69.069 129.013 68.944 129.263 68.6939C129.43 68.4855 129.555 68.2354 129.555 67.9019C129.555 67.5268 129.388 67.2767 129.138 67.0683C128.888 66.8599 128.512 66.7765 128.137 66.7765C127.971 66.7765 127.762 66.7765 127.595 66.8182V69.0273H127.637Z" fill="#E3090F"/>
<path fill-rule="evenodd" clip-rule="evenodd" d="M137.016 63.8588L138.017 66.193C138.183 66.5681 138.308 66.9432 138.433 67.2767H138.475C138.558 66.9849 138.684 66.6515 138.809 66.1513L139.601 63.8588H140.768L139.601 66.8599C139.267 67.7352 138.892 68.6105 138.433 69.1941C138.058 69.6943 137.558 69.9443 136.975 69.9443C136.724 69.9443 136.558 69.9027 136.433 69.861L136.516 68.9857C136.599 69.0273 136.724 69.0273 136.891 69.0273C137.391 69.0273 137.725 68.6105 137.85 68.2771C137.892 68.152 137.892 68.0687 137.808 67.9436L135.807 63.8588H137.016Z" fill="#E3090F"/>
<path fill-rule="evenodd" clip-rule="evenodd" d="M150.146 63.8589V68.9441L150.688 68.9858L150.646 71.32H149.812L149.771 69.8611H146.144L146.061 71.32H145.227L145.186 68.9858L145.644 68.9441C145.894 68.5273 146.103 68.1105 146.228 67.6103C146.394 66.985 146.478 66.2764 146.478 65.4011V63.8589H150.146ZM147.52 65.6929C147.52 66.5265 147.436 67.2351 147.228 67.8604C147.103 68.2355 146.936 68.6106 146.769 68.9441H149.02V64.7759H147.478V65.6929H147.52Z" fill="#E3090F"/>
<path fill-rule="evenodd" clip-rule="evenodd" d="M159.774 67.1933H157.523V68.944H160.024V69.8193H156.44V63.8588H159.899V64.7758H157.523V66.318H159.774V67.1933Z" fill="#E3090F"/>
<path fill-rule="evenodd" clip-rule="evenodd" d="M166.985 64.7759H165.276V63.8589H169.778V64.7759H168.069V69.8194H166.985V64.7759Z" fill="#E3090F"/>
<path fill-rule="evenodd" clip-rule="evenodd" d="M186.451 69.8194L185.826 68.6523C185.576 68.1938 185.409 67.8604 185.242 67.5269C185.117 67.8604 184.95 68.1938 184.7 68.6523L184.117 69.8194H182.866L184.617 66.8183L182.908 63.8589H184.158L184.784 65.0677C184.992 65.4428 185.117 65.7346 185.284 66.068H185.325C185.492 65.6929 185.617 65.4428 185.784 65.0677L186.409 63.8589H187.66L185.909 66.7766L187.701 69.8194H186.451Z" fill="#E3090F"/>
<path fill-rule="evenodd" clip-rule="evenodd" d="M195.496 69.9448C193.787 69.9448 192.745 68.6527 192.745 66.902C192.745 65.068 193.912 63.7759 195.58 63.7759C197.33 63.7759 198.331 65.1097 198.331 66.777C198.372 68.7777 197.163 69.9448 195.496 69.9448ZM195.58 69.0695C196.622 69.0695 197.205 68.1108 197.205 66.8604C197.205 65.7349 196.663 64.6929 195.58 64.6929C194.496 64.6929 193.912 65.7349 193.912 66.902C193.912 68.0691 194.496 69.0695 195.58 69.0695Z" fill="#E3090F"/>
<path fill-rule="evenodd" clip-rule="evenodd" d="M204.166 63.9423C204.583 63.8589 205.083 63.8173 205.833 63.8173C206.625 63.8173 207.209 63.984 207.584 64.3174C207.917 64.6092 208.167 65.0677 208.167 65.6513C208.167 66.2348 208.001 66.6933 207.667 66.9851C207.209 67.4019 206.542 67.6103 205.792 67.6103C205.583 67.6103 205.416 67.6103 205.25 67.5686V69.8195H204.166V63.9423ZM205.25 66.735C205.375 66.7767 205.541 66.7767 205.792 66.7767C206.625 66.7767 207.084 66.3599 207.084 65.693C207.084 65.026 206.625 64.6926 205.875 64.6926C205.583 64.6926 205.375 64.7343 205.25 64.7343V66.735Z" fill="#E3090F"/>
<path fill-rule="evenodd" clip-rule="evenodd" d="M216.378 69.9448C214.711 69.9448 213.627 68.6527 213.627 66.902C213.627 65.068 214.794 63.7759 216.461 63.7759C218.212 63.7759 219.212 65.1097 219.212 66.777C219.212 68.7777 218.004 69.9448 216.378 69.9448ZM216.42 69.0695C217.462 69.0695 218.045 68.1108 218.045 66.8604C218.045 65.7349 217.503 64.6929 216.42 64.6929C215.336 64.6929 214.752 65.7349 214.752 66.902C214.752 68.0691 215.378 69.0695 216.42 69.0695Z" fill="#E3090F"/>
<path fill-rule="evenodd" clip-rule="evenodd" d="M226.091 63.8588V68.944H227.758V63.8588H228.8V68.944H230.509V63.8588H231.551V69.8193H225.007V63.8588H226.091Z" fill="#E3090F"/>
<path fill-rule="evenodd" clip-rule="evenodd" d="M240.137 69.9448C238.428 69.9448 237.386 68.6527 237.386 66.902C237.386 65.068 238.553 63.7759 240.22 63.7759C241.971 63.7759 242.971 65.1097 242.971 66.777C242.971 68.7777 241.762 69.9448 240.137 69.9448ZM240.178 69.0695C241.221 69.0695 241.804 68.1108 241.804 66.8604C241.804 65.7349 241.262 64.6929 240.178 64.6929C239.095 64.6929 238.511 65.7349 238.511 66.902C238.511 68.0691 239.136 69.0695 240.178 69.0695Z" fill="#E3090F"/>
<path fill-rule="evenodd" clip-rule="evenodd" d="M229.05 170.857C229.342 170.607 229.842 170.398 230.259 170.398L230.342 170.357C231.468 170.148 232.885 170.232 234.177 170.232H234.26L235.511 170.273L235.636 170.315C236.303 170.315 236.761 170.482 237.261 170.732L237.303 170.773C237.845 170.982 238.262 171.399 238.262 172.149C238.262 172.899 237.845 173.274 237.303 173.524L237.261 173.566C236.928 173.733 237.011 173.774 236.594 173.774L236.553 173.816C235.761 174.025 235.427 174.066 234.51 174.066H234.385H234.219H234.094H232.426H232.301H232.176H232.093C231.343 174.066 231.051 174.025 230.384 173.941L230.259 173.9C229.842 173.9 229.342 173.691 229.092 173.524L229.008 173.483C228.008 172.774 228.008 171.357 229.05 170.857ZM242.847 171.565C242.805 171.232 242.763 170.857 242.68 170.398C242.388 169.023 241.763 168.356 240.804 167.564L240.721 167.481C240.513 167.397 240.554 167.439 240.346 167.272L240.304 167.23C240.137 167.147 240.179 167.189 239.971 167.105L239.929 167.064C239.637 167.022 239.346 166.855 239.012 166.772C238.637 166.647 238.387 166.605 237.97 166.48L237.887 166.438H237.511L237.386 166.355C237.053 166.355 236.428 166.272 236.094 166.23C235.594 166.147 235.136 166.188 234.594 166.147L234.51 166.063H232.551L232.51 166.147C232.093 166.188 231.676 166.147 231.259 166.188C230.926 166.23 230.384 166.313 230.05 166.313L229.967 166.397C229.3 166.48 228.383 166.814 227.883 167.064L227.8 167.147H227.675L227.591 167.189C227.424 167.314 227.383 167.355 227.174 167.439C227.049 167.522 227.049 167.522 226.966 167.606C226.758 167.731 226.924 167.647 226.674 167.772L226.007 168.523C225.841 168.773 225.924 168.523 225.841 168.814C225.465 168.814 225.799 168.814 225.674 168.689L225.59 168.564L225.549 168.523C225.299 168.272 225.215 168.231 224.965 168.064C224.715 167.856 224.632 167.772 224.34 167.606C223.881 167.355 223.381 167.105 222.881 166.939L222.798 166.897C222.423 166.855 222.089 166.73 221.672 166.647C221.255 166.563 220.839 166.563 220.422 166.48L220.297 166.438H217.171L217.046 166.48C216.754 166.563 216.254 166.605 215.962 166.605L215.878 166.647L215.253 166.772L215.128 166.855C214.836 166.897 214.503 167.064 214.253 167.189C213.919 167.355 213.711 167.48 213.336 167.606L213.294 167.647C213.127 167.814 213.253 167.731 213.086 167.772L213.044 167.814C212.794 168.064 212.919 167.981 212.627 168.147L212.544 168.189L212.502 168.272C212.294 168.481 212.294 168.564 212.127 168.773C211.919 169.023 211.96 168.981 211.794 169.231L211.71 169.315L211.46 169.773L211.419 169.815C211.377 170.148 211.419 169.94 211.293 170.232L211.252 170.273C211.252 170.565 211.168 170.69 211.085 170.982C211.043 171.232 211.043 171.482 211.002 171.774L210.96 171.899V172.191L211.002 172.316C211.085 172.941 211.043 173.149 211.21 173.691C211.335 174.066 211.502 174.441 211.669 174.817L211.71 174.858C211.877 175.067 211.96 175.192 212.085 175.4L212.169 175.525C212.419 175.859 212.669 176.025 213.002 176.275L213.086 176.359C213.669 176.692 214.336 177.067 215.087 177.317L215.17 177.359C215.545 177.401 216.587 177.651 217.254 177.734C218.963 177.859 221.089 177.734 222.756 177.192C223.089 177.067 223.381 176.901 223.673 176.859L223.756 176.817C224.007 176.609 224.09 176.609 224.34 176.484L224.382 176.442L225.632 175.317L226.632 176.234L226.716 176.317C227.049 176.526 227.299 176.734 227.675 176.942C228.008 177.109 228.341 177.317 228.717 177.443L228.8 177.484L229.55 177.693L229.592 177.734H229.925L229.967 177.818L230.259 177.859L230.384 177.901C230.634 177.901 231.176 177.984 231.468 178.026L231.551 178.068H232.468L232.51 178.151H234.385L234.469 178.109L235.803 178.068L235.928 178.026L236.636 177.984L236.761 177.943C237.386 177.859 237.762 177.776 238.303 177.651C238.554 177.568 238.72 177.526 239.012 177.443C239.304 177.359 239.429 177.276 239.721 177.192L239.762 177.151C240.179 176.942 240.554 176.734 240.846 176.484C241.138 176.234 241.471 175.859 241.763 175.567L241.805 175.525C241.888 175.358 241.763 175.442 241.93 175.317L241.971 175.233L242.263 174.608L242.347 174.525C242.513 173.733 242.638 173.191 242.722 172.607V171.565H242.847ZM215.795 171.982C215.795 171.565 215.92 171.315 216.129 171.107C216.337 170.898 216.712 170.69 217.087 170.69L217.129 170.648C217.546 170.565 218.004 170.482 218.379 170.44C218.838 170.398 219.421 170.44 219.88 170.44H220.088C221.422 170.44 222.631 170.482 223.381 171.065C223.715 171.315 224.007 171.857 223.798 172.566C223.673 173.024 223.215 173.399 222.756 173.524L222.631 173.608H222.464L222.381 173.691H222.131L222.047 173.774H221.589L221.506 173.858H220.213L219.797 173.9L219.713 173.858C218.88 173.858 218.338 173.9 217.629 173.733L217.546 173.691C217.171 173.691 216.796 173.566 216.545 173.399L216.504 173.358C216.295 173.233 216.379 173.316 216.212 173.108L216.17 173.066C215.879 172.774 215.837 172.732 215.837 172.191V171.982H215.795ZM228.592 186.446C228.758 186.154 228.633 186.321 228.842 186.112C229.55 185.571 230.717 185.445 231.593 185.445L231.676 185.362H234.677L234.719 185.445H235.677L235.803 185.529C236.261 185.529 236.469 185.654 236.845 185.779L236.886 185.821C237.261 185.904 237.428 185.987 237.637 186.237V186.279L237.762 186.362C237.97 186.654 237.97 186.571 238.053 186.946L238.095 186.988C238.22 187.446 238.178 187.696 237.97 187.988C237.803 188.28 237.637 188.447 237.345 188.613C236.886 188.905 236.053 189.155 235.344 189.155L235.261 189.197C234.344 189.405 231.176 189.28 230.342 189.113C229.592 188.988 229.008 188.78 228.592 188.322C228.175 187.821 228.091 186.988 228.592 186.446ZM215.795 187.279C215.795 186.863 215.795 186.946 215.92 186.613L216.004 186.529L216.379 186.154L216.462 186.112C216.629 185.987 216.504 186.029 216.754 185.987L216.837 185.946L217.004 185.904L217.087 185.862C217.504 185.779 217.462 185.737 217.963 185.737L218.004 185.696L218.88 185.654L219.005 185.612C219.505 185.487 220.422 185.487 220.922 185.612L220.964 185.654L221.797 185.696L221.839 185.737C224.59 185.737 224.423 188.655 222.423 188.822L222.339 188.863C221.922 188.947 221.922 188.988 221.422 188.988L221.339 189.03C220.255 189.239 217.838 189.072 216.837 188.697C216.629 188.613 216.462 188.572 216.295 188.405C216.087 188.238 215.962 188.155 215.92 187.863L215.878 187.78L215.837 187.488V187.279H215.795ZM231.092 181.361L230.967 181.402L230.384 181.444L230.342 181.527C229.717 181.569 229.008 181.819 228.508 181.986C228.175 182.111 227.966 182.236 227.716 182.361C227.424 182.528 227.258 182.653 226.966 182.819L226.924 182.861C226.716 183.028 226.591 183.153 226.382 183.361C226.132 183.611 226.132 183.736 225.841 183.987H225.799C225.59 183.778 225.507 183.695 225.299 183.528C225.049 183.278 224.965 183.278 224.715 183.07L224.673 183.028C224.298 182.861 224.173 182.736 223.798 182.569C223.465 182.444 223.256 182.361 222.881 182.236C222.131 181.986 221.631 181.944 220.755 181.819L220.63 181.777C220.213 181.777 219.755 181.819 219.38 181.694H219.213H218.796H218.713H218.671H218.588C218.129 181.694 218.213 181.777 217.838 181.777C217.587 181.777 217.254 181.777 217.004 181.777L216.921 181.861C216.379 181.902 216.087 181.944 215.67 182.069C215.212 182.194 214.92 182.361 214.461 182.444L214.42 182.486C214.003 182.694 213.711 182.861 213.336 183.07L213.211 183.153C213.044 183.278 213.086 183.278 212.919 183.361L212.836 183.445L212.169 184.112L212.127 184.195C211.794 184.654 211.419 185.237 211.293 185.904L211.21 185.987L211.168 186.362L211.127 186.404V187.154V187.238L211.085 187.321V187.405V187.613C211.21 187.946 211.168 188.071 211.168 188.447L211.252 188.53C211.293 189.03 211.46 189.197 211.544 189.655L211.627 189.697L211.752 189.989L211.794 190.03C212.044 190.364 212.085 190.531 212.377 190.822C212.627 191.073 212.794 191.239 213.086 191.531L213.127 191.573C213.336 191.656 213.211 191.614 213.419 191.698C213.586 191.781 213.503 191.739 213.669 191.823L213.753 191.906C214.42 192.198 214.92 192.49 215.753 192.698L215.837 192.74C216.129 192.74 216.337 192.823 216.67 192.865L216.796 192.907C217.296 192.907 217.421 192.948 217.754 192.99C218.088 193.032 218.504 192.99 218.838 192.99C219.672 192.99 220.255 192.907 221.005 192.907L221.13 192.865C221.506 192.823 221.756 192.74 222.089 192.74L222.131 192.698C222.673 192.573 223.006 192.406 223.506 192.281L223.59 192.24L224.423 191.823L224.507 191.739C225.549 191.073 225.549 190.822 225.966 190.531L227.216 191.614L227.299 191.698C227.508 191.823 227.758 191.948 227.966 192.115L228.008 192.156C228.341 192.281 228.55 192.406 228.925 192.573C229.3 192.74 229.55 192.823 229.967 192.948L230.05 192.99C230.426 193.032 230.801 193.115 231.217 193.198L231.259 193.24C231.801 193.24 231.884 193.323 232.301 193.323C232.676 193.323 233.093 193.323 233.468 193.323C234.219 193.323 234.969 193.323 235.761 193.323L235.928 193.282L236.636 193.24L236.72 193.198L237.845 193.073L237.887 193.032C238.303 192.907 238.804 192.74 239.179 192.698L239.262 192.615C240.346 192.24 241.263 191.698 241.888 190.864L241.971 190.781C242.138 190.489 242.305 190.281 242.472 189.989C242.597 189.697 242.722 189.28 242.805 189.03C242.972 188.363 243.014 187.613 243.014 186.821V186.529L242.972 186.446L242.93 185.862L242.888 185.821C242.763 185.32 242.638 185.112 242.555 184.695L242.513 184.654C241.846 183.361 241.054 182.778 239.762 182.153L239.679 182.111C239.387 182.028 239.095 181.944 238.845 181.861C237.178 181.402 235.302 181.319 233.51 181.319C232.468 181.277 231.926 181.361 231.092 181.361ZM215.92 151.85L215.962 151.558L216.004 151.475C216.004 150.974 216.212 150.766 216.504 150.474L216.545 150.391C216.921 150.099 217.129 149.891 217.754 149.849L217.796 149.807C219.13 149.516 231.634 149.682 234.26 149.682C235.219 149.682 235.719 149.724 236.511 149.891L236.553 149.932C237.053 150.016 237.511 150.391 237.762 150.766C238.137 151.308 238.137 151.641 237.928 152.392L237.887 152.433C237.803 152.767 237.928 152.6 237.637 152.85L237.595 152.892C237.512 153.1 237.595 153.017 237.386 153.142L237.345 153.184C236.303 154.101 233.843 153.85 232.176 153.85C230.175 153.85 218.88 153.976 217.713 153.725C217.004 153.559 216.212 153.059 216.045 152.392L216.004 152.308L215.962 151.975L215.92 151.85ZM218.338 145.722C217.963 145.806 217.754 145.764 217.379 145.806C217.004 145.848 216.754 145.931 216.379 145.931L216.337 145.973C215.42 146.223 213.919 146.806 213.211 147.39C212.961 147.598 213.127 147.556 212.752 147.723L212.711 147.765C212.711 147.932 212.752 147.89 212.586 147.89L212.544 147.973C212.419 148.265 212.377 148.223 212.127 148.473L212.085 148.515C211.877 148.89 211.71 149.224 211.502 149.641L211.46 149.682C211.377 150.016 211.335 150.141 211.252 150.516C211.21 150.766 211.21 151.141 211.127 151.433V151.6V151.683V151.85L211.21 152.558L211.293 152.642C211.377 153.392 211.71 153.85 211.96 154.434L212.002 154.476C212.169 154.642 212.085 154.517 212.127 154.684L212.169 154.726C212.377 154.934 212.336 154.851 212.461 155.143L212.502 155.184L213.002 155.684L213.086 155.726L213.461 156.06L213.503 156.101C213.711 156.226 213.794 156.31 214.044 156.435C214.253 156.56 214.378 156.601 214.586 156.727C214.92 156.893 215.42 157.143 215.837 157.227L215.92 157.31C216.212 157.352 216.17 157.352 216.462 157.435L216.545 157.477L216.921 157.518L216.962 157.56C217.671 157.56 218.129 157.727 219.171 157.727H235.719L235.844 157.685L236.594 157.644L236.678 157.602C237.011 157.518 237.178 157.477 237.511 157.477L237.595 157.435C238.053 157.31 238.303 157.185 238.679 157.102L238.762 157.06C239.095 156.893 239.179 156.81 239.512 156.727L239.554 156.685C239.804 156.518 239.887 156.476 240.137 156.393L240.179 156.351C240.304 156.185 240.221 156.268 240.429 156.226L240.471 156.185C240.679 155.976 240.554 156.06 240.763 155.935L240.804 155.893C241.013 155.643 241.138 155.518 241.388 155.309C241.513 155.184 241.555 155.143 241.638 155.018C241.805 154.809 241.721 154.851 241.93 154.642L241.971 154.601L242.18 154.226C242.388 153.809 242.638 153.309 242.722 152.85L242.805 152.767L242.888 152.308V152.225V151.016L242.847 150.974C242.68 150.224 242.68 149.932 242.388 149.307C242.263 149.015 242.138 148.849 242.013 148.599C241.888 148.432 241.68 148.14 241.555 147.973C240.554 146.931 240.012 146.806 238.97 146.264L238.929 146.223C238.387 146.139 237.97 145.973 237.345 145.848C237.178 145.806 236.678 145.722 236.511 145.681C236.094 145.639 235.969 145.764 235.594 145.597H235.511L218.338 145.722ZM242.222 163.896L242.305 163.854V160.103L242.18 160.019H238.887V163.896H242.222ZM220.172 173.858L219.755 173.9V173.858H220.172ZM212.669 147.807C212.669 147.973 212.711 147.932 212.544 147.932L212.669 147.807ZM211.127 187.154H211.085L211.168 187.071L211.127 187.154ZM219.755 173.9L219.672 173.858H219.755V173.9ZM211.127 187.154L211.085 187.238V187.154H211.127ZM235.511 145.681H235.427H235.511ZM212.752 147.765L212.711 147.807L212.752 147.765ZM212.586 147.932L212.544 148.015L212.586 147.932ZM212.127 148.515L212.085 148.557L212.127 148.515ZM211.46 149.682L211.419 149.724L211.46 149.682ZM217.796 149.807L217.754 149.849L217.796 149.807ZM236.594 149.932L236.553 149.891L236.594 149.932ZM216.504 150.433L216.462 150.516L216.504 150.433ZM242.847 151.099L242.805 151.058L242.847 151.099ZM215.962 151.475L215.92 151.558L215.962 151.475ZM211.085 151.683V151.516V151.683ZM211.085 151.933V151.766V151.933ZM215.962 151.933L215.92 151.808L215.962 151.933ZM216.045 152.392L216.004 152.308L216.045 152.392ZM242.847 152.308V152.392V152.308ZM237.928 152.392L237.887 152.433L237.928 152.392ZM211.252 152.767L211.168 152.683L211.252 152.767ZM242.763 152.85L242.68 152.933L242.763 152.85ZM237.386 153.1L237.345 153.142L237.386 153.1ZM212.127 154.851L212.085 154.809L212.127 154.851ZM212.461 155.268L212.419 155.226L212.461 155.268ZM213.044 155.851L212.961 155.81L213.044 155.851ZM240.763 155.976L240.721 156.018L240.763 155.976ZM213.461 156.185L213.419 156.143L213.461 156.185ZM240.137 156.435L240.096 156.476L240.137 156.435ZM239.512 156.768L239.471 156.81L239.512 156.768ZM238.679 157.143L238.595 157.185L238.679 157.143ZM215.878 157.352L215.795 157.268L215.878 157.352ZM216.504 157.56L216.42 157.518L216.504 157.56ZM237.511 157.518L237.428 157.56L237.511 157.518ZM236.594 157.685L236.511 157.727L236.594 157.685ZM235.803 157.769L235.677 157.81L235.803 157.769ZM242.305 160.061L242.18 159.978L242.305 160.061ZM242.305 163.812L242.222 163.854L242.305 163.812ZM232.551 166.063L232.51 166.147L232.551 166.063ZM234.635 166.147L234.552 166.063L234.635 166.147ZM230.092 166.313L230.009 166.397L230.092 166.313ZM237.511 166.397L237.386 166.313L237.511 166.397ZM237.97 166.48L237.887 166.438L237.97 166.48ZM217.254 166.522L217.129 166.563L217.254 166.522ZM220.505 166.563L220.38 166.522L220.505 166.563ZM216.045 166.689L215.962 166.73L216.045 166.689ZM215.337 166.897L215.212 166.98L215.337 166.897ZM222.923 167.022L222.839 166.98L222.923 167.022ZM227.883 167.064L227.8 167.147L227.883 167.064ZM239.971 167.105L239.929 167.064L239.971 167.105ZM227.716 167.147L227.633 167.189L227.716 167.147ZM240.304 167.272L240.263 167.23L240.304 167.272ZM240.763 167.564L240.679 167.481L240.763 167.564ZM213.211 167.856L213.169 167.897L213.211 167.856ZM212.752 168.231L212.669 168.272L212.752 168.231ZM212.669 168.272L212.627 168.356L212.669 168.272ZM225.674 168.648L225.632 168.606L225.674 168.648ZM225.757 168.773L225.674 168.648L225.757 168.773ZM211.877 169.315L211.794 169.398L211.877 169.315ZM234.26 170.232H234.177H234.26ZM235.636 170.315L235.511 170.273L235.636 170.315ZM220.13 170.398H219.922H220.13ZM230.342 170.357L230.259 170.398L230.342 170.357ZM217.129 170.607L217.087 170.648L217.129 170.607ZM211.085 171.982L211.127 171.857L211.085 171.982ZM215.795 172.149V171.982V172.149ZM211.127 172.399L211.085 172.274L211.127 172.399ZM216.504 173.358L216.462 173.316L216.504 173.358ZM229.092 173.441L229.008 173.399L229.092 173.441ZM222.756 173.483L222.631 173.566L222.756 173.483ZM237.303 173.483L237.261 173.524L237.303 173.483ZM222.464 173.566L222.381 173.649L222.464 173.566ZM217.587 173.691L217.504 173.649L217.587 173.691ZM222.131 173.649L222.047 173.733L222.131 173.649ZM221.589 173.774L221.506 173.858L221.589 173.774ZM236.553 173.774L236.511 173.816L236.553 173.774ZM230.342 173.9L230.217 173.858L230.342 173.9ZM232.135 174.025H232.051H232.135ZM232.385 174.025H232.26H232.385ZM234.177 174.025H234.052H234.177ZM234.469 174.025H234.344H234.469ZM242.472 174.525L242.388 174.608L242.472 174.525ZM211.877 174.942L211.835 174.9L211.877 174.942ZM242.138 175.192L242.097 175.275L242.138 175.192ZM212.336 175.567L212.252 175.442L212.336 175.567ZM241.93 175.525L241.888 175.567L241.93 175.525ZM226.883 176.275L226.799 176.192L226.883 176.275ZM213.211 176.4L213.127 176.317L213.211 176.4ZM223.923 176.776L223.84 176.817L223.923 176.776ZM215.295 177.359L215.212 177.317L215.295 177.359ZM228.967 177.484L228.883 177.443L228.967 177.484ZM229.759 177.734L229.717 177.693L229.759 177.734ZM230.134 177.818L230.092 177.734L230.134 177.818ZM230.551 177.901L230.426 177.859L230.551 177.901ZM236.886 177.943L236.761 177.984L236.886 177.943ZM231.718 178.109L231.634 178.068L231.718 178.109ZM236.053 178.068L235.928 178.109L236.053 178.068ZM232.676 178.193L232.635 178.109L232.676 178.193ZM234.635 178.151L234.552 178.193L234.635 178.151ZM231.092 181.361L230.967 181.402L231.092 181.361ZM230.426 181.444L230.384 181.527L230.426 181.444ZM218.713 181.652H218.63H218.713ZM218.838 181.652H218.755H218.838ZM219.421 181.652H219.255H219.421ZM217.046 181.736L216.962 181.819L217.046 181.736ZM220.755 181.777L220.63 181.736L220.755 181.777ZM239.596 182.111L239.512 182.069L239.596 182.111ZM226.966 182.819L226.924 182.861L226.966 182.819ZM213.378 182.986L213.253 183.07L213.378 182.986ZM224.757 183.028L224.715 182.986L224.757 183.028ZM212.961 183.278L212.877 183.361L212.961 183.278ZM212.21 183.987L212.169 184.07L212.21 183.987ZM225.841 183.987H225.799H225.841ZM231.718 185.362L231.634 185.445L231.718 185.362ZM234.76 185.445L234.719 185.362L234.76 185.445ZM235.844 185.529L235.719 185.445L235.844 185.529ZM218.963 185.571L218.838 185.612L218.963 185.571ZM220.922 185.612L220.88 185.571L220.922 185.612ZM217.963 185.654L217.921 185.696L217.963 185.654ZM221.797 185.696L221.756 185.654L221.797 185.696ZM236.928 185.779L236.886 185.737L236.928 185.779ZM211.335 185.779L211.252 185.862L211.335 185.779ZM217.046 185.821L216.962 185.862L217.046 185.821ZM242.763 185.862L242.722 185.821L242.763 185.862ZM216.796 185.946L216.712 185.987L216.796 185.946ZM216.42 186.112L216.337 186.154L216.42 186.112ZM211.21 186.237L211.168 186.279L211.21 186.237ZM237.845 186.321L237.72 186.237L237.845 186.321ZM215.962 186.529L215.878 186.613L215.962 186.529ZM242.847 186.529L242.805 186.446L242.847 186.529ZM215.795 187.488V187.238V187.488ZM211.085 187.53V187.321V187.53ZM215.878 187.863L215.837 187.78L215.878 187.863ZM211.252 188.405L211.168 188.322L211.252 188.405ZM222.381 188.78L222.298 188.822L222.381 188.78ZM221.381 188.947L221.297 188.988L221.381 188.947ZM235.427 189.155L235.344 189.197L235.427 189.155ZM211.585 189.614L211.502 189.572L211.585 189.614ZM211.752 189.947L211.71 189.905L211.752 189.947ZM241.846 190.781L241.763 190.864L241.846 190.781ZM227.174 191.698L227.091 191.614L227.174 191.698ZM224.382 191.698L224.298 191.781L224.382 191.698ZM213.669 191.865L213.586 191.781L213.669 191.865ZM223.465 192.198L223.381 192.24L223.465 192.198ZM215.795 192.698L215.712 192.656L215.795 192.698ZM239.137 192.615L239.054 192.698L239.137 192.615ZM216.712 192.865L216.587 192.823L216.712 192.865ZM221.047 192.782L220.922 192.823L221.047 192.782ZM229.925 192.948L229.842 192.907L229.925 192.948ZM237.803 192.99L237.762 193.032L237.803 192.99ZM231.134 193.24L231.092 193.198L231.134 193.24ZM236.594 193.198L236.511 193.24L236.594 193.198ZM235.803 193.282L235.636 193.323L235.803 193.282Z" fill="#E3090F"/>
<rect x="0.495899" y="0.495899" width="259.008" height="259.008" rx="19.5041" stroke="#DDD9E9" stroke-width="0.991798"/>
</svg>
