<svg width="261" height="261" viewBox="0 0 261 261" fill="none" xmlns="http://www.w3.org/2000/svg">
<rect x="0.799805" y="0.399902" width="260" height="260" rx="20" fill="#C63032"/>
<path fill-rule="evenodd" clip-rule="evenodd" d="M9.21766 46.1603C90.6214 46.1603 172.025 46.1603 253.429 46.1603C253.429 46.1603 253.429 46.1603 253.429 46.2579C253.429 102.382 253.429 158.798 253.429 214.726C253.429 214.922 253.624 215.117 253.136 215.117C253.038 215.117 252.941 215.117 252.746 215.117C250.305 215.215 247.67 215.117 245.132 215.117C166.852 215.117 87.1075 215.117 9.12006 215.117C9.12006 158.798 9.12006 102.577 9.21766 46.1603C9.12006 46.1603 9.12006 46.1603 9.21766 46.1603Z" fill="#C63032"/>
<path fill-rule="evenodd" clip-rule="evenodd" d="M106.726 63.5343C107.995 63.3391 109.361 63.1439 110.337 62.6559C110.923 62.363 111.509 61.6798 111.606 60.8989C111.704 59.4349 110.337 59.0444 108.873 59.142C107.312 59.142 105.067 59.7277 103.993 60.5085C103.017 61.1918 102.334 63.0463 103.31 64.4128C104.188 64.2176 105.359 63.8271 106.726 63.5343ZM104.579 68.0242C103.895 69.7811 103.798 71.9285 103.31 73.9782C102.626 76.9064 101.748 79.737 101.455 82.958C101.26 84.8125 101.26 87.2527 102.041 88.5215C102.236 88.8144 102.334 88.912 102.529 88.8144C102.724 88.8144 102.822 88.6192 102.919 88.3263C103.114 87.6431 103.114 86.667 103.114 85.8862C103.114 84.6173 103.212 83.5436 103.31 82.6652C103.7 80.6154 104.188 79.0537 104.676 77.1992C105.262 74.3686 105.457 71.1476 106.726 69.0003C107.019 68.6098 107.995 67.6338 107.604 66.6577C107.409 66.2673 106.726 65.9745 106.335 65.9745C105.457 66.1697 104.871 67.341 104.579 68.0242ZM90.328 81.8843C90.9137 81.6891 91.8897 81.3963 91.9873 80.713C91.9873 80.225 91.5969 79.737 91.3041 79.6394C90.5232 79.1513 88.4735 79.2489 87.3998 79.2489C83.3004 79.4442 79.2985 80.0298 75.5895 80.6154C71.8804 81.2011 68.0738 81.6891 63.9743 82.1771C60.0701 82.6652 56.1658 83.0556 52.4568 83.8364C50.6022 84.2269 48.9429 84.7149 46.9908 85.0077C46.0147 85.2029 45.1363 85.3005 44.1602 85.4957C43.2818 85.691 42.2081 85.9838 41.8177 86.4718C41.4272 86.8622 41.0368 88.3263 41.5249 89.1072C41.9153 89.6928 43.0866 89.6928 43.965 89.4976C45.5267 89.3024 46.7956 88.8144 48.1621 88.3263C48.8453 88.1311 49.5286 87.7407 50.3094 87.9359C50.3094 90.3761 49.3334 94.0851 51.0903 95.354C52.3592 93.6947 52.0663 90.4737 52.1639 87.6431C56.361 86.2766 61.5342 85.9838 66.3169 85.3005C71.0996 84.6173 75.8823 83.7388 80.8602 83.2508C81.5435 85.8862 81.3482 89.3024 82.5195 91.4497C82.7147 91.3521 82.91 91.4497 83.1052 91.4497C84.0812 89.1072 83.0076 85.9838 83.2028 83.1532C85.4477 82.6652 88.1807 82.5676 90.328 81.8843ZM95.9892 132.542C98.1365 128.638 99.6982 124.441 101.846 120.536C102.919 118.682 104.091 116.73 105.067 114.778C106.14 112.826 107.019 110.776 108.092 108.824C109.166 106.872 110.142 104.919 111.021 102.87C111.899 100.82 112.777 98.6726 113.851 96.7205C114.339 95.7444 114.925 94.9636 115.51 93.8899C115.901 93.0114 116.682 91.6449 116.487 90.3761C116.389 89.5952 115.901 89.2048 115.022 89.3024C113.363 89.3024 111.509 89.4976 109.752 89.5952C104.579 89.888 99.3078 90.1809 94.2323 90.4737C87.4974 90.9617 80.8602 91.7426 74.5158 92.8162C64.9504 94.3779 55.6778 95.9396 45.9171 97.2085C42.6961 97.5989 39.4751 97.8918 36.2541 98.575C36.2541 100.039 36.4493 101.21 36.8397 102.186C36.9374 102.479 37.1326 103.065 37.3278 103.162C37.523 103.26 38.2062 103.162 38.5967 103.162C41.5249 102.967 43.965 102.284 46.5028 101.796C51.0903 100.82 55.5802 100.332 59.9725 99.3559C61.4365 98.9654 62.9983 98.8678 64.6576 98.6726C67.781 98.2822 70.9044 97.6965 73.8326 97.2085C74.223 97.1109 74.6134 97.1109 74.9062 97.0133C75.199 96.9157 75.4919 96.7205 75.7847 96.5253C76.4679 96.3301 77.2488 96.2324 78.0296 96.1348C79.5913 95.9396 81.2506 95.7444 82.9099 95.7444C86.3262 95.6468 89.6448 95.354 92.6706 94.866C94.1347 94.5731 95.6964 94.3779 97.2581 94.0851C102.041 93.4995 107.312 93.4995 112.582 93.5971C111.899 95.5492 110.923 97.4037 110.045 99.2582C109.166 101.113 108.385 103.065 107.507 104.919C105.75 108.628 103.798 112.24 102.041 115.949C100.284 119.56 98.3317 123.269 96.5748 126.978C95.6964 128.735 94.9155 130.687 94.0371 132.737C93.4514 134.104 92.8658 135.665 92.2802 137.227C92.0849 137.618 91.7921 138.496 91.5969 138.594C91.3041 138.691 90.5232 138.691 89.9376 138.691C87.0094 138.594 84.5693 138.301 81.7387 138.203C80.5674 138.203 79.3961 138.301 78.4201 138.301C76.2727 138.398 74.0278 138.496 71.6852 138.496C69.3427 138.496 67.0001 138.398 64.7552 138.496C60.2653 138.691 55.9706 138.886 51.7735 139.277C49.6262 139.472 47.5764 139.667 45.5267 139.96C43.477 140.253 41.4272 140.643 39.1823 140.546C39.1823 140.546 39.1823 140.546 39.0847 140.546C37.7182 135.373 36.8397 129.907 36.1565 123.855C35.9613 122.391 35.7661 120.927 35.6685 119.463C35.3757 116.437 35.4733 113.314 34.8876 110.385C34.5948 109.019 34.8876 107.067 34.3996 105.993C34.302 105.798 34.1068 105.505 33.9116 105.407C32.7403 104.919 32.6427 106.384 32.5451 107.457C32.4475 108.238 32.5451 109.312 32.6427 109.995C32.9355 111.654 33.2283 113.216 33.4235 114.778C33.9116 118.096 34.2044 121.512 34.5948 124.733C34.9852 128.052 35.4733 131.176 36.0589 134.299C36.4493 136.641 36.9374 138.984 37.6206 141.034C37.8158 141.717 38.2062 142.595 38.5967 142.791C38.8895 142.986 39.5727 142.986 40.1584 142.986C41.9153 143.181 43.477 142.693 44.7459 142.4C46.6004 142.01 48.8453 141.717 50.8951 141.522C55.2873 141.131 59.6796 140.839 63.9743 140.643C70.8068 140.351 77.7368 140.448 84.4716 140.155C86.7166 140.058 88.9615 139.862 91.0113 140.351C91.2065 140.546 91.1089 140.741 91.1089 140.839C91.0113 141.034 90.9137 141.131 91.0113 141.327C91.6945 141.424 91.4993 140.643 91.7921 140.448C91.7921 140.448 91.9873 140.448 92.0849 140.351C92.3778 140.253 92.7682 140.058 93.061 140.058C94.6227 139.862 96.282 140.155 97.7461 139.96C97.4533 139.277 96.5748 138.984 95.794 138.789C95.0131 138.691 94.0371 138.496 93.061 138.594C93.7443 136.349 94.9155 134.494 95.9892 132.542ZM93.549 104.724C93.2562 106.188 93.3538 107.75 94.2323 108.531C94.9155 109.116 95.8916 109.312 96.9653 109.214C98.8198 109.116 100.479 108.238 101.748 107.164C102.822 106.188 104.188 104.627 104.188 102.674C104.188 101.308 103.31 100.43 102.334 99.8439C101.846 99.5511 101.26 99.3559 100.674 99.1606C100.089 98.8678 99.503 98.4774 98.8198 98.575C97.3557 98.8678 95.794 99.3559 94.4275 99.8439C94.4275 100.234 94.0371 100.527 94.1347 100.82C94.2323 101.113 94.7203 101.113 94.9155 101.308C94.3299 102.382 93.8419 103.358 93.549 104.724ZM98.6246 100.722C99.6006 100.625 100.674 100.82 101.455 101.21C102.138 101.503 102.822 101.991 102.724 103.162C102.626 103.846 102.236 104.431 101.846 104.919C101.065 105.798 100.089 106.774 98.8198 107.262C97.4533 107.75 95.1107 108.043 94.9155 106.286C94.8179 105.603 95.1107 104.919 95.306 104.431C95.794 103.358 96.282 102.479 97.0629 101.698C97.5509 101.21 97.9413 100.82 98.6246 100.722ZM90.5232 105.31C90.8161 103.748 91.0113 102.089 91.4993 100.918C91.5969 100.625 92.0849 100.332 92.0849 100.039L91.9873 99.8439C91.8897 99.1606 90.9137 98.575 90.1328 98.575C89.2544 98.6726 88.1807 98.9654 87.107 99.2582C86.131 99.4535 84.8621 99.7463 83.886 99.4535C83.398 99.3558 83.2028 98.8678 82.6171 98.7702C82.3243 99.063 82.2267 99.5511 81.8363 99.7463C81.4459 99.9415 80.8602 100.039 80.2746 100.039C78.5177 100.234 76.5655 100.137 74.9062 100.332C72.5637 100.527 70.3187 100.918 68.1714 101.113C63.7791 101.698 58.8988 102.284 54.3113 101.796C52.5544 104.139 53.4328 109.019 54.1161 111.849C54.2137 112.337 54.4089 112.826 54.5065 113.216C54.6041 113.899 54.4089 114.485 54.8969 114.778C55.385 115.07 56.361 114.68 56.9467 114.582C59.1916 114.29 61.5342 114.192 63.6815 113.997C68.269 113.509 72.3685 112.923 76.6631 112.337C80.9578 111.654 86.0333 112.045 89.84 110.873C89.1567 108.824 90.1328 107.164 90.5232 105.31ZM89.352 101.113C89.352 102.674 88.8639 104.041 88.5711 105.505C88.2783 106.872 87.9855 108.336 87.8879 109.995C77.6392 111.361 66.4145 111.557 55.7754 112.533C55.0921 110.483 55.2873 107.457 55.2873 104.822C59.4844 103.943 64.0719 103.748 68.4642 103.162C72.7589 102.577 77.1512 101.894 81.8363 101.698C81.5435 103.455 81.153 105.505 81.0554 107.652C81.0554 108.238 80.9578 109.312 81.2506 109.702C81.4459 109.897 81.7387 109.8 82.0315 109.897C83.2028 107.555 83.398 104.139 84.0812 101.308C85.3501 101.113 86.9118 100.918 88.2783 100.82C88.6687 100.82 89.1567 100.722 89.352 101.113ZM39.3775 105.115C38.5967 105.603 37.7182 106.188 37.2302 106.872C36.2541 108.14 35.4733 110.971 36.4493 112.923C37.8158 115.559 43.0866 114.973 46.1124 114.192C47.2836 113.899 48.5525 113.314 49.431 112.63C50.3094 111.947 51.1879 110.873 51.2855 109.507C51.3831 108.336 50.9927 107.457 50.6022 106.774C50.2118 105.993 49.7238 105.407 49.0405 104.919C47.7717 104.139 45.8195 104.529 44.3554 104.822C43.965 104.919 43.3794 105.017 43.0866 104.919C42.5985 104.724 42.7937 104.041 41.9153 104.041C40.6464 103.943 40.1584 104.529 39.3775 105.115ZM45.1363 106.286C46.21 106.188 47.186 106.384 47.8693 106.676C48.7477 107.067 49.7238 107.652 49.8214 108.726C49.919 109.605 49.431 110.483 49.0405 110.873C47.4788 112.533 43.5746 113.021 40.4512 112.435C39.2799 112.24 38.2062 111.849 38.1086 110.678C38.011 110.093 38.2062 109.702 38.4014 109.116C38.4991 108.726 38.7919 108.14 39.0847 107.945C39.3775 107.652 39.9631 107.457 40.4512 107.36C40.9392 107.164 41.4272 107.067 41.9153 106.872C42.8913 106.676 43.8674 106.384 45.1363 106.286ZM41.9153 126.881C42.6961 126.881 43.477 126.588 44.2578 126.49C45.7219 126.198 47.2836 125.807 48.7477 125.514C49.5286 125.319 50.3094 125.319 50.9927 125.026C51.2855 124.929 51.3831 124.734 51.5783 124.636C52.0663 125.124 52.652 124.636 53.2376 124.343C53.628 124.148 53.9209 124.05 54.4089 123.953C55.385 123.757 56.2634 123.855 57.4347 123.757C57.5323 123.66 57.5323 123.465 57.7275 123.465C57.9227 123.367 58.4108 123.367 58.8012 123.269C59.8748 123.172 61.2413 123.367 62.2174 123.172C62.9006 123.074 63.4863 122.879 64.1695 122.684C66.1217 122.196 68.8546 122.391 71.002 122.196C72.3685 122.098 74.0278 121.903 75.3943 121.708C78.1272 121.317 81.2506 121.024 84.1788 120.732C85.6429 120.634 87.107 120.439 88.3759 120.048C88.9615 119.853 89.5472 119.56 90.1328 119.365C91.1089 118.975 92.7682 119.17 92.7682 117.999C92.7682 117.023 91.4017 116.632 90.328 116.73C90.328 116.73 90.328 116.73 90.2304 116.73C88.1807 116.827 86.0333 117.218 83.9836 117.511C82.9099 117.608 81.8363 117.608 80.665 117.511C79.5913 117.413 78.4201 117.608 77.3464 117.706C73.0517 117.999 68.6594 118.487 64.56 118.877C55.9706 119.951 48.5525 121.805 40.3536 122.879C39.8655 124.733 40.0608 126.881 41.9153 126.881ZM77.2488 123.074C70.3187 123.953 63.8767 125.026 56.9467 126.1C54.7993 126.393 51.4807 126.588 49.0405 126.978C48.0645 127.174 47.186 127.271 46.8932 127.759C46.4052 128.54 46.6004 130.883 47.186 131.371C47.7717 131.761 49.3334 131.468 50.1142 131.371C52.8472 130.883 55.1897 130.004 57.9227 129.516C63.4863 128.54 68.9522 127.662 74.4182 126.588C76.1751 126.295 77.932 125.71 79.7865 125.514C82.5195 125.124 85.9357 125.222 88.2783 124.343C88.9615 124.05 90.0352 123.562 89.9376 122.684C89.84 121.708 88.3759 121.708 87.3998 121.708C83.6908 121.805 80.665 122.684 77.2488 123.074ZM84.9597 127.369C82.2267 127.662 79.4937 128.15 76.7607 128.443C73.2469 128.931 69.3427 129.223 65.536 129.614C61.9246 130.004 58.1179 130.59 54.7017 131.176C52.2616 131.566 49.1381 131.859 46.698 132.444C45.8195 132.64 44.9411 132.932 44.453 133.323C43.7698 133.909 43.7698 135.47 44.3554 136.056C44.8435 136.544 45.5267 136.349 46.3076 136.153C46.7956 136.056 47.3812 136.056 47.7717 135.958C48.7477 135.763 49.6262 135.47 50.407 135.177C52.2616 134.689 54.2137 134.397 56.0682 134.104C61.827 133.128 67.8786 132.249 73.7349 131.468C75.7847 131.176 77.7368 131.078 79.7865 130.687C81.7387 130.395 83.5932 129.907 85.4477 129.614C87.3022 129.321 89.1568 129.028 90.6208 128.052C89.84 126.686 86.9118 127.174 84.9597 127.369ZM91.8897 141.229C92.1826 141.229 92.1826 140.643 91.8897 140.741C91.5969 140.839 91.5969 141.229 91.8897 141.229Z" fill="white"/>
<path fill-rule="evenodd" clip-rule="evenodd" d="M126.149 88.814C127.126 88.7164 130.444 88.5212 131.03 89.1068C131.42 89.4973 131.323 90.9614 131.323 91.8398C131.323 93.6943 131.323 95.3537 131.323 97.3058C131.323 98.0866 131.225 99.5507 131.615 99.9411C132.006 100.234 133.86 100.039 134.544 100.039C135.129 100.039 135.617 100.039 136.105 100.039C136.593 100.039 137.277 100.039 137.472 99.8435C137.862 99.5507 137.667 98.1842 137.667 97.3058C137.667 95.256 137.667 93.8896 137.667 91.7422C137.667 90.6685 137.569 89.3997 138.057 89.0092C138.643 88.5212 139.912 88.7164 141.083 88.7164C142.45 88.7164 143.914 88.5212 144.304 89.3021C144.499 89.6925 144.499 90.3757 144.499 91.1566C144.499 99.7459 144.499 107.847 144.499 116.437C144.499 117.803 144.792 120.048 144.011 120.536C143.523 120.927 142.255 120.731 141.278 120.731C140.01 120.731 138.35 121.024 137.862 120.243C137.472 119.658 137.667 117.998 137.667 116.925C137.667 113.801 137.667 111.263 137.667 108.14C137.667 107.652 137.667 106.774 137.472 106.578C137.081 106.188 135.227 106.383 134.544 106.383C133.958 106.383 133.47 106.383 132.982 106.383C132.494 106.383 131.811 106.286 131.518 106.578C131.03 106.969 131.323 109.116 131.323 109.995C131.323 112.532 131.323 114.777 131.323 117.315C131.323 118.486 131.518 120.048 130.835 120.536C130.249 120.927 128.98 120.731 128.004 120.731C126.833 120.731 125.076 120.927 124.685 120.243C124.295 119.56 124.49 117.706 124.49 116.534C124.49 108.726 124.49 100.82 124.49 93.0111C124.49 91.9374 124.295 89.6925 124.783 89.1068C125.173 88.814 125.661 88.814 126.149 88.814Z" fill="white"/>
<path fill-rule="evenodd" clip-rule="evenodd" d="M169.781 118.389C169.292 116.339 168.804 114.387 168.316 112.435C167.536 109.604 167.048 107.457 166.267 104.529C165.291 100.527 164.315 96.6228 163.241 92.621C163.046 91.6449 162.655 89.4 161.874 89.0095C161.289 88.7167 159.532 88.8143 158.556 88.8143C157.189 88.8143 155.92 88.8143 155.14 88.8143C153.871 88.9119 153.871 89.5952 153.578 90.7665C151.431 100.039 149.088 109.409 146.941 118.584C146.843 119.17 146.453 120.146 146.843 120.634C147.038 120.927 147.721 120.829 148.21 120.829H149.771C150.747 120.829 152.016 121.024 152.699 120.732C153.383 120.439 153.48 119.072 153.675 118.194C153.773 117.803 153.871 117.315 153.968 116.827C154.066 116.437 154.163 115.851 154.456 115.656C154.847 115.363 155.725 115.461 156.311 115.461H160.02C160.606 115.461 161.386 115.363 161.777 115.558C162.167 115.754 162.265 116.339 162.362 116.73C162.46 117.218 162.655 117.706 162.753 118.194C162.948 119.072 163.143 120.341 163.729 120.732C164.119 120.927 164.705 120.927 165.388 120.927H167.048C167.828 120.927 169.585 121.122 169.976 120.634C170.366 120.048 169.976 119.072 169.781 118.389ZM156.116 109.116C156.018 108.336 156.311 107.555 156.506 106.774C156.799 105.212 157.092 103.846 157.482 102.186C157.677 101.503 157.775 100.527 158.068 99.9414L158.165 99.8438H158.263C158.751 100.429 158.751 101.308 158.946 102.089C159.337 103.65 159.727 105.115 160.117 106.676C160.313 107.457 160.606 108.238 160.508 109.019C159.141 109.214 157.385 109.214 156.116 109.116Z" fill="white"/>
<path fill-rule="evenodd" clip-rule="evenodd" d="M172.318 91.2545C172.318 99.9414 172.318 108.238 172.318 116.925C172.318 118.194 172.122 120.048 172.708 120.439C173.294 120.927 175.539 120.732 176.807 120.732C184.909 120.732 192.717 120.732 200.721 120.732C201.795 120.732 203.942 120.927 204.43 120.536C205.113 120.048 204.918 117.999 204.918 116.73C204.918 108.824 204.918 101.015 204.918 93.109C204.918 92.0353 205.113 89.9856 204.723 89.4C204.235 88.6191 202.771 88.8143 201.404 88.8143C200.331 88.8143 198.964 88.7167 198.378 89.2047C197.89 89.6928 198.086 91.2545 198.086 92.4258C198.086 99.551 198.086 106.188 198.086 113.118C198.086 113.704 198.183 114.387 197.988 114.68C197.793 114.973 197.012 114.875 196.524 114.875C196.036 114.875 195.45 114.875 194.962 114.875C194.279 114.875 192.424 115.07 192.132 114.68C191.839 114.387 191.936 113.899 191.936 113.118C191.936 105.993 191.936 99.1606 191.936 92.1329C191.936 91.0593 192.132 89.6928 191.644 89.2047C191.058 88.6191 189.691 88.8143 188.618 88.8143C187.544 88.8143 186.08 88.7167 185.494 89.1071C184.909 89.5952 185.104 91.3521 185.104 92.5234C185.104 98.9654 185.104 105.31 185.104 111.654C185.104 112.533 185.202 114.387 184.909 114.68C184.714 114.875 183.933 114.875 183.445 114.875C182.859 114.875 182.469 114.875 181.981 114.875C181.2 114.875 179.54 115.07 179.15 114.68C178.76 114.29 178.955 112.63 178.955 111.654C178.955 105.212 178.955 98.6726 178.955 92.4258C178.955 91.4497 179.052 89.888 178.76 89.4C178.369 88.7167 177.393 88.8143 176.319 88.8143C175.343 88.8143 174.27 88.8143 173.586 88.8143C172.122 88.9119 172.318 89.5952 172.318 91.2545Z" fill="white"/>
<path fill-rule="evenodd" clip-rule="evenodd" d="M208.724 89.2049C208.236 89.7906 208.431 91.8403 208.431 93.0116C208.431 101.015 208.431 108.921 208.431 116.925C208.431 118.194 208.236 120.049 208.822 120.537C209.212 120.927 210.09 120.829 210.969 120.829C214.873 120.829 218.68 120.829 222.584 120.829C223.95 120.829 226.293 121.025 226.879 120.537C227.367 120.146 227.269 118.877 227.269 117.804C227.269 116.73 227.367 115.754 227.074 115.266C226.683 114.778 225.317 114.875 224.341 114.875C221.803 114.875 219.363 114.875 216.728 114.875C216.337 114.875 215.459 114.973 215.361 114.778C215.166 114.583 215.264 113.411 215.264 112.923C215.264 111.654 215.264 110.288 215.264 109.019C215.264 108.433 215.166 107.457 215.459 107.164C215.752 106.872 216.923 107.067 217.508 107.067C219.168 107.067 220.241 107.067 221.901 107.067C222.486 107.067 223.56 107.164 223.853 106.872C224.243 106.481 224.048 105.017 224.048 104.236C224.048 103.358 224.243 101.991 223.853 101.503C223.56 101.015 222.682 101.113 221.901 101.113C220.241 101.113 219.168 101.113 217.508 101.113C216.923 101.113 215.654 101.308 215.361 101.015C215.166 100.82 215.264 100.137 215.264 99.5512C215.264 98.9656 215.264 98.4775 215.264 97.9895C215.264 97.2086 215.068 95.3541 215.459 94.9637C215.654 94.7685 216.24 94.7685 216.728 94.7685C219.168 94.7685 221.608 94.7685 223.95 94.7685C225.024 94.7685 226 94.8661 226.488 94.3781C226.879 93.9876 226.781 92.6211 226.781 91.8403C226.781 91.0594 226.879 89.7906 226.586 89.3025C226.293 88.8145 225.415 88.8145 224.439 88.8145C222.194 88.8145 220.437 88.8145 218.289 88.8145C215.654 88.8145 212.433 88.7169 209.993 88.8145C209.505 88.8145 209.017 88.9121 208.724 89.2049Z" fill="white"/>
<path fill-rule="evenodd" clip-rule="evenodd" d="M204.624 127.662C203.16 126.686 201.11 126.1 198.67 126.295C197.792 126.393 197.011 126.49 196.23 126.686C194.083 127.271 192.618 128.638 191.838 130.492C191.252 131.956 191.154 133.811 191.545 135.275C192.228 138.203 194.375 139.96 197.401 140.448C198.963 140.643 200.817 140.741 202.379 140.253C205.014 139.57 207.162 137.52 207.357 134.299C207.552 130.98 206.381 128.931 204.624 127.662ZM201.793 136.544C200.622 137.91 197.694 137.715 196.718 136.153C195.937 134.885 196.035 132.152 196.62 130.98C197.011 130.297 197.792 129.711 198.963 129.614C200.329 129.516 201.501 130.004 201.989 130.785C202.867 132.152 202.672 135.373 201.793 136.544Z" fill="white"/>
<path fill-rule="evenodd" clip-rule="evenodd" d="M136.398 128.735C136.007 127.955 135.324 127.369 134.641 126.979C133.274 126.393 131.42 126.49 129.468 126.49C127.515 126.49 125.563 126.49 123.806 126.49V126.588C123.806 131.176 123.806 135.763 123.806 140.351C125.368 140.351 127.027 140.351 128.589 140.351C128.589 138.594 128.589 136.934 128.589 135.177C132.396 135.373 135.714 135.08 136.593 132.347C136.886 131.371 136.886 129.809 136.398 128.735ZM132.005 131.566C131.517 132.542 129.956 132.444 128.491 132.444C128.491 131.468 128.491 130.492 128.491 129.419V129.321C129.565 129.321 130.736 129.223 131.42 129.614C132.103 130.004 132.396 130.785 132.005 131.566Z" fill="white"/>
<path fill-rule="evenodd" clip-rule="evenodd" d="M147.233 126.49C145.476 126.49 143.816 126.49 142.059 126.49C140.107 131.078 138.155 135.763 136.301 140.35C137.862 140.35 139.522 140.35 141.083 140.35C141.376 139.667 141.571 138.691 141.864 138.008C143.621 138.008 145.378 138.008 147.135 138.008C147.428 138.789 147.623 139.569 147.916 140.35C149.575 140.35 151.234 140.35 152.894 140.35C151.137 135.763 149.185 131.175 147.233 126.49ZM142.938 135.08C143.426 133.42 144.012 131.761 144.597 130.102C145.183 131.761 145.769 133.42 146.257 135.08C145.183 135.08 144.012 135.08 142.938 135.08Z" fill="white"/>
<path fill-rule="evenodd" clip-rule="evenodd" d="M170.657 137.227C170.657 133.713 170.657 130.101 170.657 126.588C166.363 126.588 162.068 126.588 157.773 126.588V126.685C157.871 130.785 157.676 134.591 156.407 137.227C155.919 137.227 155.431 137.227 154.943 137.227C154.845 139.276 154.943 141.424 154.943 143.474C156.212 143.474 157.481 143.474 158.75 143.474C158.75 142.497 158.75 141.424 158.75 140.448C161.971 140.448 165.289 140.448 168.51 140.448C168.51 141.424 168.51 142.4 168.51 143.474C169.779 143.474 171.048 143.474 172.317 143.474C172.317 141.424 172.317 139.276 172.317 137.227C171.731 137.227 171.146 137.227 170.657 137.227ZM165.777 137.227C164.118 137.227 162.556 137.227 160.994 137.227C161.482 134.982 162.068 132.737 162.068 130.101C162.068 130.004 162.068 130.004 162.068 130.004C163.337 130.004 164.606 130.004 165.875 130.004C165.875 132.346 165.875 134.884 165.777 137.227Z" fill="white"/>
<path fill-rule="evenodd" clip-rule="evenodd" d="M174.758 126.588C174.758 131.175 174.758 135.763 174.758 140.35C176.222 140.35 177.686 140.35 179.248 140.35C181.2 137.91 183.054 135.177 185.006 132.835C185.006 135.372 185.006 137.91 185.006 140.35C186.471 140.35 187.935 140.35 189.496 140.35C189.496 135.763 189.496 131.078 189.496 126.49C188.032 126.49 186.568 126.49 185.104 126.49C183.152 128.93 181.297 131.663 179.345 134.104C179.345 131.566 179.345 129.028 179.345 126.49C177.881 126.49 176.417 126.49 174.855 126.49C174.758 126.49 174.758 126.588 174.758 126.588Z" fill="white"/>
<path d="M41.3293 168.754C41.7197 168.754 41.7197 169.046 41.7197 169.242V170.999C41.7197 171.194 41.7197 171.389 41.3293 171.389H38.6939C38.4987 171.389 38.3035 171.487 38.3035 171.779V182.028C38.3035 182.419 38.3035 182.711 37.6203 182.711H36.0586C35.3753 182.711 35.3753 182.419 35.3753 182.028V171.779C35.3753 171.584 35.2777 171.389 34.9849 171.389H32.5447C32.2519 171.389 32.0567 171.194 32.0567 170.999V169.144C32.0567 168.851 32.2519 168.754 32.4471 168.754H41.3293Z" fill="white"/>
<path d="M42.8918 173.83C42.8918 172.561 42.7942 168.559 47.1865 168.559C51.2859 168.559 51.4811 171.877 51.4811 173.83V177.636C51.4811 178.905 51.5787 182.907 47.1865 182.907C42.7942 182.907 42.8918 178.905 42.8918 177.636V173.83ZM48.6506 174.22C48.6506 172.561 48.6506 171.194 47.2841 171.194C45.9176 171.194 45.9176 172.463 45.9176 174.22V177.343C45.9176 179.003 45.9176 180.369 47.2841 180.369C48.6506 180.369 48.6506 179.1 48.6506 177.343V174.22Z" fill="white"/>
<path d="M62.5097 168.754C63.193 168.754 63.193 169.046 63.193 169.437V182.028C63.193 182.419 63.193 182.711 62.5097 182.711H60.948C60.2648 182.711 60.2648 182.419 60.2648 182.028V171.682C60.2648 171.389 60.0696 171.389 59.8744 171.389H58.1175C58.1175 171.389 57.8246 171.389 57.8246 171.584L57.727 173.927C57.6294 178.514 58.1175 182.809 53.9204 182.809C52.8467 182.809 52.5539 182.711 52.5539 182.126V180.369C52.5539 180.174 52.5539 179.978 53.0419 179.978H53.2371C54.506 179.978 54.7012 179.978 54.7988 172.658V169.437C54.7988 169.046 54.7988 168.754 55.4821 168.754H62.5097Z" fill="white"/>
<path d="M65.4385 169.535C65.4385 169.145 65.4385 168.852 66.1217 168.852H67.6834C68.3667 168.852 68.3667 169.145 68.3667 169.535V173.537C68.3667 173.635 68.3667 173.732 68.5619 173.732H70.026C73.0518 173.732 74.7111 175.587 74.7111 178.417C74.7111 182.321 71.6853 182.712 69.8308 182.712H66.1217C65.4385 182.712 65.4385 182.419 65.4385 182.029V169.535ZM68.3667 179.686C68.3667 179.881 68.4643 179.979 68.6595 179.979H69.9284C70.9044 179.979 71.4901 179.003 71.4901 178.124C71.4901 177.148 70.8068 176.367 69.6355 176.367H68.6595C68.3667 176.367 68.3667 176.563 68.3667 176.66V179.686Z" fill="white"/>
<path d="M84.9607 168.754C85.6439 168.754 85.644 169.047 85.644 169.437V182.028C85.644 182.712 85.3511 182.712 84.9607 182.712H83.399C82.7158 182.712 82.7158 182.419 82.7158 182.028V177.05C82.7158 176.953 82.7158 176.855 82.5205 176.855H82.1301C81.9349 176.855 81.8373 176.953 81.7397 177.148L79.3971 182.321C79.2995 182.516 79.2019 182.712 78.6163 182.712H76.5666C76.1761 182.712 75.9809 182.321 76.1761 182.028L78.7139 176.66C78.8115 176.562 78.8115 176.465 78.8115 176.367C78.8115 176.172 78.4211 176.172 78.0307 175.782C76.8594 174.903 76.469 173.634 76.469 172.658C76.469 170.901 77.6402 168.754 81.3493 168.754H84.9607ZM82.7158 171.682C82.7158 171.487 82.6182 171.389 82.4229 171.389H81.5445C80.178 171.389 79.69 172.17 79.69 172.951C79.69 173.829 80.4708 174.513 81.5445 174.513H82.4229C82.7158 174.513 82.7158 174.317 82.7158 174.122V171.682Z" fill="white"/>
<path d="M96.1846 168.754C96.575 168.754 96.575 169.047 96.575 169.242V170.999C96.575 171.194 96.575 171.389 96.1846 171.389H93.5492C93.354 171.389 93.1588 171.487 93.1588 171.78V182.028C93.1588 182.419 93.1588 182.712 92.4756 182.712H90.9139C90.2306 182.712 90.2306 182.419 90.2306 182.028V171.78C90.2306 171.584 90.133 171.389 89.8402 171.389H87.3024C87.0096 171.389 86.8144 171.194 86.8144 170.999V169.144C86.8144 168.852 87.0096 168.754 87.2048 168.754H96.1846Z" fill="white"/>
<path d="M106.53 168.754C106.921 168.754 106.921 169.047 106.921 169.242V170.999C106.921 171.194 106.921 171.389 106.53 171.389H103.895C103.7 171.389 103.505 171.487 103.505 171.78V182.028C103.505 182.419 103.505 182.712 102.821 182.712H101.26C100.576 182.712 100.576 182.419 100.576 182.028V171.78C100.576 171.584 100.479 171.389 100.186 171.389H97.6481C97.3553 171.389 97.1601 171.194 97.1601 170.999V169.144C97.1601 168.852 97.3553 168.754 97.5505 168.754H106.53Z" fill="white"/>
<path d="M108.873 182.711C108.482 182.711 108.189 182.711 108.189 182.028V169.437C108.189 169.046 108.189 168.754 108.873 168.754H110.434C111.118 168.754 111.118 169.046 111.118 169.437V175.977H111.215L113.851 169.437C113.948 169.144 114.143 168.754 114.631 168.754H116.291C116.974 168.754 116.974 169.046 116.974 169.437V182.028C116.974 182.419 116.974 182.711 116.291 182.711H114.729C114.046 182.711 114.046 182.419 114.046 182.028V175.196H113.948L111.41 182.028C111.313 182.419 111.118 182.711 110.532 182.711H108.873Z" fill="white"/>
<path d="M137.96 175.196C137.96 177.929 137.569 182.712 130.346 182.712C124.88 182.712 125.173 181.541 125.173 181.053V178.515C125.173 178.417 125.173 178.124 125.759 178.124C128.882 178.124 127.418 178.808 130.054 178.808C132.982 178.808 132.982 176.563 132.982 175.294V174.513C132.982 174.415 132.982 174.318 132.787 174.318C132.591 174.318 132.494 174.513 132.006 174.708C131.42 175.001 130.346 175.196 129.663 175.196C127.418 175.196 124.588 174.025 124.588 169.828V165.24C124.588 161.531 127.223 159.189 131.615 159.189C137.569 159.189 138.155 163.776 138.155 166.216V175.196H137.96ZM129.37 169.047C129.37 170.316 130.054 170.999 131.127 170.999C132.299 170.999 132.884 170.218 132.884 169.047V165.045C132.884 164.069 132.299 163.093 131.127 163.093C129.858 163.093 129.37 163.971 129.37 165.045V169.047Z" fill="white"/>
<path d="M140.693 166.607C140.693 163.971 141.083 159.091 148.306 159.091C152.991 159.091 153.187 160.067 153.187 160.75V163.288C153.187 163.386 153.186 163.678 152.601 163.678C149.868 163.678 151.039 162.995 148.697 162.995C145.768 162.995 145.768 165.24 145.768 166.509V167.29C145.768 167.387 145.768 167.485 145.964 167.485C146.159 167.485 146.256 167.29 146.744 167.095C147.33 166.802 148.404 166.607 149.087 166.607C151.332 166.607 154.163 167.778 154.163 171.975V176.562C154.163 180.271 151.527 182.614 147.135 182.614C141.181 182.614 140.595 178.026 140.595 175.586V166.607H140.693ZM149.282 172.853C149.282 171.584 148.599 170.901 147.525 170.901C146.354 170.901 145.768 171.682 145.768 172.853V176.855C145.768 177.831 146.354 178.807 147.525 178.807C148.794 178.807 149.282 177.929 149.282 176.855V172.853Z" fill="white"/>
<path d="M161.677 177.636C162.556 177.636 162.653 178.124 162.653 178.514V182.126C162.653 184.761 160.701 186.323 158.652 186.323H158.261C157.675 186.323 157.675 185.932 157.675 185.737V184.761C157.675 184.273 158.066 184.468 158.554 184.273C159.14 184.078 159.432 183.59 159.432 182.906V182.711C159.432 182.614 159.335 182.418 159.14 182.418H158.554C157.675 182.418 157.578 181.93 157.578 181.54V178.612C157.578 177.733 158.066 177.733 158.554 177.733H161.677V177.636Z" fill="white"/>
<path d="M166.071 166.607C166.071 163.971 166.461 159.091 173.684 159.091C178.369 159.091 178.564 160.067 178.564 160.75V163.288C178.564 163.386 178.564 163.678 177.979 163.678C175.246 163.678 176.417 162.995 174.075 162.995C171.146 162.995 171.146 165.24 171.146 166.509V167.29C171.146 167.387 171.146 167.485 171.342 167.485C171.537 167.485 171.634 167.29 172.122 167.095C172.708 166.802 173.782 166.607 174.465 166.607C176.71 166.607 179.54 167.778 179.54 171.975V176.562C179.54 180.271 176.905 182.614 172.513 182.614C166.559 182.614 165.973 178.026 165.973 175.586V166.607H166.071ZM174.66 172.853C174.66 171.584 173.977 170.901 172.903 170.901C171.732 170.901 171.146 171.682 171.146 172.853V176.855C171.146 177.831 171.732 178.807 172.903 178.807C174.172 178.807 174.66 177.929 174.66 176.855V172.853Z" fill="white"/>
<path d="M191.448 160.555C191.448 159.969 191.448 159.383 192.619 159.383H203.454C204.625 159.383 204.625 159.969 204.625 160.555V163.092C204.625 163.873 203.844 163.873 203.551 163.873H197.012C196.816 163.873 196.426 163.873 196.426 164.361V167.875C196.426 168.168 196.426 168.461 196.816 168.461H202.282C202.966 168.461 203.063 168.851 203.063 169.046V172.072C203.063 172.267 203.063 172.755 202.38 172.755H196.914C196.426 172.755 196.426 173.048 196.426 173.341V181.345C196.426 182.418 195.84 182.516 195.255 182.516H192.619C192.034 182.516 191.448 182.516 191.448 181.345V160.555Z" fill="white"/>
<path d="M212.727 181.345C212.727 182.418 212.141 182.516 211.555 182.516H208.92C208.334 182.516 207.749 182.516 207.749 181.345V160.555C207.749 159.969 207.749 159.383 208.92 159.383H211.946C212.727 159.383 213.117 160.067 213.215 160.164L216.924 167.289C217.021 167.485 217.119 167.875 217.314 167.875C217.509 167.875 217.607 167.485 217.705 167.387L221.414 160.359C221.609 160.067 221.902 159.481 222.683 159.481H225.611C226.782 159.481 226.782 160.067 226.782 160.652V181.442C226.782 182.516 226.196 182.614 225.611 182.614H222.975C221.804 182.614 221.804 182.028 221.804 181.442V169.73C221.804 169.632 221.804 169.534 221.707 169.534C221.707 169.534 221.609 169.534 221.609 169.632L218.974 175.879C218.876 176.172 218.583 176.757 218.095 176.757H216.924C216.533 176.757 216.241 176.464 216.045 175.879L213.312 169.437C213.312 169.339 213.117 169.339 213.117 169.437V181.345H212.727Z" fill="white"/>
</svg>
