<svg width="261" height="260" viewBox="0 0 261 260" fill="none" xmlns="http://www.w3.org/2000/svg">
<rect x="0.896289" y="0.495899" width="259.008" height="259.008" rx="19.5041" fill="#F7F4FF"/>
<path fill-rule="evenodd" clip-rule="evenodd" d="M205.438 142.708C205.748 141.556 206.146 140.493 206.412 139.385C206.722 138.278 207.077 137.303 207.387 136.196C207.963 134.114 208.716 131.899 209.292 129.773L218.55 129.817L214.652 142.708H205.438ZM192.414 148.909L218.727 148.954C219.701 148.954 221.075 148.511 221.916 148.112C223.777 147.226 224.929 145.631 225.549 143.726C225.726 143.239 225.815 142.663 225.992 142.176C226.169 141.644 226.302 141.157 226.479 140.626C227.099 138.544 227.808 136.462 228.384 134.424C228.782 132.962 230.111 129.285 230.111 128.089C230.111 127.026 230.244 126.14 229.536 125.21C229.27 124.856 228.827 124.501 228.384 124.324C226.346 123.35 223.068 123.571 220.853 123.571C213.987 123.571 206.944 123.482 200.122 123.571C199.856 123.97 195.825 137.613 195.293 139.43L193.344 145.808C193.167 146.251 192.414 148.599 192.414 148.909Z" fill="#040000"/>
<path fill-rule="evenodd" clip-rule="evenodd" d="M31.924 136.24C32.0568 135.664 32.2783 135.221 32.4555 134.601L33.4744 131.367C33.6073 130.924 33.9173 130.171 33.9616 129.728C36.2208 129.728 38.4357 129.728 40.6949 129.728C41.758 129.728 43.2641 129.462 43.0427 130.57C42.9098 131.057 42.4668 132.696 42.2453 133.095C41.9795 133.538 41.8023 133.582 41.2265 133.759C39.9418 134.202 32.4555 136.018 31.924 136.24ZM17.0842 148.776V148.909H28.1587C28.3801 148.377 28.6459 147.359 28.8231 146.783C29.0446 146.03 29.2661 145.277 29.4876 144.568C29.5762 144.302 30.8165 139.961 30.9051 140.094L34.4046 140.049C34.8476 140.67 35.1134 141.556 35.4678 142.22C35.8664 142.973 36.1322 143.682 36.5309 144.479L38.6572 148.953H51.0162C50.3518 147.491 49.3772 145.764 48.6242 144.213C48.447 143.815 46.2764 139.651 46.2321 139.385C46.6308 139.252 47.1623 139.252 47.6496 139.119C48.6242 138.898 49.2443 138.72 50.1303 138.233C52.3009 137.081 52.7438 135.177 53.364 133.006C54.3829 129.507 56.4648 124.944 51.6364 123.792C49.9088 123.393 47.1623 123.526 45.1689 123.526C38.3471 123.526 31.5696 123.526 24.7477 123.526L17.0399 148.732C17.0842 148.732 17.0842 148.776 17.0842 148.776Z" fill="#040000"/>
<path fill-rule="evenodd" clip-rule="evenodd" d="M89.5554 188.29C89.5554 187.625 89.9098 186.075 90.087 185.366C90.6629 183.107 91.5488 179.474 92.3905 177.437C93.2764 175.31 93.808 174.513 96.2001 174.38C97.8834 174.291 101.471 173.893 101.471 175.842V176.994C101.471 177.924 100.453 181.379 100.143 182.531C99.6553 184.303 99.168 186.03 98.4592 187.714C97.6176 189.707 97.1303 190.416 94.5611 190.682C93.5422 190.814 92.169 190.77 91.2387 190.593C89.5997 190.372 89.5554 189.796 89.5554 188.29ZM90.53 193.96H93.9852C94.0738 193.915 95.8014 193.694 96.1115 193.605C98.1935 193.074 99.3895 192.232 100.718 190.549C102.047 188.821 103.11 185.809 103.819 183.461C104.572 180.98 105.458 177.791 105.237 174.823C104.971 171.722 102.047 171.058 98.8136 171.058C96.0672 171.058 92.8777 171.456 91.0172 173.406C89.4668 175 88.3594 177.702 87.562 180.139C87.1633 181.468 86.809 182.708 86.4546 184.081C86.1445 185.41 85.7458 187.049 85.7458 188.511C85.7458 190.814 85.9673 192.586 88.3594 193.472C89.3782 193.871 90.2199 193.782 90.53 193.96Z" fill="#040000"/>
<path fill-rule="evenodd" clip-rule="evenodd" d="M141.561 174.38C142.048 174.292 141.65 174.292 142.403 174.292C143.244 174.292 144.175 174.247 145.016 174.425C145.371 174.513 146.035 174.779 146.257 175C146.478 175.266 146.567 175.931 146.567 176.418C146.522 178.367 145.105 182.841 144.485 185.056C144.219 185.986 143.909 186.828 143.554 187.67C142.757 189.752 142.093 190.505 139.612 190.77C138.726 190.859 136.91 190.815 136.112 190.682C135.625 190.593 135.138 190.416 134.916 190.106C133.942 188.733 135.404 184.347 135.802 182.797C136.378 180.538 137.22 176.861 138.815 175.222C139.745 174.203 141.251 174.425 141.561 174.38ZM135.492 193.96H138.947C139.257 193.783 140.896 193.96 142.978 192.941C144.175 192.365 144.928 191.568 145.681 190.593C146.124 190.062 146.301 189.619 146.611 189.043C148.294 186.119 150.642 178.057 150.199 174.912C149.978 173.406 149.535 172.564 148.206 171.855C145.681 170.526 138.372 170.659 136.024 173.406C135.226 174.336 134.518 175.089 133.942 176.374C132.524 179.519 130.752 185.233 130.664 188.423C130.575 190.15 130.885 191.523 131.727 192.454C132.126 192.897 132.613 193.207 133.233 193.428C133.499 193.517 133.897 193.65 134.252 193.694L135.359 193.871C135.448 193.916 135.448 193.916 135.492 193.96Z" fill="#040000"/>
<path fill-rule="evenodd" clip-rule="evenodd" d="M110.243 184.967C110.42 184.568 110.553 184.524 110.819 184.214C112.192 182.796 114.717 179.784 116.135 178.101C116.578 177.525 119.014 174.779 119.236 174.734C119.147 174.911 116.489 184.568 116.445 185.011L110.243 184.967ZM104.839 187.536C104.839 188.599 105.503 188.511 106.921 188.511C108.826 188.511 114.186 188.378 115.382 188.555C115.382 188.954 115.16 189.485 115.072 189.84L114.008 193.694C118.615 193.738 117.729 194.004 118.925 190.106C119.058 189.707 119.28 188.954 119.324 188.555H121.76C121.893 188.289 122.381 186.562 122.469 186.119C122.779 184.79 121.45 185.056 120.343 185.056C120.432 184.303 122.558 176.861 122.868 175.62C123.178 174.38 123.71 173.184 123.71 172.165C123.71 171.323 123.001 171.412 122.292 171.412C119.368 171.412 118.128 171.013 116.799 172.652C116.622 172.874 116.445 173.007 116.268 173.184C115.382 174.158 114.54 175.31 113.61 176.196L110.996 179.075C110.775 179.341 110.642 179.43 110.42 179.696C110.066 180.094 109.756 180.537 109.357 180.892C109.136 181.113 109.047 181.202 108.826 181.468L107.231 183.284C106.876 183.638 107.009 183.417 106.699 183.86L105.636 185.056C105.193 185.543 104.839 187.315 104.839 187.536Z" fill="#040000"/>
<path fill-rule="evenodd" clip-rule="evenodd" d="M70.5957 165.787H75.2027C75.3356 165.299 75.5127 164.723 75.6899 164.236L76.6645 161.135C76.7974 160.648 77.0632 159.984 77.1518 159.541C77.4618 159.673 77.5061 159.851 77.7719 160.249L81.36 165.742H85.2139C85.3911 165.698 85.3025 165.609 85.524 165.078C85.6126 164.812 85.7012 164.591 85.7898 164.325C85.967 163.793 86.0999 163.306 86.2771 162.774C86.6315 161.667 86.9415 160.737 87.2516 159.673C87.9161 157.636 88.5805 155.554 89.245 153.472H84.6381L83.9293 155.775C83.8407 156.041 83.7521 156.307 83.6635 156.573L82.9104 158.876C82.8219 159.142 82.7776 159.452 82.6447 159.718C82.3789 159.541 79.278 154.624 78.7465 153.87C78.6136 153.649 78.6136 153.605 78.3921 153.516H74.5382L70.5957 165.787Z" fill="#040000"/>
<path fill-rule="evenodd" clip-rule="evenodd" d="M43.1308 161.489C43.3523 160.825 43.5295 160.293 43.7067 159.717L44.8584 156.085H50.2628L48.5351 161.534C48.358 162.021 48.1365 162.863 47.9593 163.306H42.555L43.1308 161.489ZM37.1064 165.786H47.8707C49.3768 165.786 49.0667 165.609 50.6614 164.989C51.0601 164.812 51.4588 164.59 51.8575 164.457C52.4776 164.191 52.2561 164.369 52.5662 163.35C52.832 162.464 53.1864 161.489 53.4522 160.603C53.718 159.806 54.1166 158.699 54.3381 157.857C54.5596 157.015 55.0469 155.952 55.1798 155.11C55.0469 154.933 54.8697 154.845 54.6039 154.712C51.7689 153.117 53.8066 153.516 48.8895 153.516C46.3646 153.516 43.4409 153.383 40.9603 153.516C40.3401 155.598 39.587 157.591 39.0112 159.585C38.7011 160.648 38.391 161.578 38.0366 162.641L37.1064 165.786Z" fill="#040000"/>
<path fill-rule="evenodd" clip-rule="evenodd" d="M187.497 163.217C187.586 162.73 187.852 161.933 188.029 161.446L189.712 156.041H195.117L192.813 163.217H187.497ZM182.536 164.148C182.758 164.369 183.555 164.856 183.821 165.034C184.131 165.211 184.928 165.787 185.327 165.787H193.433C193.832 165.787 195.028 165.122 195.515 164.945C195.87 164.812 196.135 164.679 196.49 164.502C196.977 164.281 197.066 164.369 197.243 163.793L199.015 158.256C199.148 157.857 199.236 157.503 199.369 157.104C199.502 156.706 199.591 156.44 199.724 156.041C200.122 154.801 200.034 155.155 199.325 154.712L197.996 153.871C197.509 153.561 197.553 153.516 196.844 153.516H189.535C188.561 153.516 188.472 153.738 187.32 154.225C186.966 154.358 186.7 154.535 186.301 154.712C185.061 155.244 185.637 154.712 184.662 157.503L182.536 164.148Z" fill="#040000"/>
<path fill-rule="evenodd" clip-rule="evenodd" d="M98.1491 96.0622L107.983 103.106C108.293 102.973 111.04 98.1442 111.261 97.7455L114.096 92.9614C114.229 92.6956 114.451 92.4741 114.362 92.2526C112.369 91.721 108.736 90.3478 106.566 89.6833C105.68 89.4175 104.661 88.9746 103.864 88.8417C102.889 89.9934 101.959 91.2337 100.984 92.4741C100.497 93.0942 100.054 93.6701 99.5667 94.2903C99.2566 94.6004 98.282 95.7078 98.1491 96.0622Z" fill="#004989"/>
<path fill-rule="evenodd" clip-rule="evenodd" d="M61.4711 160.471C61.5154 160.338 63.4202 157.902 63.686 157.857C63.686 158.3 63.9961 160.028 64.129 160.471H61.4711ZM52.2129 165.787H56.8641C57.1742 165.742 59.1233 162.952 59.3891 162.907H64.7048C64.8377 163.306 64.9706 163.882 65.0592 164.325C65.1478 164.856 65.325 165.299 65.3693 165.787H69.8877L67.0083 153.516L62.9329 153.472L61.604 154.978C59.8321 156.883 58.0159 159.142 56.244 161.091C55.801 161.667 52.4344 165.388 52.2129 165.787Z" fill="#040000"/>
<path fill-rule="evenodd" clip-rule="evenodd" d="M84.1954 87.5568C84.5054 87.5568 84.8155 87.1138 85.1699 86.6708L87.4291 84.0573C87.5177 83.9687 87.562 83.8801 87.6506 83.7915C87.8721 83.57 87.7835 83.7472 87.8721 83.3928L81.5375 81.3108C79.4112 80.602 77.3292 79.9376 75.2029 79.2288C73.121 78.5201 71.039 77.8113 68.9127 77.1468C62.6667 75.1091 56.1107 72.7614 49.8204 70.8123C48.7573 70.5022 47.7384 70.1035 46.7196 69.7934L40.3407 67.6671C40.0306 67.5785 37.4614 66.7812 37.1956 66.5597H37.1513C37.2399 66.7812 37.0627 66.6483 37.4171 66.7812C37.5057 66.8255 37.7271 66.8698 37.8157 66.9141C39.5433 67.4899 41.7139 68.3759 43.3086 68.9075L50.9721 71.8754C54.2945 73.2043 57.4396 74.5776 60.6733 75.9951C63.8185 77.3683 68.4697 79.4946 71.5705 81.0893C72.0135 81.3108 72.5451 81.5323 73.0324 81.7538L80.0314 85.3862C80.563 85.6963 83.7967 87.4682 84.1954 87.5568Z" fill="#040000"/>
<path fill-rule="evenodd" clip-rule="evenodd" d="M172.303 81.3553C172.17 81.6211 167.652 85.5193 166.766 86.361L164.329 88.4872C164.064 88.7087 159.59 92.6069 159.501 92.8727L171.018 86.1838C171.639 85.8737 172.17 85.5193 172.746 85.2092L176.999 83.0386C177.707 82.5957 180.498 81.311 181.384 80.8681L186.744 78.3874C187.32 78.1216 187.896 77.8558 188.56 77.59C189.136 77.3242 189.756 77.0585 190.376 76.7927C191.617 76.3054 192.768 75.7738 194.009 75.2423C196.357 74.312 199.147 73.0717 201.451 72.23C202.027 72.0085 202.735 71.7427 203.311 71.5213C205.083 70.8125 207.165 70.0594 208.981 69.395C210.222 68.9077 211.551 68.509 212.791 68.0217L216.689 66.6928C216.291 66.6485 206.235 70.0594 205.615 70.2809C198.261 72.8059 190.775 75.1537 183.422 77.6786L173.721 80.8681C173.322 81.0009 172.657 81.1781 172.303 81.3553Z" fill="#040000"/>
<path fill-rule="evenodd" clip-rule="evenodd" d="M81.6254 174.868C81.5812 175.399 77.5058 189.752 77.0628 191.612C76.4869 194.049 76.6641 193.694 80.1636 193.694L80.4737 193.65L82.3785 186.695C82.7329 185.544 82.9987 184.392 83.3088 183.24C83.6631 182.088 83.9289 180.937 84.239 179.785C84.8592 177.437 85.5236 175.134 86.1438 172.874C86.6311 170.97 85.6122 171.324 83.4859 171.324C82.0241 171.324 80.5623 171.324 79.0562 171.324C78.9676 171.944 78.3031 173.805 78.436 174.292C78.7018 175.178 80.6952 174.868 81.6254 174.868Z" fill="#040000"/>
<path fill-rule="evenodd" clip-rule="evenodd" d="M90.662 91.3663L93.4085 93.0939C93.7629 93.3154 94.0729 93.4483 94.383 93.6697C95.0032 94.0684 95.6677 94.5114 96.2435 94.8658C96.8637 95.2202 97.5724 95.8403 98.1483 96.0618C98.2812 95.7074 99.2558 94.6 99.5658 94.2013C100.053 93.5811 100.496 93.0053 100.983 92.3851C101.958 91.1448 102.888 89.9044 103.863 88.7527C103.508 88.5312 102.401 88.2211 101.958 88.0882C101.338 87.8668 100.585 87.6453 99.9645 87.4238L95.9334 86.0948C96.022 86.1834 95.8448 86.1391 96.1549 86.272L92.744 89.5058C92.3453 89.8601 91.0164 91.2777 90.662 91.3663Z" fill="#81B021"/>
<path fill-rule="evenodd" clip-rule="evenodd" d="M175.581 165.787H180.232C180.321 165.078 183.953 154.535 184.13 153.516H179.523C178.903 155.554 178.195 157.636 177.574 159.629C177.264 160.648 176.954 161.711 176.6 162.686L175.581 165.787Z" fill="#040000"/>
<path fill-rule="evenodd" clip-rule="evenodd" d="M84.1942 87.5567C84.3271 87.7339 87.1622 89.2843 87.428 89.4615L89.82 90.8347C90.0858 90.9676 90.3959 91.1891 90.6617 91.322C91.0161 91.2334 92.345 89.8602 92.6994 89.5058L96.1103 86.272C95.8002 86.1392 95.9774 86.1835 95.8888 86.0949C95.2687 85.8291 94.6042 85.6519 93.9397 85.4304C93.231 85.2089 92.6108 84.9874 91.9463 84.7659C91.3262 84.5887 90.6174 84.323 89.9529 84.1015C89.2442 83.88 88.5797 83.6585 87.9152 83.3927C87.8267 83.7028 87.9152 83.5256 87.6938 83.7914C87.6052 83.88 87.5609 83.9243 87.4723 84.0572L85.2131 86.6707C84.7701 87.1137 84.5043 87.5567 84.1942 87.5567Z" fill="#445B0F"/>
<path fill-rule="evenodd" clip-rule="evenodd" d="M233.834 119.097C233.834 118.034 234.631 116.838 235.251 116.262C238.042 113.648 242.738 115.598 242.782 119.496C242.782 120.869 242.25 121.888 241.541 122.641C239.902 124.413 237.067 124.546 235.251 122.818C233.967 121.533 233.834 120.647 233.834 119.097ZM244.022 120.204V118.831L243.934 118.61C243.535 116.971 243.358 116.528 242.073 115.199C240.611 113.737 237.909 113.294 235.783 114.313C235.163 114.623 234.542 115.066 234.144 115.465C231.973 117.68 232.018 121.09 234.055 123.527C234.277 123.793 235.296 124.501 235.65 124.679C237.023 125.387 238.795 125.476 240.301 124.944C240.788 124.767 241.719 124.236 242.073 123.881C242.826 123.217 242.826 123.084 243.313 122.286C243.845 121.445 243.934 120.382 244.022 120.204Z" fill="#040000"/>
<path fill-rule="evenodd" clip-rule="evenodd" d="M237.332 117.635C238.218 117.591 239.769 117.369 239.636 118.344C239.547 119.23 238.174 119.097 237.288 119.053L237.332 117.635ZM239.503 119.939C239.68 119.761 240.034 119.761 240.3 119.54C240.522 119.363 240.743 119.141 240.832 118.831C241.053 118.122 240.832 117.325 240.433 116.971C239.68 116.262 237.332 116.483 235.959 116.483V122.596H237.244V120.071C238.573 119.983 238.617 120.869 239.946 122.552H241.363C241.363 122.286 241.142 122.065 240.965 121.799C240.788 121.533 240.655 121.312 240.522 121.09C240.212 120.559 240.034 120.382 239.503 119.939Z" fill="#040000"/>
<path fill-rule="evenodd" clip-rule="evenodd" d="M127.607 92.2078C127.829 92.2964 128.227 92.2964 128.449 92.3407C128.803 92.385 128.981 92.4293 129.291 92.5179C129.822 92.6508 130.309 92.828 130.752 93.0938L133.765 88.221C133.632 88.0881 133.588 88.0881 133.366 87.9553C133.233 87.8667 133.1 87.7781 132.967 87.7338C132.702 87.6009 132.347 87.3794 132.037 87.3351C131.816 87.468 131.151 88.2653 130.93 88.5311C130.752 88.7526 130.531 88.9298 130.354 89.1513C130.132 89.4171 130.044 89.5057 129.778 89.7715L127.607 92.2078Z" fill="#96005B"/>
<path fill-rule="evenodd" clip-rule="evenodd" d="M122.69 193.694C125.481 193.738 126.456 194.092 126.987 192.276C127.12 191.878 127.563 190.327 127.563 189.928C124.95 189.884 123.842 189.574 123.355 191.302C123.089 191.966 122.69 193.118 122.69 193.694Z" fill="#040000"/>
<path fill-rule="evenodd" clip-rule="evenodd" d="M170.841 136.196C171.019 135.93 171.24 135 171.373 134.601L172.702 130.437C172.79 130.127 172.79 129.817 173.101 129.817H181.118C182.137 129.817 182.004 130.393 181.783 131.146C181.251 133.006 181.296 133.582 179.922 133.937C177.397 134.468 173.012 135.797 170.841 136.196ZM156.002 148.909H167.12L169.158 142.265C169.335 141.689 169.734 140.626 169.823 140.005C174.119 140.005 173.322 139.651 173.987 141.069L177.442 148.378C177.708 148.865 177.575 148.865 177.752 148.909H189.934L188.782 146.561C188.383 145.764 187.94 144.967 187.586 144.169C187.232 143.372 186.789 142.575 186.39 141.822C186.168 141.379 185.991 141.069 185.77 140.626C185.593 140.227 185.327 139.828 185.15 139.43C186.124 138.987 189.668 139.297 191.484 135.62C191.838 134.867 192.06 133.892 192.326 133.006C193.256 129.861 195.515 124.811 190.642 123.748C188.693 123.305 179.967 123.482 177.309 123.482C172.746 123.482 168.228 123.438 163.665 123.482L161.76 129.817C160.874 132.652 159.678 136.462 158.881 139.385L156.002 148.909Z" fill="#040000"/>
<path fill-rule="evenodd" clip-rule="evenodd" d="M133.941 142.707C134.118 142.176 134.295 141.6 134.428 141.024C134.871 139.385 137.706 130.392 137.795 129.772H147.142C147.098 130.127 146.344 132.519 146.167 133.05C145.591 134.911 143.598 141.245 143.288 142.707H133.941ZM122.424 144.789C122.424 146.34 122.645 147.27 124.018 148.112C124.727 148.555 126.632 148.953 127.429 148.953H147.142C148.116 148.953 149.49 148.555 150.376 148.156C151.394 147.713 152.103 147.093 152.679 146.384C153.831 144.922 154.451 142.619 155.027 140.625C155.514 139.031 158.659 129.374 158.659 128.045C158.659 127.07 158.748 126.096 158.083 125.21C157.419 124.324 156.356 123.969 155.293 123.748C154.894 123.659 153.786 123.482 153.432 123.482H134.074C133.232 123.482 131.549 123.881 130.796 124.235C128.758 125.254 127.784 126.583 127.075 128.665L125.126 134.955C124.55 136.993 122.424 143.195 122.424 144.789Z" fill="#040000"/>
<path fill-rule="evenodd" clip-rule="evenodd" d="M52.6111 148.953H84.0624C84.2839 148.909 84.1953 148.953 84.3725 148.289L86.0558 142.707H65.6789L66.6091 139.474H82.8663L84.7711 133.006H68.6025C68.7354 132.475 68.9126 131.943 69.0898 131.412C69.2227 131.013 69.4885 130.171 69.5328 129.773H89.9983C90.0869 129.285 90.3083 128.665 90.4412 128.178L91.3715 125.033C91.5044 124.545 91.6373 123.97 91.8145 123.527C90.7513 123.438 77.1519 123.527 75.6458 123.527H61.4706C59.7873 123.527 60.3631 122.862 59.0785 127.159L57.661 131.81C57.2623 133.316 56.6421 135.044 56.2435 136.506C55.6676 138.588 54.9588 140.625 54.383 142.707C54.1172 143.682 53.7185 144.789 53.4527 145.764C53.3641 146.473 52.6554 148.378 52.6111 148.953Z" fill="#040000"/>
<path fill-rule="evenodd" clip-rule="evenodd" d="M88.7577 144.967C88.7577 147.049 89.7766 148.245 91.8586 148.688C92.3015 148.776 93.2761 148.998 93.7634 148.998H114.229C115.735 148.998 117.994 147.27 118.747 145.72L119.677 142.707C119.943 141.733 120.342 140.581 120.563 139.651H112.014C111.881 139.872 111.172 142.486 111.128 142.752H100.319C100.452 142.176 100.674 141.644 100.807 141.113C100.94 140.625 101.117 140.005 101.294 139.474C101.604 138.455 101.958 137.303 102.269 136.196L103.996 130.526C104.085 130.216 104.04 129.817 104.395 129.817H114.406C114.273 130.304 113.52 132.652 113.476 133.051H122.247C122.468 133.006 122.424 132.829 122.601 132.386C123 131.101 124.329 127.425 124.373 126.627C124.417 125.343 123.664 124.324 122.867 123.925C121.804 123.438 120.342 123.571 118.924 123.571C113.166 123.571 107.451 123.571 101.693 123.571C97.9716 123.571 94.9594 124.634 93.6305 128.311L90.6182 138.145C89.9981 139.74 88.7577 143.549 88.7577 144.967Z" fill="#040000"/>
<path fill-rule="evenodd" clip-rule="evenodd" d="M150.199 160.47C150.288 160.293 151.971 158.123 152.325 157.813L152.813 160.47H150.199ZM132.524 158.61C132.48 158.167 133.144 156.572 133.277 156.041H138.593C138.505 156.617 138.239 157.237 138.062 157.768C137.751 158.787 138.017 158.61 136.821 158.61C135.404 158.61 133.986 158.61 132.524 158.61ZM125.525 165.786H130.177C130.221 165.432 130.708 164.059 130.841 163.527C131.063 162.774 131.328 162.021 131.55 161.268H133.942L135.448 164.723C135.802 165.565 135.758 165.786 136.112 165.786H145.548C145.814 165.698 146.567 164.679 146.788 164.369C146.965 164.191 147.851 162.995 148.028 162.951C148.206 162.863 152.946 162.863 153.344 162.951C153.477 163.35 153.61 163.926 153.699 164.324C153.787 164.767 153.964 165.299 154.009 165.786H158.438C158.438 165.387 157.907 163.261 157.774 162.685C157.154 160.027 156.356 156.439 155.692 153.87C155.603 153.604 155.692 153.516 155.338 153.516H151.794C151.395 153.516 151.174 153.914 150.996 154.136L149.003 156.395C148.56 156.882 148.028 157.414 147.674 157.901C146.035 159.983 143.554 162.597 141.694 164.767C141.561 164.9 141.472 164.989 141.34 165.122C141.207 165.299 141.207 165.387 141.029 165.565C140.631 165.387 140.321 164.236 139.878 163.394L138.859 161.135C139.036 160.958 141.384 159.939 141.561 159.895C142.314 159.629 142.004 159.54 142.491 158.167C142.624 157.768 142.757 157.458 142.846 157.148C142.934 156.794 143.466 155.376 143.466 155.066L141.738 153.959C141.517 153.826 141.295 153.693 141.118 153.604C140.586 153.294 138.106 153.471 137.264 153.471C134.651 153.471 132.081 153.471 129.468 153.471C129.291 153.516 128.981 154.712 128.936 154.933L127.474 159.585C127.297 160.116 127.12 160.559 126.987 161.091C126.633 162.42 125.791 164.679 125.525 165.786Z" fill="#040000"/>
<path fill-rule="evenodd" clip-rule="evenodd" d="M142.579 91.2777C142.181 91.765 141.782 92.2966 141.427 92.7839L126.721 111.788C126.322 112.275 124.639 114.357 124.506 114.755H130.442C130.663 114.401 131.018 114.18 131.328 113.825C131.638 113.515 131.859 113.249 132.169 112.939C135.935 108.864 140.276 104.611 144.041 100.58C147.319 97.0807 150.907 93.4926 154.229 89.9488L155.913 88.1769C156.444 87.601 157.02 86.9366 157.596 86.405C157.508 86.2721 157.685 86.2721 157.508 86.3164C156.666 86.4936 142.756 91.1891 142.579 91.2777Z" fill="#CE7600"/>
<path fill-rule="evenodd" clip-rule="evenodd" d="M114.362 92.2523C114.451 92.5181 114.229 92.6953 114.096 92.9611L111.261 97.7452C111.04 98.1439 108.293 102.972 107.983 103.105L112.103 106.516C112.59 106.871 112.989 107.358 113.476 107.757C113.609 107.446 115.957 104.877 116.444 104.39C116.621 104.213 116.754 104.036 116.932 103.858L118.925 101.688C119.102 101.466 119.235 101.289 119.456 101.112C119.855 100.713 121.184 99.1185 121.538 98.9413C121.228 98.4097 120.741 96.9036 120.874 96.0619C121.184 94.2457 122.867 93.1383 124.506 92.5624C125.525 92.208 126.456 92.208 127.652 92.1637L129.866 89.6831C130.132 89.4173 130.221 89.3287 130.442 89.0629C130.619 88.8414 130.841 88.6642 131.018 88.4427C131.24 88.177 131.904 87.4239 132.126 87.2467C131.373 86.6265 128.405 86.0064 127.076 85.9621C125.127 85.9178 123.576 86.5379 121.981 87.2024C119.944 88.0441 117.064 90.2589 115.337 91.5879C114.938 91.898 114.761 92.2523 114.362 92.2523Z" fill="#0E9AD7"/>
<path fill-rule="evenodd" clip-rule="evenodd" d="M157.508 86.3167C157.73 86.2724 157.552 86.2724 157.597 86.4052C156.977 86.9368 156.445 87.6013 155.913 88.1772L154.23 89.9491C150.908 93.4929 147.275 97.081 144.042 100.58C140.276 104.656 135.935 108.864 132.17 112.94C131.86 113.25 131.638 113.515 131.328 113.825C131.018 114.18 130.664 114.401 130.442 114.756C131.151 114.756 133.012 114.844 133.587 114.756C133.853 114.711 133.853 114.623 134.03 114.401L135.138 113.072C135.802 112.275 136.6 111.301 137.353 110.547L143.023 105.055C143.776 104.523 146.7 101.777 148.25 100.713C148.87 100.27 150.642 98.7643 151.351 98.3213L159.413 92.7841C159.502 92.5183 163.976 88.6201 164.241 88.3986L166.678 86.2724C167.564 85.4307 172.082 81.5325 172.215 81.2667L168.494 82.5071C167.209 82.95 166.013 83.3487 164.773 83.7474L157.508 86.3167Z" fill="#FFEC00"/>
<path fill-rule="evenodd" clip-rule="evenodd" d="M130.752 93.0939C131.815 93.6255 133.056 94.6443 133.189 96.0619C133.321 97.5237 132.48 99.207 131.815 100.004C130.575 101.643 129.113 103.017 126.854 103.149C125.879 103.194 125.259 102.751 124.772 102.618C124.24 103.637 122.336 106.56 121.583 107.801L119.19 111.655C119.013 111.965 118.482 112.673 118.437 112.895C118.747 113.205 119.013 113.471 119.235 113.825L120.032 114.755H124.462C124.595 114.401 126.278 112.275 126.677 111.788L141.384 92.7838C141.782 92.2966 142.137 91.765 142.535 91.2777C142.137 91.322 141.472 91.5878 141.029 91.7207C140.498 91.8536 140.01 92.1194 139.523 92.208L136.732 90.126C136.245 89.7716 135.802 89.4615 135.315 89.1071L133.72 88.1769L130.752 93.0939Z" fill="#E5007B"/>
<path fill-rule="evenodd" clip-rule="evenodd" d="M170.132 163.217H164.728C164.817 162.907 164.949 162.597 165.038 162.287C165.127 161.977 165.215 161.667 165.304 161.401C165.481 160.825 165.703 160.205 165.88 159.585C166.234 158.433 166.677 157.192 166.987 155.996H172.347C172.259 156.528 170.93 160.603 170.664 161.401C170.487 161.844 170.177 162.774 170.132 163.217ZM159.279 165.786C159.988 165.875 168.449 165.786 169.955 165.83C171.328 165.83 171.24 165.653 172.746 165.033C173.189 164.856 173.499 164.679 173.942 164.502C174.562 164.236 174.429 164.147 174.651 163.438L176.866 156.572C176.998 156.129 177.22 155.642 177.264 155.155L174.872 153.649C174.429 153.427 168.095 153.56 167.076 153.56C166.057 153.56 164.064 153.427 163.133 153.604L160.165 162.73C160.032 163.261 159.279 165.343 159.279 165.786Z" fill="#040000"/>
<path fill-rule="evenodd" clip-rule="evenodd" d="M103.021 165.786H117.728C117.773 165.432 117.994 164.9 118.083 164.546C118.215 164.147 118.348 163.704 118.526 163.306H108.47C108.559 162.951 108.736 162.464 108.824 162.154C108.957 161.755 109.09 161.445 109.179 161.046H117.33C117.462 160.781 117.64 160.116 117.773 159.762L118.215 158.433L110.065 158.389C110.109 158.034 110.331 157.591 110.419 157.237C110.552 156.838 110.685 156.484 110.773 156.085H120.829C120.962 155.864 121.582 153.87 121.626 153.604L106.92 153.56C106.698 154.003 103.066 165.521 103.021 165.786Z" fill="#040000"/>
<path fill-rule="evenodd" clip-rule="evenodd" d="M87.252 164.147C87.6063 164.413 89.7769 165.786 90.2199 165.786H100.896C101.073 165.742 101.161 165.255 101.294 164.9L101.914 162.951C102.047 162.508 102.18 162.331 102.269 161.888H99.168L98.8136 163.04H92.8778C92.9663 162.508 93.2321 161.799 93.4093 161.312L95.1369 156.218H101.029L100.497 157.99L103.509 158.034C103.731 157.99 105.015 153.87 105.104 153.516C101.693 153.427 97.9277 153.516 94.4725 153.516C93.6308 153.516 91.4159 154.579 90.5743 154.978C90.1756 155.155 90.087 155.775 89.9541 156.174C89.6883 157.06 89.3782 157.946 89.0682 158.832C88.7581 159.717 88.448 160.559 88.1822 161.445L87.252 164.147Z" fill="#040000"/>
<path fill-rule="evenodd" clip-rule="evenodd" d="M113.432 107.801C113.742 107.978 114.362 108.643 114.76 108.997C115.336 109.485 118.349 112.63 118.481 112.895C118.57 112.674 119.057 111.965 119.235 111.655L121.627 107.801C122.38 106.561 124.284 103.637 124.816 102.618C124.772 102.574 124.816 102.574 124.683 102.53C124.152 102.087 123.93 102.22 122.867 101.068C122.424 100.581 121.804 99.6947 121.494 98.986C121.139 99.1632 119.81 100.758 119.412 101.157C119.235 101.378 119.102 101.555 118.88 101.732L116.887 103.903C116.71 104.124 116.577 104.257 116.399 104.435C115.957 104.878 113.564 107.491 113.432 107.801Z" fill="#96005B"/>
<rect x="0.896289" y="0.495899" width="259.008" height="259.008" rx="19.5041" stroke="#DDD9E9" stroke-width="0.991798"/>
</svg>
