<svg width="45" height="78" viewBox="0 0 45 78" fill="none" xmlns="http://www.w3.org/2000/svg">
<path d="M34.9282 77.7975H9.32654C8.02947 77.7975 6.97946 76.7466 6.97946 75.4484C6.97946 74.1503 8.02947 73.0994 9.32654 73.0994H34.9282C36.2252 73.0994 37.2752 74.1503 37.2752 75.4484C37.2752 76.7466 36.2252 77.7975 34.9282 77.7975Z" fill="#8B97A3"/>
<path d="M22.1428 77.7975C20.8457 77.7975 19.7957 76.7466 19.7957 75.4484V56.1613C19.7957 54.8632 20.8457 53.8123 22.1428 53.8123C23.4398 53.8123 24.4898 54.8632 24.4898 56.1613V75.4484C24.4898 76.7466 23.4398 77.7975 22.1428 77.7975Z" fill="#8B97A3"/>
<path d="M22.2663 47.7541H22.0192C15.0089 47.7541 9.35739 42.0669 9.35739 35.0815V12.6726C9.35739 5.65631 15.0398 0 22.0192 0H22.2663C29.2766 0 34.9281 5.68722 34.9281 12.6726V35.0815C34.9281 42.0978 29.2766 47.7541 22.2663 47.7541Z" fill="#8B97A3"/>
<path d="M22.2663 57.1195H22.0192C16.1207 57.1195 10.5927 54.8322 6.45445 50.6595C2.28531 46.4868 0 40.9542 0 35.0815C0 33.7833 1.05001 32.7324 2.34707 32.7324C3.64414 32.7324 4.69415 33.7833 4.69415 35.0815C4.69415 39.7178 6.48533 44.0759 9.75888 47.3523C13.0324 50.6286 17.3869 52.4213 22.0192 52.4213H22.2663C26.8987 52.4213 31.2531 50.6286 34.5267 47.3523C37.8002 44.0759 39.5914 39.7178 39.5914 35.0815C39.5914 33.7833 40.6414 32.7324 41.9385 32.7324C43.2355 32.7324 44.2855 33.7833 44.2855 35.0815C44.2855 40.9851 42.0002 46.5177 37.8311 50.6595C33.6928 54.8322 28.134 57.1195 22.2663 57.1195Z" fill="#8B97A3"/>
</svg>
